<svg width="370" height="202" viewBox="0 0 370 202" fill="none" xmlns="http://www.w3.org/2000/svg" xmlns:xlink="http://www.w3.org/1999/xlink">
<path d="M145.361,201.922C153.013,201.516 160.529,199.731 167.546,196.655C173.698,193.999 179.512,190.619 184.863,186.587C188.825,189.787 193.326,192.257 198.155,193.881C203.478,195.831 209.088,196.884 214.756,196.998C225.702,197.07 236.396,193.712 245.334,187.398C250.4,184.123 254.622,179.703 257.658,174.494C257.72,174.413 257.752,174.315 257.752,174.214C257.752,174.113 257.72,174.014 257.658,173.933C264.612,175.718 271.696,176.948 278.846,177.611C295.436,179.185 312.178,177.599 328.176,172.936C342.342,168.79 356.852,161.528 364.59,148.375C368.218,142.005 370.036,134.766 369.85,127.439C369.662,120.112 367.476,112.975 363.528,106.797C359.558,100.976 354.088,96.333 347.696,93.36C341.302,90.386 334.224,89.192 327.21,89.904C325.842,90.079 324.494,90.382 323.184,90.808C324.256,83.928 323.806,76.896 321.866,70.208C319.926,63.52 316.54,57.338 311.952,52.097C306.972,46.586 300.728,42.365 293.754,39.797C286.78,37.229 279.288,36.391 271.918,37.355C267.702,37.86 263.57,38.908 259.624,40.472C256.44,41.699 253.452,43.39 250.762,45.49C248.304,35.673 242.852,26.862 235.162,20.275C225.374,12.124 213.794,6.399 201.37,3.569C177.062,-2.665 149.417,-1.636 128.698,13.948C118.742,21.153 111.448,31.442 107.949,43.214C107.911,43.264 107.89,43.324 107.89,43.386C107.89,43.448 107.911,43.508 107.949,43.557C86.825,42.498 65.139,44.586 45.731,53.406C28.101,61.448 12.563,75.068 4.98,93.457C1.077,102.584 -0.571,112.515 0.175,122.412C1.009,131.461 4.063,140.164 9.068,147.752C19.343,162.546 34.335,173.424 51.597,178.608C69.039,184.219 87.48,185.029 105.733,184.53C106.947,186.454 108.429,188.196 110.133,189.704C112.113,191.579 114.276,193.25 116.592,194.691C118.885,196.12 121.297,197.35 123.8,198.369C130.65,201.078 138.002,202.29 145.361,201.922Z" fill="#AAAAAA"/>
<path d="M361.968,144.137C355.728,157.258 342.186,164.739 328.956,169.071C314.012,173.832 298.304,175.746 282.652,174.713C267.008,173.765 251.666,169.984 237.376,163.554L232.042,160.999C231.012,160.5 229.608,162.339 230.7,162.931C238.768,167.203 247.316,170.509 256.16,172.78C256.022,172.81 255.894,172.874 255.786,172.967C252.474,176.79 248.84,180.325 244.928,183.533C240.908,186.588 236.448,189.015 231.698,190.733C221.652,194.327 210.716,194.611 200.496,191.543C195.339,189.933 190.418,187.648 185.862,184.749C185.974,184.697 186.074,184.62 186.154,184.525C186.234,184.43 186.292,184.318 186.323,184.198C186.355,184.078 186.359,183.953 186.336,183.831C186.314,183.709 186.264,183.593 186.192,183.493C186.119,183.392 186.025,183.308 185.916,183.248C185.807,183.188 185.687,183.153 185.563,183.145C185.439,183.137 185.315,183.156 185.199,183.202C185.083,183.247 184.979,183.318 184.894,183.408L184.208,183.907C183.833,183.658 183.303,184.156 183.553,184.53C174.378,191.541 163.695,196.321 152.35,198.494C141.416,200.355 130.173,198.489 120.43,193.195C117.946,191.787 115.614,190.126 113.472,188.239C111.804,186.662 110.22,184.997 108.729,183.253C112.411,183.253 116.061,182.972 119.712,182.785C122.52,182.785 125.36,182.442 128.168,182.224C129.291,182.224 129.759,180.073 128.418,180.136C106.576,180.977 84.734,182.442 63.267,177.455C45.743,173.865 29.844,164.728 17.929,151.399C12.43,145.021 8.46,137.474 6.322,129.332C4.046,120.011 4.229,110.26 6.852,101.031C9.607,91.944 14.151,83.497 20.216,76.186C26.281,68.876 33.746,62.848 42.174,58.456C60.677,48.233 82.051,44.929 102.988,45.241C105.64,45.241 108.292,45.241 110.944,45.552C111.631,45.552 112.036,44.461 111.225,44.399L109.571,44.399C109.695,44.327 109.793,44.218 109.852,44.087C116.81,23.018 136.561,8.805 157.842,4.753C170.4,2.547 183.275,2.908 195.69,5.813C207.608,8.09 218.924,12.813 228.92,19.683C234.206,23.317 238.686,27.998 242.084,33.435C245.482,38.872 247.724,44.948 248.672,51.287C248.672,52.565 250.856,52.066 250.732,50.913C250.606,49.76 250.42,48.607 250.2,47.485C252.76,46.051 255.194,44.368 257.94,43.215C261.204,41.776 264.63,40.73 268.142,40.098C275.262,38.818 282.582,39.224 289.516,41.282C296.162,43.4 302.206,47.068 307.15,51.985C312.094,56.901 315.792,62.923 317.942,69.552C320.482,76.971 320.988,84.935 319.408,92.616C319.19,93.8 320.968,93.769 321.156,92.616C321.268,92.175 321.352,91.728 321.406,91.276C327.848,90.548 334.372,91.218 340.532,93.239C346.946,95.475 352.652,99.368 357.07,104.522C361.524,110.001 364.346,116.622 365.212,123.627C366.078,130.632 364.954,137.739 361.968,144.137Z" fill="#FFFFFF"/>
<g style="mix-blend-mode:multiply">
<path d="M357.07,104.647C352.87,99.752 347.504,95.99 341.468,93.707C345.366,98.262 347.982,103.769 349.05,109.665C354.136,137.093 328.77,153.643 305.368,158.443C279.688,163.71 248.142,160.718 226.518,144.729C222.726,150.739 216.698,154.999 209.762,156.573C204.754,157.433 199.608,157.006 194.81,155.332C190.012,153.658 185.719,150.792 182.336,147.004C166.235,165.3 126.826,156.012 130.259,130.111C115.912,136.751 99.985,139.225 84.297,137.249C69.013,135.206 54.458,129.471 41.893,120.543C31.752,113.405 20.956,103.151 21.112,89.842C21.112,80.055 26.853,70.954 33.843,63.754C20.817,72.76 11.288,85.965 6.852,101.156C4.229,110.385 4.046,120.136 6.322,129.457C8.46,137.599 12.43,145.146 17.929,151.524C29.799,164.835 45.639,173.981 63.111,177.611C84.516,182.598 106.513,181.133 128.262,180.292C129.603,180.292 129.135,182.318 128.012,182.38C125.204,182.598 122.364,182.816 119.556,182.941C115.905,183.128 112.255,183.284 108.573,183.408C110.119,185.104 111.754,186.717 113.472,188.24C115.614,190.126 117.946,191.787 120.43,193.195C130.165,198.415 141.37,200.225 152.256,198.338C163.601,196.166 174.284,191.385 183.459,184.375C183.209,184.001 183.74,183.502 184.114,183.751L184.801,183.253C184.886,183.162 184.99,183.092 185.105,183.046C185.221,183.001 185.345,182.981 185.469,182.989C185.593,182.997 185.714,183.033 185.823,183.093C185.931,183.153 186.025,183.236 186.098,183.337C186.171,183.437 186.22,183.553 186.243,183.675C186.266,183.797 186.261,183.923 186.229,184.043C186.198,184.163 186.14,184.274 186.06,184.369C185.981,184.464 185.881,184.541 185.768,184.593C190.325,187.493 195.245,189.777 200.402,191.387C210.622,194.456 221.558,194.172 231.604,190.577C236.354,188.859 240.814,186.432 244.834,183.377C248.748,180.169 252.38,176.635 255.692,172.811C255.8,172.719 255.928,172.654 256.068,172.624C247.222,170.354 238.676,167.048 230.606,162.775C229.514,162.183 230.918,160.344 231.948,160.843L237.314,163.367C251.604,169.798 266.946,173.578 282.59,174.526C298.242,175.559 313.95,173.645 328.894,168.884C342.124,164.583 355.728,157.103 361.906,143.95C364.838,137.597 365.938,130.554 365.084,123.611C364.23,116.668 361.454,110.101 357.07,104.647Z" fill="#EDEDED"/>
</g>
</svg>
