<svg width="354" height="212" viewBox="0 0 354 212" fill="none" xmlns="http://www.w3.org/2000/svg" xmlns:xlink="http://www.w3.org/1999/xlink">
<path d="M347.888,78.565C342.358,65.627 333.91,54.468 323.352,46.153C302.504,28.966 276.624,20.88 250.692,23.45C247.574,23.798 233.792,24.694 230.72,25.391C222.104,19.535 213.03,14.536 203.608,10.455C186.955,3.293 169.203,-0.257 151.328,0C133.505,0.149 115.909,4.423 99.681,12.546C84.552,20.281 71.229,31.726 60.73,46.004C55.073,53.792 50.364,62.362 46.722,71.495C44.902,76.045 43.391,80.738 42.204,85.535C41.616,87.825 41.119,90.066 40.667,92.406C25.711,90.514 11.568,101.816 4.835,116.055C-3.073,132.833 -0.09,152.997 8.585,168.68C18.314,184.72 32.778,196.558 49.524,202.187C67.169,208.719 85.812,211.343 104.38,209.905C120.069,208.951 135.492,205.027 149.973,198.304C161.12,203.207 172.828,206.389 184.766,207.763C197.327,209.497 210.02,209.765 222.632,208.561C248.018,206.175 272.656,197.895 294.93,184.264C317.522,170.274 340.116,150.259 349.152,122.328C353.706,108.078 353.254,92.467 347.888,78.565Z" fill="#AAAAAA"/>
<path d="M345.313,113.316C340.207,141.197 319.195,161.561 298.229,175.949C277.549,189.948 254.479,199.116 230.449,202.884C206.193,206.709 181.485,205.135 157.79,198.254L152.729,196.81C156.526,194.84 160.208,192.611 163.755,190.139C164.024,189.993 164.23,189.736 164.328,189.423C164.425,189.111 164.406,188.768 164.274,188.471C164.142,188.174 163.909,187.946 163.625,187.839C163.341,187.732 163.03,187.753 162.76,187.898C146.669,195.455 129.694,200.483 112.333,202.835C95.076,205.012 77.603,203.695 60.775,198.951C44.697,195.014 30.06,185.858 18.752,172.663C8.721,159.918 2.666,141.944 6.462,125.166C8.39,116.902 12.675,109.54 18.687,104.162C24.698,98.784 32.118,95.675 39.854,95.293C39.613,96.939 39.492,98.604 39.493,100.272C39.493,103.309 43.559,102.363 44.011,100.023C44.915,95.741 45.548,91.36 46.542,87.128C47.486,83.126 48.679,79.2 50.111,75.378C52.962,67.649 56.648,60.327 61.092,53.571C70.282,39.538 82.32,28.065 96.246,20.064C126.883,2.439 163.257,1.493 195.656,12.845C214.327,19.335 231.933,29.085 247.801,41.722C248.795,42.468 250.331,40.726 249.293,39.83C245.271,36.394 241.159,33.158 236.957,29.872C260.679,26.039 289.869,28.876 311.469,45.356C321.899,52.576 330.941,61.981 338.083,73.038C345.239,84.88 347.839,99.365 345.313,113.316Z" fill="#FFFFFF"/>
<g style="mix-blend-mode:multiply">
<path d="M338.489,73.188C332.769,64.022 325.571,56.09 317.251,49.788C324.417,64.968 326.771,82.353 323.939,99.177C318.969,129.05 300.397,150.359 275.635,162.308C251.885,173.948 225.669,178.102 199.904,174.307C180.835,171.22 156.254,164.349 148.843,142.442C136.957,152.388 123.16,159.198 108.511,162.349C93.862,165.499 78.753,164.906 64.345,160.615C41.752,153.794 13.601,129.896 19.566,103.957C13.274,109.404 8.781,116.979 6.778,125.515C2.982,142.293 9.037,160.366 19.069,173.012C30.376,186.207 45.014,195.363 61.092,199.3C77.919,204.044 95.392,205.36 112.649,203.183C130.01,200.832 146.986,195.804 163.077,188.247C163.346,188.102 163.657,188.081 163.941,188.188C164.225,188.295 164.459,188.523 164.591,188.82C164.722,189.117 164.742,189.459 164.644,189.772C164.547,190.085 164.341,190.342 164.071,190.488C160.495,192.964 156.783,195.192 152.955,197.159L158.016,198.603C181.711,205.484 206.419,207.059 230.675,203.233C254.705,199.465 277.775,190.297 298.455,176.298C319.421,161.909 340.433,141.447 345.539,113.665C346.839,106.739 346.887,99.598 345.677,92.652C344.467,85.706 342.025,79.091 338.489,73.188Z" fill="#EDEDED"/>
</g>
</svg>
