<svg width="96" height="96" viewBox="0 0 96 96" fill="none" xmlns="http://www.w3.org/2000/svg" xmlns:xlink="http://www.w3.org/1999/xlink">
<circle cx="1064" cy="4530" r="0" fill="#AA1070" stroke="#F8EBFD" stroke-width="3" stroke-miterlimit="3.999327"/>
<circle cx="1064" cy="4530" r="0" fill="#CD3F97"/>
<path d="M27.894,16.443C32.948,9.492 37.898,7.755 39.741,7.755C27.894,17.232 28.683,25.13 27.894,25.92C25.046,28.768 21.575,25.13 27.894,16.443Z" transform="rotate(37.422 32.041 17.314)" fill="#FFFFFF"/>
<path d="M48.094,9.203C48.094,9.756 47.198,10.203 46.094,10.203C44.989,10.203 44.094,9.756 44.094,9.203C44.094,8.651 44.989,8.203 46.094,8.203C47.198,8.203 48.094,8.651 48.094,9.203Z" transform="rotate(-12.004 46.094 9.203)" fill="#FFFFFF"/>
<path d="M55.504,53.39C56.697,53.391 57.84,53.865 58.683,54.709C59.527,55.552 60,56.696 60,57.888L60,59.724C60.001,60.872 59.643,61.991 58.976,62.924C55.884,67.25 50.834,69.39 43.994,69.39C37.15,69.39 32.104,67.246 29.02,62.918C28.356,61.986 28,60.871 28,59.726L28,57.886C28,57.296 28.117,56.711 28.343,56.165C28.57,55.62 28.901,55.124 29.319,54.706C29.737,54.289 30.233,53.958 30.779,53.732C31.324,53.506 31.909,53.39 32.5,53.39L55.504,53.39ZM64.104,26.198C64.45,26.001 64.859,25.949 65.243,26.054C65.626,26.158 65.953,26.411 66.15,26.756C68.348,30.604 69.501,34.959 69.494,39.39C69.494,43.898 68.322,48.238 66.128,52.062C66.032,52.237 65.903,52.392 65.747,52.516C65.591,52.64 65.411,52.732 65.219,52.786C65.027,52.84 64.826,52.855 64.628,52.831C64.43,52.806 64.239,52.743 64.066,52.643C63.893,52.544 63.742,52.411 63.621,52.253C63.499,52.094 63.411,51.913 63.361,51.72C63.311,51.527 63.299,51.326 63.328,51.129C63.356,50.931 63.424,50.741 63.526,50.57C65.478,47.168 66.501,43.313 66.494,39.39C66.494,35.424 65.468,31.61 63.544,28.244C63.347,27.899 63.295,27.489 63.4,27.105C63.505,26.722 63.759,26.395 64.104,26.198ZM43.994,29.398C46.646,29.398 49.19,30.452 51.065,32.327C52.941,34.203 53.994,36.746 53.994,39.398C53.994,42.051 52.941,44.594 51.065,46.469C49.19,48.345 46.646,49.398 43.994,49.398C41.342,49.398 38.798,48.345 36.923,46.469C35.048,44.594 33.994,42.051 33.994,39.398C33.994,36.746 35.048,34.203 36.923,32.327C38.798,30.452 41.342,29.398 43.994,29.398ZM57.172,30.19C57.518,29.993 57.927,29.942 58.311,30.047C58.695,30.152 59.021,30.405 59.218,30.75C60.715,33.384 61.499,36.362 61.494,39.39C61.498,42.425 60.71,45.409 59.208,48.046C59.111,48.218 58.98,48.368 58.825,48.489C58.669,48.61 58.491,48.699 58.301,48.751C58.111,48.803 57.912,48.817 57.717,48.793C57.521,48.768 57.332,48.705 57.161,48.607C56.99,48.51 56.84,48.38 56.719,48.224C56.598,48.068 56.509,47.89 56.457,47.7C56.405,47.51 56.391,47.312 56.415,47.116C56.44,46.92 56.503,46.732 56.6,46.56C57.846,44.376 58.498,41.905 58.494,39.39C58.499,36.882 57.85,34.415 56.61,32.234C56.414,31.889 56.362,31.48 56.467,31.097C56.572,30.713 56.827,30.387 57.172,30.19Z" fill="#FFFFFF"/>
</svg>
