<svg width="166" height="156" viewBox="0 0 166 156" fill="none" xmlns="http://www.w3.org/2000/svg" xmlns:xlink="http://www.w3.org/1999/xlink">
<path d="M155.682,47.874C157.037,50.305 156.065,52.293 154.003,54.223C150.762,57.169 146.004,59.114 142.218,61.368L131.98,67.496C138.108,73.948 140.819,82.507 141.541,92.317C145.533,90.726 149.481,96.442 150.659,99.683C152.854,105.575 149.613,110.436 145.916,114.841C145.742,115.014 145.506,115.112 145.26,115.112C145.014,115.112 144.779,115.014 144.605,114.841C140.878,110.967 134.219,106.002 134.882,99.963C135.036,98.517 135.544,97.131 136.361,95.929C137.178,94.726 138.279,93.744 139.567,93.069C139.441,92.905 139.36,92.713 139.331,92.509C138.197,82.904 135.442,74.832 129.697,68.939C127.738,70.103 125.734,71.399 123.687,72.74C123.888,72.816 124.063,72.948 124.191,73.12C124.319,73.292 124.394,73.498 124.409,73.712C124.733,78.529 125.086,83.346 125.44,88.163C125.646,91.198 126.707,95.308 126.073,98.283C125.234,102.202 121.919,103.277 118.457,104.971C107.251,110.446 95.179,113.935 82.779,115.283C70.715,116.608 54.201,117.168 42.785,112.057C39.53,110.584 39.323,108.948 39.132,105.472C38.56,97.428 38.393,89.36 38.631,81.299L35.979,80.768C31.315,79.786 26.65,78.804 21.985,77.822C18.862,77.145 14.251,76.85 11.423,75.303C9.184,74.08 7.991,72.49 8.831,70.28C8.182,70.28 7.799,69.308 8.447,69.028C21.028,63.504 33.667,58.245 45.923,52.028C55.954,46.961 66.001,40.082 77.329,38.358C90.027,36.428 103.417,41.422 116.086,42.291C129.152,43.19 142.203,43.146 155.108,45.797C155.312,45.861 155.498,45.975 155.647,46.129C155.796,46.283 155.904,46.472 155.961,46.679C156.019,46.886 156.023,47.103 155.974,47.312C155.925,47.521 155.825,47.714 155.682,47.874ZM145.238,112.69C147.595,109.876 149.775,106.886 149.481,102.982C149.274,100.198 145.975,92.892 141.938,93.952C143.669,94.564 145.167,95.7 146.223,97.202C147.279,98.705 147.841,100.498 147.831,102.334C147.808,102.484 147.732,102.62 147.617,102.719C147.502,102.817 147.356,102.871 147.205,102.871C147.053,102.871 146.907,102.817 146.792,102.719C146.677,102.62 146.602,102.484 146.579,102.334C146.513,100.861 146.073,99.429 145.3,98.174C144.527,96.918 143.446,95.881 142.159,95.16C143.574,97.16 144.392,99.52 144.516,101.966C144.516,102.835 143.294,102.791 143.205,101.966C142.944,99.494 142.117,97.115 140.789,95.013C140.837,97.295 141.088,99.567 141.541,101.804C141.564,101.964 141.529,102.126 141.441,102.262C141.353,102.397 141.218,102.496 141.063,102.539C140.908,102.582 140.742,102.568 140.596,102.497C140.451,102.427 140.336,102.306 140.274,102.157C139.591,99.867 139.327,97.471 139.493,95.087C138.234,96.2 137.399,97.716 137.13,99.375C136.862,101.035 137.176,102.736 138.02,104.19C139.626,107.343 142.763,110.142 145.238,112.734L145.238,112.69ZM130.478,65.949C140.009,60.543 153.075,52.691 153.694,49.274C145.424,54.67 136.824,59.54 127.944,63.857C128.843,64.594 129.682,65.286 130.478,65.949ZM151.307,47.712C138.727,45.532 126,45.65 113.272,44.589C100.81,43.543 87.744,38.491 75.311,41.216C63.526,43.809 52.92,51.307 42.196,56.477C32.801,61.089 23.157,65.175 13.309,68.718C24.828,70.575 36.318,72.637 47.808,74.611L67.886,78.058C73.779,79.074 80.187,81.004 86.212,80.768C93.253,80.547 100.221,75.583 106.26,72.372L122.582,63.622L122.818,63.489C121.015,62.478 119.133,61.616 117.191,60.911C104.846,56.403 91.441,58.142 78.655,59.07C77.83,59.07 77.638,57.759 78.448,57.597C93.179,55.299 109.383,53.767 123.157,60.867C123.923,61.25 124.63,61.677 125.381,62.104C134.087,57.597 143.117,53.222 151.307,47.771L151.307,47.712ZM128.136,67.334C127.278,66.576 126.378,65.868 125.44,65.213C123.245,66.347 121.021,67.496 118.885,68.645C113.071,71.758 107.218,74.891 101.325,78.043C97.304,80.164 93.238,82.639 88.642,83.287C83.516,83.994 77.962,82.492 72.939,81.623L52.876,78.176C38.719,75.745 24.534,73.432 10.407,70.81C11.423,74.64 28.26,76.909 30.956,77.469C36.554,78.637 42.166,79.757 47.794,80.827C60.212,83.228 73.97,87.338 86.668,87.044C99.366,86.749 110.635,77.513 120.976,71.341C121.949,70.81 124.615,69.308 128.136,67.334ZM115.01,103.881C121.845,100.729 123.746,98.725 123.245,90.992C122.882,85.217 122.518,79.443 122.155,73.668C111.637,80.606 100.059,88.576 88.023,89.312C79.612,89.828 70.847,87.368 62.628,85.88C55.026,84.495 47.445,83.022 39.883,81.461C40.62,87.456 40.782,93.525 41.047,99.55C41.179,102.85 40.575,105.914 42.785,108.477C44.788,110.804 47.204,110.908 50.15,111.423C72.022,115.751 94.702,113.076 114.966,103.778L115.01,103.881Z" transform="rotate(78.031 82.211 77.056)" fill="#222221"/>
<path d="M119.336,135.601C119.631,139.505 117.45,142.495 115.093,145.309C112.619,142.672 109.511,139.917 107.846,136.809C107.002,135.355 106.688,133.654 106.956,131.994C107.225,130.335 108.06,128.819 109.319,127.705C109.153,130.09 109.417,132.485 110.1,134.776C110.162,134.925 110.277,135.046 110.422,135.116C110.568,135.186 110.733,135.201 110.889,135.158C111.044,135.114 111.179,135.016 111.267,134.88C111.355,134.745 111.39,134.582 111.367,134.423C110.914,132.186 110.663,129.913 110.615,127.632C111.943,129.733 112.77,132.112 113.031,134.585C113.12,135.41 114.401,135.454 114.342,134.585C114.218,132.139 113.4,129.778 111.985,127.779C113.272,128.5 114.353,129.537 115.126,130.792C115.899,132.048 116.339,133.48 116.405,134.953C116.428,135.103 116.503,135.239 116.618,135.337C116.733,135.436 116.879,135.49 117.031,135.49C117.182,135.49 117.328,135.436 117.443,135.337C117.558,135.239 117.634,135.103 117.657,134.953C117.667,133.117 117.105,131.323 116.049,129.821C114.993,128.319 113.495,127.183 111.764,126.571C115.83,125.511 119.13,132.817 119.336,135.601Z" transform="rotate(78.031 113.113 135.888)" fill="#6F6F6F"/>
<path d="M152.826,90.551C152.208,93.954 139.141,101.82 129.61,107.227C128.815,106.505 127.975,105.753 127.077,105.135C135.957,100.818 144.557,95.947 152.826,90.551Z" transform="rotate(78.031 139.951 98.889)" fill="#7E5279"/>
<path d="M142.521,89.212C143.183,88.682 144.126,89.551 143.478,90.155C141.191,92.266 138.573,93.988 135.73,95.252C135.052,95.546 134.463,94.633 135.126,94.235C137.712,92.748 140.184,91.068 142.521,89.212Z" transform="rotate(78.031 139.266 92.179)" fill="#222221"/>
<path d="M142.757,87.881C143.478,87.409 144.127,88.558 143.42,89.015C141.947,89.987 140.473,90.959 138.897,91.799C138.411,92.064 137.792,91.357 138.278,90.989C139.707,89.869 141.239,88.853 142.757,87.881Z" transform="rotate(78.031 140.913 89.813)" fill="#222221"/>
<path d="M123.572,48.366C136.3,49.427 149.027,49.309 161.607,51.489C153.417,56.94 144.387,61.315 135.681,65.911C134.974,65.483 134.208,65.056 133.457,64.673C119.684,57.573 103.539,59.105 88.749,61.403C87.939,61.536 88.13,62.876 88.955,62.876C101.741,61.948 115.146,60.21 127.491,64.717C129.433,65.423 131.315,66.285 133.118,67.295L132.882,67.428L116.561,76.149C110.521,79.36 103.553,84.324 96.512,84.545C90.487,84.737 84.094,82.851 78.187,81.835L58.109,78.388C46.619,76.414 35.129,74.351 23.609,72.495C33.457,68.952 43.101,64.866 52.496,60.254C63.22,55.084 73.871,47.586 85.611,44.993C98.044,42.268 111.11,47.32 123.572,48.366ZM150.574,54.583C151.222,53.979 150.279,53.11 149.617,53.64C147.29,55.495 144.828,57.174 142.251,58.663C141.588,59.061 142.251,59.974 142.855,59.68C145.689,58.412 148.296,56.691 150.574,54.583ZM148.659,52.933C149.366,52.476 148.659,51.327 147.996,51.799C146.523,52.771 144.947,53.787 143.577,54.907C143.091,55.275 143.71,55.982 144.196,55.717C145.683,54.936 147.201,53.905 148.659,52.933ZM48.489,67.472C49.02,67.045 48.313,66.117 47.768,66.529C46.029,67.826 44.247,68.989 42.435,70.183C42.096,70.404 42.303,71.022 42.715,70.86C44.821,70.036 46.789,68.893 48.548,67.472L48.489,67.472ZM45.072,66.853C45.646,66.544 45.263,65.513 44.615,65.778C42.061,66.853 39.739,68.414 37.78,70.374C37.515,70.639 37.869,71.125 38.193,70.904C39.312,70.168 40.373,69.431 41.522,68.71C42.671,67.988 43.967,67.516 45.131,66.853L45.072,66.853Z" transform="rotate(78.031 92.608 64.377)" fill="#7E5279"/>
<path d="M128.904,57.261C129.842,57.916 130.742,58.624 131.6,59.382C128.079,61.356 125.339,62.859 124.411,63.404C114.1,69.576 102.624,78.827 90.103,79.107C77.582,79.387 63.587,75.291 51.228,72.89C45.601,71.81 39.989,70.69 34.391,69.532C31.695,68.972 14.858,66.703 13.841,62.873C27.968,65.481 42.154,67.793 56.31,70.239L76.374,73.686C81.397,74.555 86.951,76.057 92.077,75.35C96.673,74.702 100.739,72.227 104.76,70.106C110.653,66.993 116.515,63.86 122.349,60.708C124.514,59.544 126.709,58.395 128.904,57.261Z" transform="rotate(78.031 72.721 68.191)" fill="#7E5279"/>
<path d="M112.925,86.919C113.425,94.653 111.525,96.656 104.69,99.809C84.425,109.107 61.746,111.782 39.874,107.454C36.928,106.88 34.483,106.777 32.509,104.508C30.299,101.945 30.903,98.881 30.771,95.581C30.506,89.556 30.344,83.487 29.607,77.492C37.179,79.014 44.76,80.487 52.351,81.911C60.571,83.384 69.336,85.859 77.747,85.343C89.753,84.607 101.317,76.637 111.879,69.699C112.222,75.405 112.571,81.145 112.925,86.919ZM46.886,103.565C46.966,103.583 47.048,103.583 47.127,103.567C47.207,103.552 47.282,103.519 47.349,103.473C47.416,103.427 47.472,103.367 47.514,103.298C47.557,103.229 47.585,103.151 47.596,103.071C47.607,102.99 47.602,102.909 47.58,102.83C47.558,102.752 47.52,102.679 47.468,102.617C47.417,102.554 47.353,102.502 47.281,102.465C47.208,102.428 47.129,102.406 47.048,102.401C44.47,102.107 41.893,101.753 39.315,101.503C39.207,101.502 39.102,101.54 39.021,101.61C38.939,101.681 38.886,101.779 38.872,101.885C38.857,101.992 38.882,102.101 38.942,102.19C39.002,102.28 39.093,102.344 39.197,102.372C41.745,102.829 44.323,103.123 46.886,103.565ZM46.68,106.084C46.832,106.084 46.979,106.024 47.086,105.916C47.194,105.808 47.255,105.662 47.255,105.51C47.255,105.357 47.194,105.211 47.086,105.103C46.979,104.996 46.832,104.935 46.68,104.935C42.981,105.083 39.294,104.435 35.868,103.035C35.352,102.799 34.895,103.536 35.426,103.801C38.881,105.623 42.789,106.41 46.68,106.069L46.68,106.084Z" transform="rotate(78.031 71.304 89.585)" fill="#7E5279"/>
<path d="M45.152,81.842C45.234,81.847 45.313,81.869 45.385,81.906C45.457,81.943 45.521,81.994 45.572,82.057C45.624,82.12 45.662,82.193 45.684,82.271C45.706,82.349 45.711,82.431 45.7,82.511C45.689,82.592 45.661,82.669 45.619,82.738C45.576,82.807 45.52,82.867 45.453,82.914C45.387,82.96 45.311,82.992 45.231,83.008C45.152,83.024 45.07,83.023 44.99,83.006C42.427,82.608 39.849,82.269 37.301,81.812C37.197,81.785 37.106,81.72 37.046,81.631C36.987,81.541 36.962,81.433 36.976,81.326C36.991,81.219 37.043,81.121 37.125,81.051C37.207,80.98 37.311,80.942 37.419,80.943C39.997,81.194 42.575,81.547 45.152,81.842Z" transform="rotate(78.031 41.339 81.981)" fill="#222221"/>
<path d="M43.951,82.66C44.104,82.66 44.25,82.72 44.357,82.828C44.465,82.936 44.526,83.082 44.526,83.234C44.526,83.387 44.465,83.533 44.357,83.64C44.25,83.748 44.104,83.809 43.951,83.809C40.058,84.145 36.151,83.352 32.697,81.525C32.166,81.26 32.697,80.524 33.139,80.759C36.565,82.16 40.253,82.808 43.951,82.66Z" transform="rotate(78.031 38.5 82.299)" fill="#222221"/>
<path d="M55.632,35.938C56.177,35.525 56.884,36.453 56.354,36.88C54.612,38.296 52.665,39.439 50.58,40.268C50.167,40.43 49.961,39.812 50.3,39.591C52.112,38.398 53.894,37.234 55.632,35.938Z" transform="rotate(78.031 53.336 38.065)" fill="#222221"/>
<path d="M53.555,32.768C54.203,32.503 54.586,33.534 54.012,33.843C52.848,34.506 51.626,35.022 50.462,35.699C49.298,36.377 48.252,37.172 47.133,37.894C46.809,38.115 46.455,37.629 46.72,37.364C48.68,35.404 51.001,33.843 53.555,32.768Z" transform="rotate(78.031 50.46 35.338)" fill="#222221"/>
</svg>
