<svg width="124" height="124" viewBox="0 0 124 124" fill="none" xmlns="http://www.w3.org/2000/svg" xmlns:xlink="http://www.w3.org/1999/xlink">
<path d="M97.083,0.179C97.226,0.049 97.403,-0.037 97.593,-0.067C97.783,-0.097 97.978,-0.071 98.154,0.008C98.33,0.087 98.478,0.216 98.581,0.379C98.684,0.542 98.738,0.731 98.734,0.924C98.637,10.042 97.089,19.085 94.148,27.716C94.113,27.835 94.053,27.944 93.972,28.037C93.891,28.13 93.791,28.204 93.678,28.255C79.508,51.562 67.012,75.855 53.347,99.518C56.075,101.031 55.64,105.067 53.347,106.786C52.773,107.225 52.124,107.555 51.432,107.761C51.572,107.831 51.685,107.945 51.754,108.086C51.822,108.227 51.842,108.387 51.81,108.54C51.203,111.647 48.956,113.011 46.158,113.39C46.284,113.44 46.394,113.521 46.48,113.625C46.566,113.729 46.624,113.853 46.649,113.985C46.675,114.118 46.666,114.255 46.624,114.383C46.582,114.511 46.509,114.627 46.411,114.72C43.785,117.139 43.739,120.681 40.082,122.137C37.147,123.283 33.983,122.63 31.174,121.438C28.767,120.406 24.582,118.881 24.124,115.82C23.711,113.011 26.268,109.045 27.563,106.649C27.582,106.606 27.61,106.568 27.646,106.538C27.682,106.508 27.724,106.487 27.77,106.477C26.245,104.023 26.05,101.214 29.225,99.392C29.043,98.928 28.953,98.434 28.962,97.936C29.021,96.399 29.532,94.913 30.431,93.665C31.331,92.417 32.578,91.462 34.018,90.919C34.128,90.87 34.25,90.855 34.369,90.874C34.488,90.893 34.599,90.947 34.688,91.029C34.777,91.111 34.84,91.216 34.87,91.333C34.899,91.45 34.894,91.574 34.855,91.688C34.794,91.806 34.698,91.902 34.579,91.963C31.977,93.338 29.799,96.033 31.14,98.945C32.287,101.444 35.726,102.453 38.019,103.771C38.649,104.126 38.019,104.917 37.457,104.688C35.072,103.542 30.945,102.487 29.432,99.988C24.605,105.067 32.309,109.377 36.574,110.604C40.839,111.831 48.577,113.951 50.332,108.162C50.351,108.102 50.378,108.044 50.412,107.99C47.144,108.586 43.43,106.843 40.426,105.961C40.025,105.846 40.117,105.17 40.552,105.227C43.006,105.582 45.333,106.626 47.809,106.786C48.632,106.906 49.47,106.853 50.271,106.632C51.072,106.411 51.819,106.027 52.464,105.502C52.814,105.217 53.096,104.858 53.29,104.451C53.483,104.043 53.584,103.597 53.584,103.146C53.584,102.695 53.483,102.249 53.29,101.842C53.096,101.434 52.814,101.075 52.464,100.79C52.258,101.134 52.074,101.455 51.879,101.799C51.818,101.903 51.724,101.984 51.612,102.03C51.5,102.076 51.377,102.083 51.26,102.051C51.132,102.148 50.973,102.193 50.813,102.178C44.279,101.746 38.144,98.883 33.616,94.152C33.525,94.051 33.466,93.925 33.447,93.79C33.428,93.655 33.449,93.518 33.508,93.395C33.567,93.272 33.661,93.17 33.778,93.101C33.895,93.031 34.031,92.998 34.167,93.006C34.385,92.582 34.602,92.158 34.843,91.722C47.454,67.452 62.083,44.065 75.84,20.436C75.947,20.245 76.123,20.101 76.333,20.035C76.417,19.952 76.524,19.895 76.639,19.871C76.755,19.846 76.876,19.856 76.986,19.898C79.279,16.252 82.936,13.409 86.02,10.439C89.849,7.012 93.461,3.595 97.083,0.179ZM96.407,8.422C96.556,6.702 96.671,4.982 96.728,3.205C95.123,4.753 93.483,6.289 91.878,7.791C92.469,8.231 93.16,8.516 93.888,8.622C94.617,8.729 95.36,8.652 96.051,8.399C96.17,8.378 96.292,8.386 96.407,8.422ZM96.246,9.958C95.335,10.253 94.361,10.29 93.43,10.065C92.5,9.84 91.649,9.363 90.973,8.685L87.533,11.907C84.438,14.819 81.411,18.281 77.686,20.402C77.991,20.737 78.363,21.003 78.777,21.185C79.192,21.367 79.64,21.459 80.093,21.457C81.026,21.418 81.917,21.057 82.615,20.436C82.695,20.384 82.786,20.352 82.881,20.342C82.976,20.332 83.071,20.345 83.16,20.38C83.249,20.415 83.328,20.47 83.391,20.542C83.453,20.614 83.498,20.699 83.521,20.792C83.581,20.823 83.633,20.866 83.674,20.92C83.715,20.974 83.743,21.036 83.756,21.102C83.769,21.169 83.768,21.237 83.751,21.302C83.734,21.368 83.702,21.428 83.658,21.48C83.504,21.712 83.403,21.976 83.364,22.252C83.325,22.528 83.348,22.809 83.431,23.075C83.515,23.341 83.657,23.585 83.847,23.789C84.037,23.993 84.27,24.152 84.53,24.254C86.135,24.931 87.488,23.532 88.565,22.58C88.65,22.497 88.756,22.44 88.872,22.416C88.988,22.391 89.108,22.401 89.219,22.443C89.471,22.019 90.216,22.099 90.159,22.672C90.119,23.007 90.157,23.346 90.268,23.664C90.38,23.982 90.562,24.271 90.802,24.507C91.042,24.744 91.333,24.923 91.653,25.03C91.973,25.137 92.312,25.17 92.647,25.125C92.768,25.102 92.892,25.102 93.013,25.125C94.565,20.182 95.648,15.104 96.246,9.958ZM92.085,27.155C92.192,26.97 92.363,26.831 92.566,26.765C91.797,26.775 91.045,26.534 90.425,26.079C89.804,25.624 89.349,24.98 89.127,24.243C87.774,25.71 85.332,26.536 83.601,25.389C83.146,25.073 82.773,24.652 82.516,24.16C82.258,23.669 82.123,23.123 82.122,22.569C81.337,22.861 80.488,22.94 79.662,22.797C78.836,22.654 78.063,22.294 77.422,21.755C63.527,45.704 50.251,70.284 35.176,93.51C37.493,95.361 40.021,96.932 42.708,98.188C45.474,99.253 48.339,100.044 51.26,100.55C62.839,75.179 77.628,50.92 92.085,27.12L92.085,27.155ZM45.241,113.562L45.333,113.562C41.045,113.871 35.714,112.174 32.906,110.994C31.048,110.138 29.439,108.824 28.228,107.176C27.529,110.065 25.866,112.908 26.772,115.705C27.678,118.503 30.762,119.752 33.593,120.612C37.56,121.839 40.678,120.715 42.765,117.173C43.396,115.836 44.231,114.606 45.241,113.527L45.241,113.562Z" transform="rotate(180 61.407 61.327)" fill="#222221"/>
<path d="M119.21,91.48C119.153,93.234 119.038,94.92 118.889,96.697C118.773,96.668 118.651,96.668 118.534,96.697C117.843,96.95 117.099,97.026 116.371,96.92C115.642,96.814 114.952,96.529 114.361,96.089C115.966,94.564 117.605,93.028 119.21,91.48Z" transform="rotate(180 116.786 94.224)" fill="#222221"/>
<path d="M109.797,78.686C110.474,79.363 111.324,79.841 112.255,80.065C113.186,80.29 114.16,80.253 115.071,79.958C114.491,85.103 113.428,90.181 111.895,95.126C111.774,95.103 111.65,95.103 111.529,95.126C111.194,95.17 110.855,95.137 110.535,95.03C110.215,94.923 109.924,94.744 109.684,94.508C109.444,94.271 109.262,93.983 109.15,93.665C109.039,93.346 109.001,93.007 109.041,92.672C109.098,92.099 108.353,92.019 108.101,92.443C107.99,92.401 107.87,92.392 107.754,92.416C107.638,92.441 107.532,92.498 107.447,92.581C106.37,93.532 105.017,94.931 103.412,94.254C103.152,94.152 102.919,93.993 102.729,93.789C102.539,93.585 102.397,93.341 102.313,93.075C102.23,92.809 102.207,92.528 102.246,92.252C102.285,91.976 102.386,91.712 102.54,91.48C102.584,91.429 102.616,91.368 102.633,91.303C102.65,91.237 102.651,91.169 102.638,91.103C102.625,91.037 102.597,90.974 102.556,90.921C102.515,90.867 102.463,90.823 102.403,90.792C102.38,90.7 102.335,90.614 102.273,90.542C102.21,90.471 102.131,90.415 102.042,90.38C101.953,90.346 101.857,90.332 101.763,90.342C101.668,90.352 101.577,90.385 101.497,90.437C100.799,91.058 99.908,91.418 98.975,91.457C98.522,91.46 98.074,91.367 97.659,91.185C97.245,91.004 96.873,90.737 96.568,90.402C100.293,88.281 103.32,84.819 106.415,81.907L109.797,78.686Z" transform="rotate(180 105.819 86.915)" fill="#E8CFBA"/>
<path d="M90.26,29.364C90.057,29.43 89.886,29.569 89.779,29.754C75.322,53.554 60.533,77.812 48.965,103.206C46.044,102.701 43.18,101.91 40.413,100.844C37.727,99.588 35.198,98.018 32.881,96.167C47.945,72.94 61.221,48.36 75.116,24.388C75.757,24.92 76.527,25.273 77.348,25.412C78.17,25.551 79.013,25.47 79.793,25.179C79.794,25.734 79.929,26.28 80.187,26.771C80.444,27.262 80.817,27.683 81.272,28C83.003,29.146 85.445,28.286 86.798,26.853C87.023,27.592 87.483,28.237 88.107,28.69C88.732,29.143 89.488,29.38 90.26,29.364ZM80.114,41.298C80.55,40.542 79.426,39.819 78.968,40.404C79.197,40.049 79.415,39.693 79.621,39.326C79.723,39.164 79.756,38.967 79.713,38.78C79.67,38.593 79.555,38.431 79.392,38.329C79.229,38.227 79.033,38.194 78.846,38.237C78.659,38.28 78.496,38.396 78.395,38.558C77.386,40.14 76.56,41.894 75.689,43.568C75.627,43.67 75.607,43.792 75.635,43.909C75.663,44.025 75.736,44.125 75.838,44.187C75.94,44.25 76.062,44.269 76.178,44.241C76.295,44.213 76.395,44.14 76.457,44.038C77.26,42.892 78.119,41.745 78.876,40.599C77.73,43.006 76.492,45.345 75.494,47.798C75.322,48.211 75.941,48.475 76.182,48.119C77.615,45.895 78.796,43.557 80.114,41.298ZM44.334,86.158C44.666,85.413 43.52,85.012 43.084,85.585C41.88,87.498 40.837,89.507 39.966,91.592C39.737,92.108 40.39,92.555 40.711,92.062C42.085,90.201 43.297,88.226 44.334,86.158ZM40.734,86.697C40.814,86.078 39.817,85.746 39.588,86.33C39.014,87.58 38.716,88.933 38.086,90.182C37.438,91.377 36.711,92.526 35.908,93.622C35.655,93.988 36.194,94.413 36.515,94.115C38.43,92.349 40.436,89.403 40.734,86.697Z" transform="rotate(180 61.571 63.797)" fill="#65B1D2"/>
<path d="M82.244,76.269C82.691,75.684 83.814,76.406 83.39,77.163C82.072,79.456 80.891,81.749 79.469,83.938C79.229,84.294 78.609,84.03 78.781,83.617C79.779,81.164 81.074,78.825 82.163,76.418L82.244,76.269Z" transform="rotate(180 81.118 80.08)" fill="#222221"/>
<path d="M84.872,77.26C84.974,77.098 85.136,76.982 85.323,76.939C85.51,76.896 85.707,76.929 85.869,77.031C86.032,77.133 86.147,77.295 86.19,77.482C86.233,77.669 86.2,77.866 86.099,78.028C85.892,78.395 85.674,78.751 85.445,79.106L85.353,79.255C84.597,80.402 83.737,81.548 82.934,82.694C82.872,82.796 82.772,82.869 82.656,82.897C82.54,82.925 82.417,82.906 82.315,82.844C82.213,82.781 82.14,82.681 82.113,82.565C82.085,82.449 82.104,82.326 82.166,82.224C83.038,80.597 83.863,78.842 84.872,77.26Z" transform="rotate(180 84.154 79.915)" fill="#222221"/>
<path d="M32.625,39.78C32.975,40.065 33.257,40.425 33.451,40.832C33.644,41.24 33.745,41.685 33.745,42.136C33.745,42.588 33.644,43.033 33.451,43.441C33.257,43.848 32.975,44.207 32.625,44.492C31.98,45.017 31.234,45.401 30.432,45.622C29.631,45.843 28.793,45.896 27.97,45.776C25.494,45.616 23.167,44.573 20.713,44.217C20.278,44.16 20.186,44.836 20.587,44.951C23.591,45.868 27.305,47.576 30.573,46.98C30.539,47.034 30.512,47.092 30.493,47.152C28.693,52.941 20.874,50.809 16.735,49.594C12.597,48.379 4.767,44.057 9.593,38.978C11.083,41.477 15.211,42.555 17.618,43.678C18.226,43.965 18.764,43.117 18.18,42.761C15.83,41.443 12.448,40.468 11.301,37.935C9.914,35.023 12.092,32.329 14.74,30.953C14.859,30.892 14.955,30.796 15.016,30.678L15.211,30.769C14.97,31.205 14.752,31.629 14.534,32.053C14.398,32.046 14.263,32.079 14.146,32.148C14.028,32.217 13.934,32.32 13.875,32.443C13.817,32.565 13.795,32.703 13.815,32.838C13.834,32.972 13.893,33.099 13.984,33.2C18.512,37.93 24.647,40.793 31.18,41.225C31.34,41.24 31.499,41.195 31.628,41.099C31.744,41.131 31.868,41.123 31.98,41.077C32.092,41.032 32.185,40.951 32.247,40.847C32.235,40.445 32.419,40.124 32.625,39.78Z" transform="rotate(180 20.908 40.839)" fill="#D8D8D8"/>
<path d="M37.554,41.225C37.989,40.618 39.136,41.053 38.803,41.798C37.75,43.856 36.523,45.82 35.135,47.668C34.814,48.161 34.16,47.668 34.389,47.198C35.277,45.123 36.336,43.125 37.554,41.225Z" transform="rotate(180 36.602 44.406)" fill="#222221"/>
<path d="M36.565,36.649C36.829,36.064 37.826,36.397 37.711,37.016C37.413,39.722 35.418,42.668 33.458,44.491C33.137,44.789 32.598,44.365 32.85,43.998C33.653,42.902 34.381,41.753 35.029,40.558C35.694,39.286 35.992,37.933 36.565,36.649Z" transform="rotate(180 35.253 40.468)" fill="#222221"/>
<path d="M18.111,35.326L18.019,35.326C17.029,36.394 16.209,37.608 15.588,38.926C13.456,42.434 10.338,43.511 6.417,42.365C3.585,41.505 0.49,40.301 -0.404,37.458C-1.299,34.615 0.352,31.818 1.052,28.929C2.262,30.577 3.872,31.89 5.729,32.746C8.492,33.95 13.823,35.647 18.111,35.326ZM14.052,38.1C14.557,37.779 14.304,36.839 13.662,37.068C11.965,37.779 10.102,37.998 8.286,37.699C8.18,37.677 8.07,37.695 7.977,37.749C7.884,37.803 7.815,37.89 7.782,37.993C7.749,38.095 7.756,38.206 7.8,38.305C7.844,38.403 7.923,38.481 8.022,38.524C8.999,38.888 10.042,39.039 11.082,38.968C12.121,38.897 13.134,38.605 14.052,38.112L14.052,38.1ZM12.057,40.599C12.162,40.522 12.235,40.41 12.264,40.284C12.292,40.157 12.274,40.025 12.213,39.91C12.152,39.796 12.051,39.708 11.93,39.662C11.809,39.616 11.675,39.615 11.553,39.659C10.707,40.051 9.789,40.261 8.857,40.277C7.925,40.293 7,40.114 6.142,39.751C5.798,39.613 5.58,40.152 5.878,40.347C6.794,40.931 7.847,41.263 8.932,41.309C10.017,41.356 11.095,41.115 12.057,40.611L12.057,40.599Z" transform="rotate(180 8.724 35.867)" fill="#CFA198"/>
<path d="M9.194,37.211C9.836,36.982 10.088,37.922 9.584,38.243C8.666,38.738 7.654,39.032 6.614,39.105C5.575,39.178 4.531,39.029 3.553,38.667C3.455,38.624 3.376,38.546 3.332,38.448C3.287,38.349 3.281,38.238 3.314,38.136C3.346,38.033 3.416,37.946 3.509,37.892C3.602,37.838 3.712,37.82 3.817,37.842C5.633,38.141 7.496,37.922 9.194,37.211Z" transform="rotate(180 6.572 38.149)" fill="#222221"/>
<path d="M6.657,35.342C6.778,35.297 6.912,35.298 7.034,35.344C7.155,35.39 7.255,35.479 7.317,35.593C7.378,35.707 7.396,35.84 7.367,35.966C7.339,36.093 7.266,36.205 7.161,36.282C6.2,36.787 5.123,37.03 4.038,36.986C2.953,36.942 1.898,36.612 0.982,36.03C0.684,35.835 0.902,35.296 1.245,35.433C2.104,35.796 3.029,35.976 3.961,35.96C4.893,35.944 5.811,35.733 6.657,35.342Z" transform="rotate(180 4.111 36.15)" fill="#222221"/>
</svg>
