<svg width="96" height="96" viewBox="0 0 96 96" fill="none" xmlns="http://www.w3.org/2000/svg" xmlns:xlink="http://www.w3.org/1999/xlink">
<circle cx="-968" cy="4530" r="0" fill="#AA1070" stroke="#F8EBFD" stroke-width="3" stroke-miterlimit="3.999327"/>
<circle cx="-968" cy="4530" r="0" fill="#CD3F97"/>
<path d="M48,28.001C36.96,28.001 28,36.961 28,48.001C28,59.041 36.96,68.001 48,68.001C59.04,68.001 68,59.041 68,48.001C68,36.961 59.04,28.001 48,28.001ZM48,58.001C46.9,58.001 46,57.101 46,56.001L46,48.001C46,46.901 46.9,46.001 48,46.001C49.1,46.001 50,46.901 50,48.001L50,56.001C50,57.101 49.1,58.001 48,58.001ZM50,42.001L46,42.001L46,38.001L50,38.001L50,42.001Z" fill="#FFFFFF"/>
<path d="M27.894,16.443C32.948,9.492 37.898,7.755 39.74,7.755C27.894,17.232 28.683,25.13 27.894,25.92C25.046,28.768 21.575,25.13 27.894,16.443Z" transform="rotate(37.422 32.041 17.314)" fill="#FFFFFF"/>
<path d="M48.094,9.203C48.094,9.756 47.198,10.203 46.094,10.203C44.989,10.203 44.094,9.756 44.094,9.203C44.094,8.651 44.989,8.203 46.094,8.203C47.198,8.203 48.094,8.651 48.094,9.203Z" transform="rotate(-12.004 46.094 9.203)" fill="#FFFFFF"/>
</svg>
