<svg width="124" height="110" viewBox="0 0 124 110" fill="none" xmlns="http://www.w3.org/2000/svg" xmlns:xlink="http://www.w3.org/1999/xlink">
<path d="M106.289,3.42C102.477,5.348 98.91,7.726 95.664,10.504L94.355,11.597C91.267,11.38 88.173,11.893 85.321,13.094C82.469,14.295 79.94,16.151 77.938,18.512C81.819,6.084 93.338,-0.785 106.289,3.42ZM97.311,5.314C98.035,5.314 98.158,4.143 97.435,4.051C94.898,3.737 92.34,4.44 90.32,6.007C90.012,6.253 90.197,6.931 90.643,6.731C92.73,5.76 95.01,5.275 97.311,5.314Z" transform="rotate(360 92.114 10.347)" fill="#8CC5DF"/>
<path d="M121.027,21.376C118.098,24.482 115.662,28.019 113.805,31.863C111.305,31.541 108.764,31.856 106.419,32.779C104.073,33.703 102,35.205 100.391,37.146C100.719,35.347 101.316,33.607 102.162,31.986C103.998,28.629 106.74,25.854 110.075,23.979C113.41,22.103 117.205,21.201 121.027,21.376ZM115.668,25.472C116.561,25.472 116.484,24.179 115.668,24.117C114.493,24.035 113.314,24.208 112.211,24.622C111.108,25.037 110.108,25.684 109.277,26.519C109.21,26.603 109.174,26.707 109.175,26.815C109.176,26.922 109.215,27.025 109.284,27.107C109.353,27.189 109.449,27.244 109.554,27.264C109.66,27.283 109.769,27.265 109.862,27.212C111.561,26.024 113.596,25.414 115.668,25.472Z" transform="rotate(360 110.709 29.25)" fill="#8CC5DF"/>
<path d="M106.757,13.399C104.447,15.401 102.137,17.542 99.858,19.852C97.273,19.456 94.639,19.529 92.081,20.067C92.074,20.001 92.074,19.933 92.081,19.867C92.151,19.916 92.234,19.942 92.319,19.942C92.405,19.942 92.488,19.916 92.558,19.867C97.209,16.125 101.213,14.015 106.757,13.399Z" transform="rotate(360 99.416 16.733)" fill="#B2D7E8"/>
<path d="M107.522,63.48C107.522,63.618 107.645,63.742 107.706,63.896C111.38,71.67 115.697,79.124 120.612,86.18L121.274,87.104C105.104,83.962 94.509,69.794 88.164,55.441C85.833,50.641 84.617,45.377 84.606,40.041C84.606,40.041 84.699,40.041 84.73,39.918C86.502,37.316 89.093,35.381 92.091,34.42C90.551,37.777 92.984,44.599 93.939,47.217C96.389,53.857 100.88,59.551 106.767,63.48C106.88,63.551 107.011,63.589 107.144,63.589C107.278,63.589 107.409,63.551 107.522,63.48Z" transform="rotate(360 102.94 60.762)" fill="#B2D7E8"/>
<path d="M49.836,42.336C50.397,42.43 50.926,42.663 51.375,43.012C51.824,43.361 52.179,43.817 52.408,44.338C52.66,44.895 52.741,45.515 52.639,46.118C52.538,46.722 52.259,47.281 51.838,47.726C51.37,48.168 50.814,48.507 50.207,48.722C49.6,48.937 48.954,49.022 48.312,48.973C47.583,48.915 46.875,48.702 46.235,48.349C45.595,47.996 45.038,47.51 44.6,46.925L45.262,46.34C46.695,45.046 48.204,43.691 49.713,42.274L49.836,42.336Z" transform="rotate(360 48.641 45.63)" fill="#B2D7E8"/>
<path d="M37.053,67.114C37.574,67.602 38.015,68.168 38.361,68.792C38.454,69.054 38.546,68.977 38.361,69.269C38.086,69.496 37.78,69.683 37.453,69.824L36.036,70.67C35.328,69.639 34.666,68.53 33.912,67.499C34.682,67.068 35.451,66.621 36.314,66.098C36.544,66.436 36.806,66.76 37.053,67.114Z" transform="rotate(360 36.19 68.384)" fill="#B2D7E8"/>
<path d="M21.67,42.351C32.573,48.973 42.368,57.551 36.392,65.451C30.173,73.369 22.777,80.287 14.463,85.964L12.923,83.808C13.066,83.688 13.165,83.523 13.203,83.339C13.242,83.156 13.217,82.965 13.133,82.798C13.049,82.63 12.912,82.496 12.742,82.417C12.572,82.337 12.381,82.317 12.199,82.36C9.67,82.982 7.028,82.982 4.499,82.36C4.365,82.335 4.227,82.363 4.114,82.437L4.637,79.789C6.736,80.257 8.906,80.32 11.028,79.973C11.737,79.866 11.537,78.68 10.813,78.726C8.52,78.972 6.207,78.972 3.914,78.726C3.828,78.703 3.737,78.703 3.652,78.726L4.945,76.046C10.443,78.079 16.634,76.293 22.686,71.719C26.259,69.024 30.386,65.051 30.633,60.277C30.879,55.503 26.536,51.314 23.271,48.218C23.151,48.098 22.994,48.022 22.825,48.003C23.017,47.139 22.947,46.238 22.623,45.415C22.299,44.592 21.737,43.884 21.008,43.383L21.67,42.351Z" transform="rotate(360 20.929 64.158)" fill="#65B1D2"/>
<path d="M37.506,49.62C40.925,53.269 44.497,57.32 43.05,62.941C42.095,66.621 36.782,70.317 33.81,72.027C29.837,74.321 25.386,76.215 20.843,74.66C18.13,73.46 15.669,71.756 13.59,69.64C14.924,69.266 16.215,68.75 17.44,68.1C18.063,69.528 18.854,70.877 19.796,72.119C19.9,72.284 20.066,72.401 20.256,72.444C20.447,72.487 20.647,72.454 20.812,72.35C21.798,71.78 22.83,71.257 23.769,70.641C24.323,70.256 24.832,69.809 24.77,69.101C24.708,68.392 23.969,67.561 23.507,67.022C23.045,66.483 22.629,65.897 22.198,65.343C28.574,61.093 35.488,54.794 37.506,49.62Z" transform="rotate(360 28.485 62.424)" fill="#B2D7E8"/>
<path d="M31.859,52.438C33.969,50.636 48.799,37.038 48.63,47.956C48.63,52.469 41.731,57.35 38.404,60.045C35.078,62.74 29.965,67.391 25.499,67.746C25.339,67.755 25.184,67.804 25.047,67.887C24.91,67.97 24.796,68.086 24.714,68.223C24.726,68.112 24.705,67.999 24.653,67.9C24.601,67.801 24.52,67.721 24.421,67.669C15.72,63.048 28.687,55.133 31.859,52.438Z" transform="rotate(360 35.048 55.988)" fill="#65B1D2"/>
<path d="M72.533,42.351L71.917,43.383C70.737,42.619 69.418,42.096 68.036,41.843C64.463,41.073 62.107,43.491 59.458,45.647C54.838,49.42 50.218,53.347 45.814,57.397C40.732,62.017 38.961,66.206 46.645,68.747C46.741,68.785 46.847,68.789 46.945,68.758C47.043,68.727 47.128,68.663 47.184,68.577C47.138,68.826 47.189,69.083 47.326,69.295C47.464,69.507 47.678,69.658 47.923,69.717C49.86,72.607 52.625,74.845 55.855,76.139L54.561,78.88C54.496,78.921 54.444,78.981 54.411,79.052C54.379,79.122 54.368,79.2 54.38,79.277C54.391,79.353 54.424,79.425 54.476,79.483C54.527,79.541 54.594,79.583 54.669,79.604L55.547,79.819L55.085,82.391C54.998,82.439 54.926,82.509 54.875,82.595C54.825,82.68 54.799,82.777 54.799,82.876C54.799,82.975 54.825,83.073 54.875,83.158C54.926,83.243 54.998,83.313 55.085,83.361C57.798,84.445 60.787,84.634 63.616,83.9C63.703,83.877 63.786,83.841 63.863,83.793L65.403,85.949C61.198,88.952 56.825,91.693 52.436,94.295C52.359,93.765 52.215,93.248 52.004,92.755C49.494,86.826 41.84,80.343 37.452,75.815C32.154,70.28 26.377,65.224 20.188,60.708C27.023,57.219 33.375,52.855 39.084,47.726C40.624,51.529 46.661,51.622 49.109,48.65C49.705,47.905 50.081,47.008 50.192,46.06C50.304,45.113 50.147,44.153 49.741,43.29C49.199,42.029 48.18,41.032 46.907,40.518C49.422,38.093 51.65,35.385 53.544,32.449C57.41,34.328 65.218,37.885 72.533,42.351Z" transform="rotate(360 46.36 63.372)" fill="#65B1D2"/>
<path d="M97.897,91.2C98.482,91.955 99.082,92.74 99.652,93.448C98.936,95.46 97.467,97.116 95.556,98.068C93.444,99.495 91.254,100.801 88.995,101.98C87.224,103.058 83.113,106.4 81.111,106.769C76.706,107.57 72.533,100.964 69.992,98.068C65.665,93.113 61.658,87.887 57.995,82.422C55.331,78.449 52.836,74.368 50.557,70.102C48.077,65.605 43.827,59.43 43.196,53.87C48.922,58.182 55.443,61.322 62.384,63.11C62.422,63.223 62.482,63.327 62.562,63.416C62.641,63.505 62.738,63.576 62.847,63.625C62.955,63.674 63.073,63.7 63.192,63.702C63.311,63.703 63.429,63.68 63.539,63.634C65.402,62.956 67.204,62.094 68.991,61.324C76.398,68.346 83.96,75.184 90.766,82.776C92.892,85.178 96.68,88.366 97.897,91.2ZM78.138,99.624C78.236,99.712 78.365,99.757 78.497,99.75C78.628,99.742 78.751,99.683 78.839,99.585C78.927,99.487 78.972,99.358 78.965,99.227C78.958,99.095 78.899,98.972 78.801,98.885C77.403,97.422 76.092,95.879 74.873,94.265C74.334,93.556 73.164,94.265 73.672,95.019C74.887,96.816 76.397,98.393 78.138,99.685L78.138,99.624ZM78.539,103.566C79.001,103.859 79.524,103.104 79.078,102.781C77.02,101.215 75.324,99.224 74.103,96.944C73.672,96.174 72.563,96.944 72.948,97.683C74.262,100.118 76.189,102.167 78.539,103.628L78.539,103.566Z" transform="rotate(360 71.424 80.353)" fill="#65B1D2"/>
<path d="M96.968,9.225C101.896,11.967 106.439,14.477 106.808,21.222C107.086,26.135 104.36,30.462 101.434,34.173C91.802,46.166 79.39,55.628 65.275,61.74C58.21,59.623 51.683,56.015 46.132,51.16C43.052,48.418 39.51,44.907 38.525,40.749C37.293,35.683 40.188,31.586 42.96,27.952C51.276,17.049 65.059,2.403 79.92,3.173C86.065,3.42 91.655,6.269 96.968,9.225ZM103.913,19.482C103.932,18.314 103.694,17.157 103.214,16.093C102.735,15.028 102.027,14.082 101.141,13.322C101.033,13.226 100.891,13.177 100.747,13.185C100.602,13.194 100.467,13.26 100.371,13.368C100.275,13.476 100.226,13.618 100.235,13.763C100.244,13.907 100.309,14.042 100.417,14.138C101.118,14.838 101.67,15.672 102.04,16.59C102.411,17.508 102.592,18.492 102.573,19.482C102.598,19.642 102.679,19.788 102.802,19.894C102.925,20 103.081,20.058 103.243,20.058C103.405,20.058 103.562,20 103.685,19.894C103.808,19.788 103.889,19.642 103.913,19.482ZM100.833,19.697C101.264,20.437 102.373,19.697 101.973,18.974C101.572,18.25 100.679,17.049 99.94,16.155C99.875,16.051 99.771,15.977 99.651,15.95C99.531,15.922 99.405,15.944 99.301,16.009C99.197,16.074 99.123,16.179 99.095,16.298C99.068,16.418 99.089,16.544 99.155,16.648C99.654,17.694 100.21,18.711 100.818,19.697L100.833,19.697Z" transform="rotate(360 72.53 32.442)" fill="#65B1D2"/>
<path d="M111.361,45.523C116.366,49.081 124.743,53.608 123.357,60.923C121.817,68.716 111.438,76.554 105.817,81.359C98.886,87.296 91.163,92.241 82.871,96.051C82.1,97.008 81.167,97.821 80.114,98.453C76.403,101.102 72.198,103.258 68.302,105.614C66.316,106.831 63.821,109.11 61.495,109.603C57.63,110.465 55.335,106.631 52.871,104.105C48.376,99.31 44.184,94.238 40.32,88.921C40.205,89.02 40.07,89.095 39.924,89.14C39.778,89.185 39.625,89.199 39.473,89.182C19.977,86.765 4.654,65.836 0.619,47.602C-2.107,35.421 4.407,23.44 15.465,20.36C17.005,5.144 32.405,-3.68 46.542,1.479C46.766,1.56 46.957,1.712 47.085,1.913C47.213,2.114 47.271,2.351 47.25,2.588C50.429,1.209 53.857,0.496 57.322,0.494C70.212,0.586 91.202,10.611 87.183,26.15C86.814,27.585 86.298,28.979 85.643,30.308C94.623,34.657 103.225,39.746 111.361,45.523ZM118.044,65.436C124.02,57.551 114.225,48.973 103.322,42.335C96.007,37.869 88.199,34.312 84.38,32.433C82.453,35.414 80.184,38.158 77.619,40.611C78.892,41.125 79.911,42.121 80.453,43.383C80.86,44.246 81.016,45.205 80.905,46.153C80.793,47.1 80.418,47.997 79.822,48.742C77.373,51.714 71.305,51.622 69.796,47.818C64.088,52.947 57.736,57.311 50.9,60.8C57.089,65.316 62.866,70.372 68.164,75.908C72.553,80.374 80.206,86.857 82.717,92.848C82.927,93.34 83.072,93.858 83.148,94.388C87.537,91.785 91.911,89.044 96.115,86.041C104.436,80.335 111.832,73.386 118.044,65.436ZM85.258,21.222C84.888,14.477 80.345,11.982 75.417,9.225C70.104,6.269 64.514,3.435 58.323,3.065C43.508,2.295 29.725,16.925 21.363,27.844C18.591,31.478 15.696,35.544 16.928,40.641C17.913,44.8 21.548,48.342 24.535,51.052C30.081,55.924 36.609,59.548 43.678,61.678C57.798,55.604 70.226,46.179 79.883,34.22C82.794,30.539 85.535,26.135 85.258,21.222ZM78.636,44.322C78.406,43.801 78.051,43.346 77.602,42.997C77.154,42.647 76.625,42.415 76.064,42.32L75.941,42.32C74.401,43.737 72.861,45.092 71.49,46.386L70.828,46.971C71.265,47.556 71.823,48.042 72.463,48.395C73.103,48.748 73.811,48.961 74.539,49.019C75.182,49.069 75.827,48.983 76.434,48.768C77.042,48.553 77.598,48.214 78.066,47.772C78.496,47.324 78.781,46.756 78.883,46.143C78.984,45.53 78.898,44.901 78.636,44.338L78.636,44.322ZM34.946,10.442C38.192,7.665 41.759,5.286 45.572,3.358C32.62,-0.769 21.101,6.099 17.22,18.45C19.222,16.09 21.751,14.234 24.603,13.033C27.455,11.831 30.55,11.318 33.637,11.535L34.946,10.442ZM80.314,93.602C79.744,92.848 79.144,92.062 78.559,91.354C77.342,88.459 73.523,85.271 71.428,82.93C64.622,75.307 57.06,68.5 49.653,61.478C47.866,62.325 46.065,63.11 44.201,63.788C44.091,63.834 43.973,63.857 43.854,63.856C43.735,63.854 43.617,63.828 43.509,63.779C43.4,63.73 43.303,63.659 43.224,63.57C43.144,63.481 43.084,63.377 43.046,63.264C36.105,61.476 29.584,58.336 23.858,54.024C24.489,59.584 28.74,65.759 31.219,70.256C33.498,74.445 35.993,78.526 38.657,82.576C42.32,88.041 46.327,93.267 50.654,98.222C53.195,101.117 57.368,107.724 61.773,106.923C63.775,106.554 67.933,103.212 69.657,102.134C71.918,100.935 74.108,99.608 76.218,98.161C78.136,97.201 79.605,95.533 80.314,93.51L80.314,93.602ZM24.535,19.851C26.768,17.541 29.155,15.401 31.435,13.399C25.891,14.015 21.887,16.125 17.282,19.882C17.212,19.931 17.129,19.958 17.043,19.958C16.958,19.958 16.874,19.931 16.804,19.882C16.797,19.949 16.797,20.016 16.804,20.082C19.347,19.545 21.965,19.467 24.535,19.851ZM15.896,31.863C17.753,28.019 20.189,24.482 23.119,21.376C19.296,21.201 15.501,22.103 12.166,23.979C8.831,25.855 6.089,28.629 4.253,31.987C3.423,33.61 2.842,35.349 2.529,37.146C4.133,35.212 6.199,33.715 8.535,32.791C10.872,31.868 13.403,31.549 15.896,31.863ZM15.033,33.835C13.815,33.728 12.587,33.785 11.384,34.004C9.366,38.177 12.924,46.324 14.926,50.113C17.143,54.282 20.194,57.952 23.889,60.893C22.431,58.24 21.663,55.264 21.656,52.238C16.081,47.187 12.631,40.872 15.033,33.835ZM25.321,63.834C25.321,63.68 25.198,63.557 25.136,63.418C25.023,63.489 24.892,63.527 24.759,63.527C24.625,63.527 24.494,63.489 24.381,63.418C18.479,59.521 13.961,53.855 11.476,47.233C10.521,44.615 8.088,37.792 9.628,34.435C6.63,35.396 4.039,37.331 2.267,39.933C2.267,39.933 2.267,40.01 2.144,40.056C2.154,45.392 3.37,50.656 5.701,55.456C12.123,69.809 22.641,83.977 38.888,87.057L38.226,86.133C33.316,79.072 29.004,71.613 25.336,63.834L25.321,63.834Z" transform="rotate(360 61.755 54.863)" fill="#222221"/>
<path d="M41.648,43.46C42.377,43.961 42.94,44.668 43.264,45.491C43.587,46.315 43.658,47.216 43.465,48.08C43.634,48.099 43.791,48.175 43.912,48.295C47.177,51.375 51.612,55.395 51.273,60.353C50.934,65.312 46.899,69.101 43.327,71.796C37.274,76.416 31.007,78.156 25.586,76.123C22.347,74.813 19.582,72.553 17.655,69.64C17.409,69.581 17.195,69.43 17.057,69.217C16.92,69.005 16.869,68.748 16.915,68.5C16.859,68.586 16.774,68.65 16.676,68.681C16.578,68.712 16.472,68.708 16.376,68.669C8.676,66.128 10.463,61.924 15.545,57.32C19.995,53.285 24.523,49.342 29.189,45.569C31.838,43.413 34.194,40.949 37.767,41.766C39.161,42.066 40.48,42.642 41.648,43.46ZM48.532,63.079C49.979,57.474 46.407,53.408 42.988,49.758C40.97,54.871 33.979,61.17 27.68,65.343C28.111,65.897 28.542,66.467 28.989,67.022C29.436,67.576 30.175,68.3 30.252,69.101C30.329,69.901 29.805,70.286 29.251,70.641C28.311,71.257 27.28,71.78 26.294,72.35C26.129,72.453 25.929,72.487 25.738,72.444C25.548,72.401 25.382,72.284 25.278,72.119C24.336,70.877 23.545,69.528 22.921,68.1C21.697,68.749 20.406,69.266 19.071,69.64C21.154,71.781 23.626,73.506 26.356,74.722C30.976,76.262 35.349,74.383 39.323,72.088C42.264,70.379 47.577,66.683 48.532,63.002L48.532,63.079ZM40.986,48.033C41.109,37.146 26.325,50.713 24.215,52.515C21.043,55.21 8.076,63.125 16.777,67.699C16.876,67.751 16.957,67.832 17.009,67.931C17.061,68.03 17.082,68.142 17.069,68.254C17.152,68.116 17.266,68.001 17.403,67.918C17.54,67.834 17.695,67.786 17.855,67.776C22.321,67.468 27.434,62.817 30.76,60.076C34.087,57.335 40.924,52.469 40.986,47.956L40.986,48.033ZM28.435,68.87C28.088,68.245 27.647,67.679 27.126,67.191C26.879,66.837 26.617,66.513 26.371,66.175C25.539,66.698 24.739,67.145 23.969,67.576C24.723,68.608 25.385,69.717 26.094,70.748L27.511,69.901C27.838,69.761 28.144,69.574 28.419,69.347C28.619,68.977 28.527,69.054 28.435,68.793L28.435,68.87Z" transform="rotate(360 31.226 59.284)" fill="#222221"/>
<path d="M42.065,13.353C42.952,14.113 43.659,15.059 44.139,16.124C44.618,17.188 44.856,18.345 44.837,19.513C44.813,19.673 44.732,19.819 44.609,19.925C44.486,20.03 44.33,20.089 44.168,20.089C44.006,20.089 43.849,20.03 43.726,19.925C43.603,19.819 43.522,19.673 43.498,19.513C43.512,18.528 43.329,17.55 42.958,16.638C42.588,15.725 42.038,14.896 41.342,14.2C41.229,14.104 41.16,13.967 41.148,13.82C41.137,13.673 41.184,13.527 41.28,13.414C41.376,13.302 41.513,13.232 41.66,13.221C41.807,13.209 41.953,13.257 42.065,13.353Z" transform="rotate(360 42.992 16.654)" fill="#222221"/>
<path d="M45.886,18.973C46.348,19.696 45.178,20.512 44.747,19.696C44.133,18.701 43.572,17.673 43.069,16.617C43.004,16.513 42.982,16.387 43.01,16.267C43.037,16.147 43.111,16.043 43.215,15.978C43.319,15.913 43.445,15.891 43.565,15.919C43.685,15.946 43.789,16.02 43.854,16.124C44.593,17.048 45.194,18.034 45.886,18.973Z" transform="rotate(360 44.495 17.972)" fill="#222221"/>
<path d="M37.689,78.68C38.413,78.68 38.613,79.819 37.905,79.927C35.782,80.274 33.613,80.211 31.514,79.742L30.636,79.527C30.562,79.506 30.495,79.464 30.443,79.406C30.392,79.348 30.359,79.276 30.347,79.2C30.336,79.123 30.347,79.045 30.379,78.975C30.411,78.904 30.463,78.844 30.528,78.803C30.614,78.78 30.704,78.78 30.79,78.803C33.088,79.008 35.401,78.967 37.689,78.68Z" transform="rotate(360 34.344 79.414)" fill="#222221"/>
<path d="M36.962,82.345C37.144,82.302 37.335,82.322 37.505,82.401C37.675,82.48 37.812,82.615 37.896,82.782C37.98,82.95 38.005,83.14 37.966,83.324C37.928,83.507 37.829,83.672 37.686,83.792C37.609,83.84 37.526,83.877 37.439,83.9C34.61,84.633 31.621,84.445 28.908,83.361C28.821,83.313 28.749,83.243 28.698,83.157C28.648,83.072 28.622,82.975 28.622,82.876C28.622,82.777 28.648,82.68 28.698,82.594C28.749,82.509 28.821,82.439 28.908,82.391C29.021,82.316 29.159,82.289 29.293,82.314C31.809,82.94 34.44,82.951 36.962,82.345Z" transform="rotate(360 33.303 83.322)" fill="#222221"/>
<path d="M93.621,4.051C94.345,4.144 94.222,5.329 93.498,5.314C91.197,5.275 88.917,5.76 86.83,6.731C86.383,6.931 86.199,6.253 86.507,6.007C88.527,4.44 91.085,3.737 93.621,4.051Z" transform="rotate(360 90.23 5.373)" fill="#222221"/>
<path d="M111.579,24.117C112.426,24.117 112.503,25.503 111.579,25.473C109.521,25.412 107.498,26.011 105.804,27.182C105.711,27.234 105.602,27.252 105.496,27.233C105.391,27.214 105.295,27.159 105.226,27.077C105.157,26.995 105.118,26.891 105.117,26.784C105.116,26.677 105.152,26.573 105.219,26.489C106.049,25.663 107.046,25.024 108.143,24.615C109.24,24.206 110.411,24.036 111.579,24.117Z" transform="rotate(360 108.68 25.669)" fill="#222221"/>
<path d="M69.135,98.898C69.184,98.942 69.223,98.995 69.252,99.053C69.28,99.112 69.296,99.176 69.3,99.241C69.303,99.306 69.294,99.371 69.273,99.432C69.251,99.494 69.217,99.551 69.174,99.599C69.13,99.648 69.078,99.687 69.019,99.715C68.96,99.743 68.897,99.76 68.832,99.763C68.767,99.767 68.702,99.758 68.64,99.736C68.579,99.714 68.522,99.681 68.473,99.638C66.736,98.36 65.227,96.798 64.009,95.019C63.5,94.249 64.671,93.556 65.209,94.264C66.427,95.884 67.738,97.431 69.135,98.898Z" transform="rotate(360 66.592 96.867)" fill="#222221"/>
<path d="M69.853,102.842C70.299,103.166 69.853,103.92 69.314,103.628C66.972,102.184 65.046,100.157 63.723,97.745C63.308,96.975 64.447,96.205 64.878,97.006C66.098,99.285 67.795,101.276 69.853,102.842Z" transform="rotate(360 66.835 100.18)" fill="#222221"/>
</svg>
