<svg width="150" height="148" viewBox="0 0 150 148" fill="none" xmlns="http://www.w3.org/2000/svg" xmlns:xlink="http://www.w3.org/1999/xlink">
<path d="M78.7,119.45C72.25,122.263 67.188,120.575 61.888,115.086C44.314,96.84 28.905,76.511 13.302,56.607C16.572,58.128 20.275,56.729 23.754,54.448L23.873,54.631C23.822,54.656 23.776,54.692 23.739,54.737C23.702,54.781 23.675,54.833 23.66,54.889C23.644,54.946 23.64,55.004 23.649,55.062C23.658,55.12 23.678,55.175 23.709,55.224C37.595,79.871 57.095,101.569 78.7,119.45Z" transform="rotate(35.876 46.001 87.62)" fill="#6AA742"/>
<path d="M76.945,22.31C95.46,43.597 112.123,66.405 129.757,88.513C122.075,98.72 113.223,107.954 103.388,116.019C98.039,120.527 92.325,124.565 86.307,128.092L86.158,128.168C64.224,109.588 46.322,88.27 30.047,64.504C29.975,64.405 29.871,64.336 29.754,64.308C29.636,64.28 29.512,64.296 29.405,64.352L29.286,64.17C33.436,61.433 37.319,57.388 39.991,55.184C52.633,44.662 64.951,33.704 76.945,22.31ZM120.873,88.833C121.084,88.614 121.203,88.319 121.203,88.012C121.203,87.704 121.084,87.41 120.873,87.191L110.929,76.76C110.707,76.546 110.413,76.427 110.107,76.427C109.802,76.427 109.508,76.546 109.286,76.76C100.327,86.035 91.19,98.138 80.006,104.722C79.844,104.81 79.707,104.938 79.608,105.095C79.509,105.252 79.451,105.433 79.439,105.619C79.439,105.619 79.32,105.558 79.32,105.558C78.707,105.133 78.17,106.075 78.722,106.516C82.305,109.434 85.502,112.813 88.233,116.567C88.42,116.754 88.673,116.86 88.935,116.86C89.198,116.86 89.45,116.754 89.637,116.567C100.223,107.52 110.51,98.108 120.873,88.833ZM123.754,93.896C124.292,93.288 123.456,92.375 122.903,92.984C121.41,94.671 119.917,96.435 118.513,98.169C118.11,98.655 118.737,99.355 119.17,98.898C120.723,97.241 122.276,95.599 123.754,93.896ZM121.813,92.68C121.928,92.567 121.994,92.412 121.997,92.249C122,92.087 121.939,91.93 121.828,91.813C121.717,91.696 121.565,91.629 121.406,91.626C121.246,91.623 121.092,91.685 120.977,91.798C118.555,93.975 116.276,96.312 114.154,98.792C113.676,99.309 114.393,100.084 114.9,99.598C117.346,97.444 119.656,95.133 121.813,92.68ZM45.157,61.251C45.784,60.703 44.933,59.867 44.306,60.323C41.768,62.193 39.394,64.352 37.005,66.405C36.557,66.785 37.154,67.378 37.587,67.044C40.126,65.143 42.753,63.318 45.157,61.251ZM41.41,58.955C42.082,58.346 41.171,57.434 40.484,57.966C37.602,60.277 34.93,62.893 32.167,65.371C31.734,65.766 32.361,66.405 32.809,66.04C35.676,63.699 38.662,61.463 41.41,58.955Z" transform="rotate(35.876 79.521 75.239)" fill="#6AA742"/>
<path d="M105.664,87.531C107.292,88.686 109.666,90.997 109.561,92.913C109.412,96.137 103.036,99.908 100.603,102.036C96.9,105.351 93.202,108.671 89.509,111.996C87.813,113.825 85.953,115.489 83.954,116.968C81.252,118.564 81.595,118.488 79.027,116.496C77.086,114.976 75.384,113.318 73.503,111.767C80.49,107.981 85.657,101.763 91.106,96.061C93.928,93.141 96.825,88.671 100.214,86.557C103.26,84.702 103.201,85.797 105.664,87.531ZM102.126,95.483C102.932,94.753 101.767,93.521 100.976,94.251C94.645,99.968 87.687,105.26 81.789,111.403C81.521,111.676 81.789,112.208 82.208,111.996C89.389,107.51 95.84,101.2 102.126,95.483Z" transform="rotate(35.876 91.534 101.839)" fill="#F5F5F5"/>
<path d="M74.212,11.403C76.078,15.432 80.378,15.402 84.066,14.14C76.929,20.815 69.747,27.429 62.416,33.907C58.325,37.485 54.209,41.033 50.068,44.55C45.589,48.291 37.854,57.094 31.076,55.802C30.991,55.747 30.893,55.716 30.792,55.711L30.583,55.711C30.258,55.625 29.939,55.518 29.627,55.392C27.134,53.658 34.629,46.512 34.823,46.268C36.794,44.246 38.81,42.269 40.796,40.308C44.499,36.704 48.261,33.222 52.173,29.817C59.37,23.491 66.925,17.592 74.212,11.403ZM76.944,16.953C77.1,16.804 77.192,16.597 77.199,16.379C77.206,16.161 77.128,15.949 76.981,15.79C76.835,15.63 76.632,15.537 76.418,15.53C76.204,15.523 75.995,15.603 75.839,15.752C63.506,26.943 51.278,38.316 39.064,49.659C38.691,50.024 39.243,50.587 39.646,50.267C52.663,39.859 65.114,28.738 76.944,16.953ZM73.241,17.196C73.898,16.603 72.957,15.6 72.315,16.193C59.952,27.718 47.291,38.863 34.823,50.237C34.54,50.495 34.928,50.876 35.197,50.647C48.261,39.973 60.818,28.631 73.241,17.196Z" transform="rotate(35.876 56.593 33.667)" fill="#F5F5F5"/>
<path d="M131.623,85.147C132.489,84.964 133.504,85.846 132.832,86.667C123.766,98.92 113.067,109.826 101.044,119.069C93.892,124.482 83.127,134.624 73.556,130.306C68.853,128.208 65.403,123.844 62.074,120.058C56.579,113.824 51.105,107.544 45.65,101.218C35.556,89.343 25.403,77.286 16.952,64.118C16.348,63.836 15.84,63.377 15.492,62.801C15.144,62.224 14.971,61.556 14.996,60.879C14.802,56.226 21.939,51.209 24.612,48.563C36.84,36.399 49.995,24.235 64.926,15.416C65.04,15.359 65.171,15.346 65.294,15.379C65.417,15.411 65.525,15.487 65.599,15.593C65.672,15.698 65.707,15.827 65.695,15.957C65.684,16.086 65.628,16.207 65.538,16.298C65.12,16.693 64.657,17.043 64.224,17.423C64.296,17.493 64.357,17.576 64.403,17.666C66.598,22.228 71.869,20.038 75.333,18.867L76.094,18.153C76.285,17.981 76.523,17.874 76.776,17.847C77.029,17.82 77.284,17.874 77.506,18.001C77.727,18.128 77.904,18.322 78.013,18.556C78.121,18.791 78.155,19.054 78.11,19.308L78.214,19.308C98.282,38.771 114.93,62.826 131.623,85.147ZM130.13,86.667C112.496,64.605 95.788,41.797 77.318,20.464C65.374,31.858 53.031,42.816 40.289,53.337C37.617,55.542 33.735,59.587 29.584,62.324C26.09,64.605 22.387,65.973 19.132,64.483C34.735,84.386 50.144,104.761 67.718,122.962C73.018,128.451 78.08,130.139 84.53,127.326C62.925,109.444 43.425,87.792 29.554,63.099C29.523,63.05 29.502,62.995 29.494,62.937C29.485,62.88 29.489,62.821 29.505,62.765C29.52,62.709 29.547,62.657 29.584,62.612C29.621,62.568 29.667,62.531 29.718,62.506C29.826,62.45 29.949,62.434 30.067,62.462C30.184,62.49 30.289,62.559 30.36,62.658C46.784,86.424 64.612,107.741 86.546,126.322L86.695,126.246C92.713,122.719 98.427,118.681 103.776,114.173C113.581,106.122 122.408,96.909 130.07,86.728L130.13,86.667ZM72.75,21.376C69.062,22.638 64.761,22.669 62.895,18.639C55.609,24.828 48.054,30.667 40.887,36.992C37.005,40.398 33.212,43.88 29.509,47.484C27.494,49.445 25.478,51.422 23.537,53.444C23.343,53.642 15.847,60.788 18.341,62.567C18.652,62.694 18.972,62.801 19.296,62.886L19.505,62.886C19.606,62.891 19.704,62.923 19.789,62.978C26.568,64.27 34.362,55.466 38.781,51.726C42.912,48.218 47.028,44.671 51.129,41.082C58.371,34.726 65.553,28.112 72.69,21.437L72.75,21.376Z" transform="rotate(35.876 74.021 73.355)" fill="#222221"/>
<path d="M113.328,92.421C113.539,92.64 113.658,92.935 113.658,93.242C113.658,93.549 113.539,93.844 113.328,94.063C102.966,103.338 92.693,112.75 82.092,121.752C81.905,121.939 81.653,122.044 81.39,122.044C81.128,122.044 80.876,121.939 80.689,121.752C77.957,117.998 74.76,114.619 71.177,111.701C70.625,111.26 71.177,110.317 71.775,110.743C71.775,110.743 71.864,110.819 71.924,110.85C71.936,110.663 71.994,110.483 72.093,110.326C72.192,110.169 72.33,110.04 72.491,109.953C83.675,103.369 92.753,91.265 101.771,81.99C101.993,81.776 102.287,81.657 102.592,81.657C102.898,81.657 103.192,81.776 103.414,81.99L113.328,92.421ZM109.595,93.151C109.7,91.235 107.326,88.924 105.698,87.768C103.234,86.035 103.294,84.94 100.293,86.826C96.904,88.939 94.007,93.409 91.185,96.329C85.735,102.031 80.569,108.25 73.581,112.036C75.463,113.556 77.165,115.274 79.106,116.764C81.674,118.726 81.331,118.832 84.033,117.236C86.032,115.758 87.892,114.093 89.587,112.264C93.28,108.939 96.978,105.619 100.681,102.304C103.1,100.145 109.446,96.374 109.595,93.151Z" transform="rotate(35.876 92.304 101.851)" fill="#222221"/>
<path d="M114.511,104.802C115.064,104.194 115.9,105.106 115.363,105.714C113.869,107.417 112.376,109.059 110.779,110.717C110.346,111.173 109.719,110.473 110.122,109.987C111.57,108.253 113.018,106.49 114.511,104.802Z" transform="rotate(35.876 112.764 107.733)" fill="#222221"/>
<path d="M112.785,102.726C112.9,102.613 113.054,102.551 113.214,102.554C113.373,102.557 113.525,102.624 113.636,102.741C113.747,102.858 113.808,103.015 113.805,103.178C113.802,103.34 113.736,103.495 113.621,103.608C111.464,106.061 109.155,108.372 106.708,110.526C106.201,111.013 105.484,110.237 105.962,109.72C108.084,107.24 110.363,104.903 112.785,102.726Z" transform="rotate(35.876 109.805 106.617)" fill="#222221"/>
<path d="M100.571,94.341C101.363,93.612 102.527,94.843 101.721,95.573C95.435,101.29 88.985,107.6 81.758,112.162C81.4,112.375 81.072,111.843 81.34,111.569C87.283,105.35 94.241,99.998 100.571,94.341Z" transform="rotate(35.876 91.618 103.165)" fill="#222221"/>
<path d="M75.99,16.237C76.146,16.088 76.355,16.008 76.569,16.016C76.783,16.023 76.986,16.116 77.132,16.275C77.279,16.435 77.357,16.647 77.35,16.865C77.343,17.083 77.251,17.289 77.095,17.439C65.255,29.225 52.794,40.346 39.767,50.753C39.364,51.072 38.812,50.51 39.185,50.145C51.428,38.802 63.657,27.428 75.99,16.237Z" transform="rotate(35.876 58.206 33.431)" fill="#222221"/>
<path d="M72.53,15.438C73.172,14.845 74.112,15.849 73.455,16.442C61.033,27.876 48.476,39.249 35.411,49.893C35.142,50.121 34.754,49.741 35.038,49.482C47.505,38.109 60.167,26.964 72.53,15.438Z" transform="rotate(35.876 54.309 32.61)" fill="#222221"/>
<path d="M49.737,49.057C50.364,48.601 51.23,49.437 50.588,49.984C48.184,52.052 45.556,53.877 43.018,55.777C42.585,56.112 41.988,55.519 42.436,55.139C44.825,53.086 47.199,50.927 49.737,49.057Z" transform="rotate(35.876 46.546 52.401)" fill="#222221"/>
<path d="M46.659,45.468C47.346,44.921 48.256,45.848 47.584,46.457C44.837,48.966 41.851,51.201 38.984,53.542C38.536,53.907 37.909,53.269 38.342,52.873C41.089,50.395 43.762,47.78 46.659,45.468Z" transform="rotate(35.876 43.008 49.476)" fill="#222221"/>
</svg>
