<svg width="134" height="122" viewBox="0 0 134 122" fill="none" xmlns="http://www.w3.org/2000/svg" xmlns:xlink="http://www.w3.org/1999/xlink">
<path d="M26.122,40.311C27.142,42.722 27.293,45.412 26.55,47.923C26.265,51.586 25.31,55.321 24.697,58.942C23.537,65.841 22.354,72.731 21.147,79.612C19.223,90.659 16.985,101.678 15.26,112.769C15.259,112.625 15.225,112.483 15.16,112.355C15.018,112.013 14.861,111.685 14.704,111.343C14.704,96.988 18.71,82.676 20.948,68.578C21.813,63.057 22.611,57.535 23.343,52.014C23.884,47.951 24.654,44.174 22.074,40.724C21.973,40.586 21.835,40.481 21.675,40.42C21.516,40.359 21.343,40.346 21.176,40.382C21.176,39.911 21.276,39.427 21.333,38.956L26.122,40.311Z" transform="rotate(333.506 20.86 75.862)" fill="#DA9A36"/>
<path d="M118.882,7.801C118.754,9.754 118.782,11.665 118.639,12.734C117.803,19.224 116.957,25.706 116.102,32.177C114.334,45.805 112.111,59.504 111.156,73.217L110.486,73.217C109.588,73.217 109.588,74.643 110.486,74.643L111.911,74.643C112.022,74.636 112.13,74.601 112.225,74.543L112.567,74.543C110.853,75.524 109.276,76.727 107.877,78.121C107.722,78.293 107.635,78.517 107.635,78.748L107.15,78.748C107.806,67.344 109.245,56.126 110.956,44.807C111.712,39.861 112.453,34.914 113.009,29.939C113.322,27.269 113.574,24.599 113.764,21.928C113.864,20.531 114.035,5.05 118.882,7.801Z" transform="rotate(333.506 113.016 43.111)" fill="#DA9A36"/>
<path d="M130.229,99.415C129.958,101.111 129.716,102.822 129.474,104.518C117.115,98.574 103.23,95.195 89.56,96.749L89.474,96.749C89.368,96.631 89.236,96.539 89.088,96.481C88.94,96.423 88.78,96.401 88.622,96.416C88.464,96.431 88.311,96.483 88.177,96.569C88.043,96.654 87.93,96.769 87.849,96.906C86.98,98.403 86.31,100.855 84.371,101.325C82.66,101.738 78.669,98.916 78.954,97.049C78.985,96.932 78.987,96.81 78.96,96.693C78.933,96.575 78.878,96.466 78.799,96.375C78.721,96.284 78.621,96.213 78.509,96.169C78.397,96.125 78.276,96.109 78.156,96.122C78.06,96.022 77.943,95.944 77.814,95.894C63.574,89.9 47.902,88.167 32.697,90.905C32.697,89.707 32.811,88.524 32.896,87.327L33.381,87.327C33.371,87.447 33.386,87.568 33.427,87.681C33.467,87.794 33.531,87.898 33.615,87.984C33.699,88.071 33.8,88.138 33.912,88.182C34.024,88.226 34.145,88.246 34.265,88.239C50.042,86.473 66,89.134 80.351,95.922C80.527,96.007 80.728,96.028 80.918,95.981C81.108,95.935 81.275,95.823 81.392,95.666C81.482,95.81 81.619,95.919 81.779,95.976C81.939,96.033 82.114,96.034 82.276,95.979C82.329,96.056 82.401,96.118 82.484,96.161C82.567,96.205 82.659,96.227 82.753,96.227C82.847,96.227 82.939,96.205 83.022,96.161C83.105,96.118 83.177,96.056 83.231,95.979C83.538,95.586 83.892,95.232 84.285,94.925C84.346,94.939 84.41,94.939 84.471,94.925C99.53,92.012 115.12,93.814 129.117,100.085C129.234,100.129 129.36,100.146 129.484,100.135C129.608,100.123 129.729,100.084 129.836,100.019C129.943,99.955 130.034,99.867 130.102,99.762C130.17,99.658 130.214,99.539 130.229,99.415Z" transform="rotate(333.506 81.463 95.922)" fill="#DA9A36"/>
<path d="M123.139,31.179C123.467,33.916 122.155,37.551 121.713,40.302C120.958,44.907 120.188,49.497 119.404,54.101C116.353,71.934 113.702,90.024 109.426,107.629C110.153,108.398 109.34,109.995 108.2,109.596L107.188,109.239C106.989,109.165 106.813,109.043 106.674,108.883C94.372,103.053 81.913,101.1 68.3,100.886C67.416,103.623 65.107,106.517 61.985,106.032C59.761,105.69 56.283,103.053 56.055,100.458C41.944,94.971 26.705,93.014 11.665,94.756C11.539,94.763 11.414,94.728 11.309,94.657C11.237,94.768 11.133,94.854 11.009,94.903C10.886,94.951 10.751,94.959 10.623,94.926C10.495,94.893 10.38,94.82 10.296,94.718C10.212,94.616 10.162,94.489 10.154,94.357C9.085,76.011 13.86,57.879 15.856,39.747C16.184,36.782 14.801,12.391 23.625,16.81C23.717,15.432 24.247,14.119 25.136,13.061C29.17,9.44 39.705,13.831 44.024,15.342C53.271,18.678 61.63,24.091 68.457,31.165C68.757,31.062 69.083,31.062 69.383,31.165C81.044,19.134 98.606,14.287 114.999,16.668C115.257,16.713 115.487,16.858 115.639,17.071C115.791,17.285 115.853,17.549 115.812,17.808C115.961,17.89 116.08,18.017 116.151,18.17C116.223,18.324 116.244,18.497 116.211,18.663C115.897,21.144 115.612,23.638 115.327,26.147C119.062,27.216 122.626,27.031 123.139,31.179ZM120.288,37.038C121.031,34.528 120.88,31.837 119.86,29.426L115.042,28C115.042,28.471 114.942,28.955 114.885,29.426C115.052,29.39 115.225,29.403 115.385,29.464C115.544,29.525 115.683,29.63 115.783,29.768C118.363,33.218 117.594,36.995 117.052,41.058C116.32,46.589 115.522,52.11 114.657,57.622C112.419,71.763 108.371,86.132 108.413,100.387C108.57,100.729 108.727,101.057 108.87,101.399C108.934,101.527 108.969,101.669 108.969,101.813C108.967,101.955 108.929,102.095 108.857,102.219C108.784,102.342 108.682,102.444 108.558,102.516C108.435,102.588 108.295,102.626 108.152,102.628C108.009,102.63 107.869,102.594 107.743,102.525C93.746,96.255 78.156,94.453 63.097,97.365C63.036,97.38 62.973,97.38 62.912,97.365C62.519,97.673 62.164,98.027 61.857,98.42C61.803,98.496 61.731,98.559 61.648,98.602C61.565,98.645 61.473,98.667 61.379,98.667C61.286,98.667 61.193,98.645 61.11,98.602C61.027,98.559 60.956,98.496 60.902,98.42C60.741,98.475 60.566,98.474 60.405,98.417C60.245,98.36 60.108,98.251 60.018,98.106C59.901,98.263 59.734,98.375 59.544,98.422C59.354,98.469 59.153,98.448 58.977,98.363C44.609,91.598 28.641,88.967 12.863,90.765C12.742,90.772 12.622,90.752 12.51,90.708C12.398,90.664 12.296,90.597 12.213,90.51C12.129,90.424 12.065,90.32 12.024,90.207C11.984,90.094 11.968,89.973 11.979,89.853C11.979,89.621 12.066,89.398 12.221,89.226C13.595,87.795 15.153,86.554 16.854,85.533L16.512,85.533C16.417,85.592 16.309,85.626 16.198,85.633L14.773,85.633C13.875,85.633 13.875,84.208 14.773,84.208L15.443,84.208C16.398,70.494 18.622,56.795 20.389,43.168C21.244,36.677 22.09,30.196 22.927,23.724C23.069,22.655 23.041,20.745 23.169,18.792C18.322,16.04 18.151,31.521 18.051,32.89C17.861,35.57 17.609,38.24 17.296,40.901C16.74,45.876 15.999,50.88 15.243,55.769C13.532,67.088 12.093,78.32 11.437,89.71C11.351,90.908 11.294,92.091 11.237,93.288C26.449,90.536 42.132,92.259 56.383,98.249C56.512,98.299 56.629,98.377 56.725,98.477C56.845,98.464 56.966,98.48 57.078,98.524C57.19,98.568 57.29,98.639 57.368,98.73C57.447,98.821 57.502,98.93 57.529,99.048C57.556,99.165 57.554,99.287 57.523,99.404C57.181,101.328 61.23,104.15 62.94,103.68C64.879,103.21 65.549,100.758 66.418,99.261C66.5,99.124 66.612,99.009 66.746,98.924C66.88,98.838 67.033,98.786 67.191,98.771C67.349,98.755 67.509,98.778 67.657,98.836C67.805,98.894 67.938,98.986 68.043,99.104L68.129,99.104C81.856,97.55 95.741,100.929 108.043,106.873C108.285,105.177 108.528,103.466 108.798,101.77C110.523,90.68 112.761,79.66 114.686,68.613C115.902,61.723 117.085,54.833 118.235,47.943C119.048,44.436 120.003,40.759 120.288,37.038ZM113.93,51.778C114.757,46.261 117.964,36.553 114.686,31.236C112.761,49.027 111.093,67.031 107.473,84.45C107.507,84.61 107.504,84.775 107.467,84.933C107.429,85.092 107.356,85.24 107.253,85.367C107.151,85.494 107.022,85.597 106.875,85.667C106.728,85.738 106.567,85.775 106.404,85.776L105.277,85.705C105.277,88.641 105.363,91.592 105.406,94.543C105.522,94.555 105.632,94.599 105.725,94.669C105.818,94.739 105.89,94.834 105.933,94.942L107.515,98.448C106.546,88.712 109.369,78.948 111.065,69.425C112.12,63.562 113.075,57.679 113.93,51.778ZM106.446,83.524C107.401,61.956 111.307,40.26 113.959,18.849C97.466,16.853 82.598,22.056 69.868,32.362C67.288,53.403 65.592,74.842 61.743,95.683C74.445,85.867 90.523,81.494 106.446,83.524ZM106.546,100.202L104.921,96.553C104.817,96.621 104.7,96.666 104.577,96.686C104.454,96.705 104.328,96.699 104.208,96.667C97.607,94.655 90.738,93.66 83.838,93.716C80.117,93.716 71.664,93.716 66.162,95.683C79.774,93.039 93.87,94.636 106.546,100.259L106.546,100.202ZM102.355,94.143C104.422,92.918 103.681,88.242 103.481,85.59C91.174,84.852 78.908,87.594 68.086,93.502C72.46,92.613 76.908,92.136 81.372,92.076C85.967,91.817 90.578,92.037 95.128,92.732C96.126,92.818 101.457,94.742 102.355,94.2L102.355,94.143ZM67.345,33.175C67.178,33.115 67.027,33.017 66.903,32.89C60.312,26.004 52.225,20.726 43.268,17.466C39.69,16.197 34.216,13.973 30.439,14.444C27.844,13.494 26.371,14.772 26.02,18.278C25.906,19.205 25.777,20.132 25.663,21.129C25.193,23.382 25.05,25.791 24.751,28.072C22.271,46.846 20.475,65.919 16.925,84.521C17.407,84.595 17.883,84.7 18.351,84.835L18.607,84.707C18.709,84.645 18.83,84.624 18.946,84.648C19.062,84.671 19.165,84.738 19.234,84.835C33.333,84.336 48.714,87.044 60.146,95.712C61.329,74.785 64.765,53.887 67.345,33.175ZM52.848,94.044C42.099,88.727 30.966,86.503 18.479,85.876C17.284,86.725 16.168,87.679 15.143,88.727C27.952,87.632 40.841,89.45 52.848,94.044Z" transform="rotate(333.506 66.595 60.662)" fill="#222221"/>
<path d="M28.63,41.229C31.909,46.546 28.63,56.254 27.874,61.77C26.991,67.672 26.04,73.559 25.023,79.432C23.327,88.955 20.505,98.719 21.474,108.455L19.863,104.92C19.82,104.812 19.748,104.718 19.655,104.647C19.562,104.577 19.452,104.533 19.336,104.521C19.336,101.57 19.336,98.619 19.207,95.683L20.334,95.754C20.497,95.754 20.658,95.716 20.805,95.646C20.952,95.575 21.081,95.473 21.183,95.346C21.286,95.219 21.359,95.07 21.397,94.912C21.434,94.753 21.437,94.588 21.403,94.428C25.038,77.023 26.705,59.019 28.63,41.229Z" transform="rotate(333.506 24.634 74.842)" fill="#F5F5F5"/>
<path d="M71.2,23.871C68.549,45.253 64.643,66.977 63.688,88.545C47.764,86.516 31.686,90.889 18.984,100.705C22.848,79.935 24.53,58.425 27.124,37.384C39.953,27.078 54.707,21.875 71.2,23.871ZM60.067,33.692C60.294,33.692 60.512,33.602 60.672,33.442C60.832,33.281 60.922,33.064 60.922,32.837C60.922,32.61 60.832,32.393 60.672,32.232C60.512,32.072 60.294,31.982 60.067,31.982C50.303,31.982 36.589,34.22 29.576,41.718C29.527,41.767 29.489,41.826 29.463,41.891C29.437,41.955 29.424,42.024 29.424,42.093C29.425,42.163 29.439,42.232 29.467,42.296C29.494,42.36 29.533,42.417 29.583,42.466C29.633,42.515 29.691,42.553 29.756,42.579C29.82,42.605 29.889,42.618 29.959,42.618C30.028,42.617 30.097,42.603 30.161,42.575C30.225,42.548 30.283,42.509 30.331,42.459C37.929,35.659 50.303,33.992 60.067,33.692ZM59.725,58.054C60.908,58.139 60.894,56.315 59.725,56.201C50.182,55.258 40.596,57.509 32.47,62.601C32.358,62.667 32.277,62.775 32.245,62.901C32.213,63.026 32.232,63.16 32.299,63.271C32.365,63.383 32.472,63.463 32.598,63.495C32.724,63.528 32.857,63.508 32.969,63.442C41.206,59.174 50.477,57.307 59.725,58.054ZM59.012,42.901C59.247,42.901 59.472,42.808 59.637,42.642C59.803,42.476 59.896,42.252 59.896,42.017C59.896,41.783 59.803,41.558 59.637,41.392C59.472,41.226 59.247,41.133 59.012,41.133C49.363,40.74 39.875,43.697 32.156,49.501C31.714,49.843 32.27,50.527 32.74,50.256C40.681,45.492 49.753,42.942 59.012,42.872L59.012,42.901ZM57.858,86.393C58.528,86.607 58.756,85.609 58.143,85.352C55.556,84.33 52.726,84.087 50.003,84.654C49.919,84.686 49.849,84.745 49.803,84.822C49.757,84.899 49.738,84.989 49.75,85.078C49.761,85.167 49.802,85.249 49.866,85.312C49.931,85.375 50.014,85.414 50.103,85.423C52.727,85.209 55.367,85.539 57.858,86.393ZM57.858,81.061C58.096,81.061 58.324,80.967 58.493,80.798C58.661,80.63 58.756,80.402 58.756,80.163C58.756,79.925 58.661,79.697 58.493,79.528C58.324,79.36 58.096,79.265 57.858,79.265C52.426,79.211 47.014,79.917 41.778,81.361C39.027,82.116 33.225,83.285 31.472,85.78C31.444,85.825 31.425,85.876 31.417,85.929C31.409,85.982 31.412,86.036 31.425,86.088C31.438,86.14 31.462,86.189 31.495,86.231C31.527,86.274 31.568,86.309 31.614,86.336L31.8,86.464C31.867,86.509 31.947,86.533 32.028,86.533C32.109,86.533 32.188,86.509 32.256,86.464C32.286,86.411 32.324,86.362 32.37,86.321C32.555,86.093 32.37,85.666 32.056,85.78C40.346,82.734 49.098,81.138 57.929,81.061L57.858,81.061ZM56.803,68.831C57.022,68.831 57.232,68.744 57.387,68.588C57.542,68.433 57.63,68.223 57.63,68.004C57.63,67.785 57.542,67.574 57.387,67.419C57.232,67.264 57.022,67.177 56.803,67.177C47.409,66.472 38.051,68.958 30.246,74.233C30.148,74.292 30.077,74.387 30.048,74.498C30.02,74.609 30.038,74.727 30.096,74.825C30.155,74.923 30.25,74.994 30.361,75.022C30.472,75.05 30.589,75.033 30.688,74.975C38.732,70.679 47.759,68.561 56.874,68.831L56.803,68.831ZM54.308,86.863C54.935,86.863 55.092,85.837 54.465,85.751C51.809,85.39 49.12,85.342 46.454,85.609C45.883,85.609 45.855,86.55 46.454,86.521C49.1,86.439 51.75,86.553 54.379,86.863L54.308,86.863Z" transform="rotate(333.506 45.092 62.077)" fill="#F5F5F5"/>
<path d="M74.26,100.17L75.885,103.819C63.203,98.215 49.107,96.638 35.501,99.3C41.003,97.376 49.456,97.39 53.177,97.333C60.077,97.277 66.946,98.272 73.547,100.284C73.667,100.316 73.793,100.322 73.916,100.303C74.038,100.283 74.156,100.238 74.26,100.17Z" transform="rotate(333.506 55.693 100.575)" fill="#F5F5F5"/>
<path d="M72.015,89.244C72.215,91.952 72.956,96.628 70.889,97.797C69.991,98.339 64.66,96.371 63.662,96.257C59.112,95.562 54.502,95.342 49.906,95.602C45.439,95.703 40.99,96.223 36.62,97.156C47.442,91.247 59.708,88.506 72.015,89.244Z" transform="rotate(333.506 54.464 93.509)" fill="#F5F5F5"/>
<path d="M54.229,32.66C54.456,32.66 54.674,32.75 54.834,32.91C54.995,33.071 55.085,33.288 55.085,33.515C55.085,33.742 54.995,33.959 54.834,34.12C54.674,34.28 54.456,34.37 54.229,34.37C44.465,34.67 32.091,36.338 24.494,43.137C24.445,43.187 24.387,43.226 24.323,43.254C24.259,43.281 24.19,43.295 24.121,43.296C24.051,43.296 23.982,43.283 23.918,43.257C23.853,43.231 23.795,43.193 23.745,43.144C23.696,43.096 23.656,43.038 23.629,42.974C23.602,42.91 23.587,42.841 23.587,42.772C23.586,42.702 23.599,42.633 23.625,42.569C23.651,42.504 23.689,42.446 23.738,42.396C30.751,34.898 44.465,32.603 54.229,32.66Z" transform="rotate(333.506 39.336 37.977)" fill="#222221"/>
<path d="M56.575,56.567C57.744,56.681 57.758,58.505 56.575,58.42C47.327,57.673 38.056,59.54 29.818,63.808C29.707,63.874 29.573,63.894 29.448,63.861C29.322,63.829 29.214,63.749 29.148,63.637C29.082,63.526 29.063,63.392 29.095,63.267C29.127,63.141 29.208,63.033 29.319,62.967C37.445,57.875 47.031,55.624 56.575,56.567Z" transform="rotate(333.506 43.268 60.117)" fill="#222221"/>
<path d="M53.578,41.765C53.813,41.765 54.037,41.858 54.203,42.023C54.369,42.189 54.462,42.414 54.462,42.648C54.462,42.883 54.369,43.108 54.203,43.273C54.037,43.439 53.813,43.532 53.578,43.532C44.321,43.593 35.249,46.133 27.306,50.888C26.836,51.159 26.28,50.474 26.722,50.132C34.44,44.328 43.929,41.372 53.578,41.765Z" transform="rotate(333.506 40.511 46.34)" fill="#222221"/>
<path d="M45.663,86.802C46.276,87.058 46.048,88.056 45.378,87.842C42.887,86.988 40.247,86.658 37.623,86.873C37.534,86.863 37.451,86.824 37.387,86.761C37.323,86.699 37.281,86.616 37.27,86.527C37.258,86.438 37.277,86.348 37.323,86.271C37.369,86.194 37.44,86.135 37.523,86.103C40.247,85.537 43.076,85.78 45.663,86.802Z" transform="rotate(333.506 41.644 86.838)" fill="#222221"/>
<path d="M62.641,78.718C62.879,78.718 63.107,78.813 63.276,78.981C63.444,79.15 63.539,79.378 63.539,79.616C63.539,79.854 63.444,80.083 63.276,80.251C63.107,80.42 62.879,80.514 62.641,80.514C53.812,80.578 45.06,82.159 36.768,85.19C37.096,85.076 37.267,85.504 37.081,85.732C37.036,85.773 36.997,85.821 36.967,85.874C36.9,85.919 36.82,85.943 36.739,85.943C36.658,85.943 36.579,85.919 36.511,85.874L36.326,85.746C36.279,85.719 36.239,85.684 36.206,85.641C36.174,85.599 36.15,85.55 36.137,85.498C36.123,85.446 36.121,85.392 36.129,85.339C36.137,85.286 36.155,85.236 36.183,85.19C37.951,82.695 43.738,81.526 46.49,80.771C51.751,79.335 57.187,78.644 62.641,78.718Z" transform="rotate(333.506 49.831 82.328)" fill="#222221"/>
<path d="M61.343,66.658C61.562,66.658 61.773,66.745 61.928,66.9C62.083,67.055 62.17,67.266 62.17,67.485C62.17,67.704 62.083,67.914 61.928,68.069C61.773,68.225 61.562,68.312 61.343,68.312C52.229,68.037 43.202,70.15 35.157,74.441C35.059,74.5 34.941,74.517 34.83,74.489C34.719,74.461 34.624,74.39 34.565,74.292C34.507,74.193 34.49,74.076 34.518,73.965C34.546,73.854 34.617,73.759 34.715,73.7C42.542,68.415 51.927,65.933 61.343,66.658Z" transform="rotate(333.506 48.337 70.518)" fill="#222221"/>
<path d="M49.36,86.352C49.987,86.438 49.83,87.535 49.203,87.464C46.597,87.158 43.972,87.043 41.349,87.122C40.75,87.122 40.778,86.267 41.349,86.21C44.015,85.943 46.704,85.991 49.36,86.352Z" transform="rotate(333.506 45.335 86.754)" fill="#222221"/>
<path d="M113.941,27.428C114.064,27.555 114.216,27.653 114.383,27.713C111.802,48.425 108.367,69.323 107.084,90.178C95.68,81.511 80.27,78.774 66.172,79.302C66.103,79.205 66,79.138 65.884,79.114C65.767,79.091 65.646,79.112 65.545,79.173L65.288,79.302C64.82,79.167 64.344,79.062 63.863,78.988C67.455,60.385 69.209,41.312 71.689,22.538C71.988,20.258 72.131,17.849 72.601,15.596C72.715,14.67 72.844,13.743 72.958,12.745C73.319,9.239 74.792,7.96 77.377,8.911C81.211,8.44 86.685,10.664 90.206,11.933C99.206,15.2 107.329,20.503 113.941,27.428ZM105.516,52.545C106.4,52.93 107.17,51.733 106.286,51.234C96.478,45.746 84.903,44.349 73.941,45.746C73.357,45.831 73.328,46.743 73.941,46.686C85.288,45.617 95.295,48.026 105.516,52.545ZM103.891,35.881C104.08,35.989 104.304,36.017 104.514,35.96C104.724,35.902 104.902,35.764 105.01,35.575C105.118,35.386 105.146,35.161 105.088,34.952C105.031,34.742 104.892,34.563 104.703,34.456C95.881,29.559 85.81,27.373 75.752,28.169C75.167,28.169 75.153,29.096 75.752,29.081C85.568,28.94 95.262,31.278 103.934,35.881L103.891,35.881ZM103.335,65.902C104.062,66.173 104.532,65.004 103.862,64.648C95.081,59.958 84.419,58.646 74.611,59.559C73.927,59.559 73.898,60.685 74.611,60.656C84.96,60.172 93.813,62.381 103.378,65.902L103.335,65.902ZM102.665,78.432C103.592,78.945 104.433,77.506 103.492,77.007C93.513,71.69 82.679,68.454 71.39,70.849C70.805,70.963 71.062,71.804 71.632,71.718C82.708,69.936 92.943,73.129 102.665,78.432ZM89.836,16.323C90.463,16.566 90.919,15.496 90.292,15.226C87.582,14.037 84.69,13.319 81.739,13.102C81.626,13.098 81.516,13.135 81.43,13.208C81.343,13.28 81.287,13.382 81.271,13.493C81.255,13.605 81.281,13.718 81.343,13.811C81.406,13.905 81.501,13.972 81.61,14C84.423,14.497 87.179,15.275 89.836,16.323ZM89.836,14.057C90.506,14.256 90.776,13.216 90.121,13.002C86.697,11.928 83.172,11.211 79.6,10.864C79.13,10.864 79.016,11.619 79.486,11.676C82.99,12.214 86.449,13.01 89.836,14.057Z" transform="rotate(333.506 89.123 49.392)" fill="#F5F5F5"/>
<path d="M104.24,51.476C105.124,51.975 104.354,53.172 103.47,52.787C93.207,48.269 83.2,45.86 71.896,46.929C71.283,46.929 71.311,46.073 71.896,45.988C82.915,44.591 94.433,45.988 104.24,51.476Z" transform="rotate(333.506 88.039 49.173)" fill="#222221"/>
<path d="M98.573,35.187C98.762,35.295 98.901,35.473 98.958,35.683C99.016,35.893 98.987,36.117 98.88,36.306C98.772,36.495 98.593,36.633 98.384,36.691C98.174,36.748 97.95,36.72 97.761,36.612C89.086,32.02 79.393,29.691 69.579,29.841C68.98,29.841 68.994,28.972 69.579,28.929C79.649,28.115 89.735,30.292 98.573,35.187Z" transform="rotate(333.506 84.061 32.741)" fill="#222221"/>
<path d="M106.824,64.309C107.494,64.665 107.024,65.834 106.297,65.563C96.732,62.042 87.879,59.861 77.573,60.317C76.86,60.317 76.889,59.291 77.573,59.22C87.38,58.307 98.043,59.619 106.824,64.309Z" transform="rotate(333.506 92.098 62.276)" fill="#222221"/>
<path d="M112.452,75.964C113.393,76.463 112.552,77.903 111.626,77.39C101.918,72.087 91.669,68.837 80.593,70.676C80.022,70.761 79.766,69.92 80.35,69.806C91.683,67.426 102.474,70.647 112.452,75.964Z" transform="rotate(333.506 96.441 73.254)" fill="#222221"/>
<path d="M88.581,15.424C89.209,15.695 88.752,16.764 88.125,16.522C85.491,15.478 82.76,14.7 79.971,14.198C79.862,14.171 79.767,14.104 79.704,14.01C79.642,13.917 79.616,13.803 79.632,13.692C79.648,13.58 79.704,13.479 79.791,13.406C79.877,13.334 79.987,13.296 80.1,13.3C83.026,13.525 85.894,14.244 88.581,15.424Z" transform="rotate(333.506 84.254 14.929)" fill="#222221"/>
<path d="M90.068,13.013C90.724,13.227 90.453,14.267 89.783,14.068C86.397,13.021 82.938,12.225 79.434,11.687C78.964,11.687 79.078,10.832 79.548,10.875C83.119,11.223 86.645,11.939 90.068,13.013Z" transform="rotate(333.506 84.789 12.483)" fill="#222221"/>
<path d="M89.525,77.626C102.012,78.253 113.145,80.477 123.894,85.794C111.885,81.21 98.995,79.402 86.189,80.505C87.213,79.448 88.329,78.484 89.525,77.626Z" transform="rotate(333.506 105.041 81.71)" fill="#F5F5F5"/>
</svg>
