<svg width="250" height="246" viewBox="0 0 250 246" fill="none" xmlns="http://www.w3.org/2000/svg" xmlns:xlink="http://www.w3.org/1999/xlink">
<path d="M88.479,80.904C86.389,79.42 84.298,77.968 82.224,76.468C82.311,76.58 82.358,76.718 82.358,76.859C82.358,77.001 82.311,77.138 82.224,77.25C81.484,78.038 80.695,78.779 79.862,79.468C79.049,80.202 78.267,80.936 77.437,81.638C77.346,81.729 77.223,81.78 77.094,81.78C76.965,81.78 76.842,81.729 76.751,81.638C76.66,81.547 76.609,81.424 76.609,81.295C76.609,81.166 76.66,81.043 76.751,80.952C77.469,80.138 78.251,79.356 79.001,78.622C79.719,77.81 80.492,77.048 81.314,76.341C81.399,76.268 81.5,76.218 81.609,76.196C81.718,76.174 81.831,76.18 81.937,76.213C77.836,73.277 73.751,70.341 69.698,67.357C66.044,71.825 62.294,76.181 58.88,80.84C57.124,83.234 46.115,96.685 53.582,98.488C53.638,98.501 53.691,98.525 53.737,98.559C53.783,98.593 53.823,98.635 53.852,98.684C53.882,98.733 53.902,98.788 53.91,98.844C53.919,98.901 53.916,98.959 53.901,99.015C74.964,111.237 95.659,124.066 116.131,137.182C136.875,150.458 158.145,163.51 178.074,178.047C181.776,173.93 198.913,156.139 196.584,151.033C196.39,151.169 196.159,151.243 195.921,151.243C195.684,151.243 195.453,151.169 195.259,151.033L186.068,145.161C184.437,147.392 182.674,149.523 180.787,151.543C180.324,152.07 179.399,151.352 179.813,150.793C181.346,148.57 183.008,146.438 184.792,144.411C182.335,142.847 179.883,141.278 177.436,139.703C177.387,139.657 177.326,139.624 177.26,139.608L169.155,134.406C168.781,134.915 168.382,135.405 167.958,135.874C167.304,136.704 166.649,137.47 165.963,138.347C165.532,138.874 164.639,138.172 165.022,137.613C165.628,136.736 166.234,135.874 166.857,135.012C167.176,134.565 167.495,134.039 167.862,133.576L161.112,129.236C160.698,129.747 160.235,130.225 159.836,130.736C159.07,131.645 158.24,132.587 157.522,133.496C157.139,133.927 156.357,133.337 156.709,132.858C157.427,131.901 158.161,130.959 158.895,130.002C159.262,129.523 159.613,129.013 159.996,128.518L154.06,124.688L154.06,124.768C153.358,125.343 152.56,125.789 151.89,126.364C151.208,127.02 150.613,127.76 150.119,128.566C150.082,128.628 150.033,128.682 149.976,128.725C149.918,128.768 149.853,128.799 149.783,128.817C149.714,128.835 149.641,128.839 149.57,128.828C149.499,128.818 149.43,128.794 149.369,128.757C149.307,128.721 149.253,128.672 149.21,128.615C149.167,128.557 149.135,128.492 149.118,128.422C149.1,128.352 149.096,128.28 149.106,128.209C149.116,128.138 149.14,128.069 149.177,128.007C149.968,126.275 151.271,124.827 152.911,123.859L145.459,119.072C145.401,119.189 145.313,119.288 145.204,119.359C143.787,120.302 142.612,121.564 141.773,123.045C141.438,123.635 140.369,123.22 140.64,122.55C141.343,120.78 142.589,119.277 144.199,118.258C142.029,116.838 139.859,115.466 137.704,114.045C136.169,115.217 134.832,116.628 133.747,118.226C133.665,118.334 133.545,118.409 133.412,118.435C133.278,118.461 133.14,118.438 133.022,118.37C132.904,118.301 132.816,118.192 132.773,118.063C132.73,117.933 132.736,117.793 132.79,117.668C133.681,115.947 134.913,114.427 136.412,113.2L129.854,108.908C128.577,110.264 127.077,111.492 125.705,112.769C125.602,112.861 125.467,112.91 125.329,112.906C125.191,112.902 125.059,112.845 124.961,112.747C124.863,112.649 124.807,112.518 124.803,112.379C124.798,112.241 124.847,112.106 124.939,112.003C126.184,110.727 127.381,109.338 128.689,108.126L121.174,103.163C119.578,104.759 117.775,106.131 116.115,107.567C115.637,107.982 114.967,107.328 115.413,106.881C116.897,105.381 118.349,103.69 119.929,102.333C117.775,100.897 115.621,99.477 113.546,98.025C113.532,98.149 113.482,98.265 113.403,98.36C112.717,99.142 111.807,99.653 111.025,100.403C110.284,101.214 109.617,102.09 109.031,103.02C108.712,103.498 107.818,103.195 108.057,102.621C108.498,101.528 109.107,100.511 109.86,99.605C110.557,98.685 111.451,97.932 112.477,97.403L104.499,91.93C104.457,92.02 104.397,92.102 104.324,92.169C102.808,93.589 101.308,95.01 99.76,96.382C99.657,96.474 99.522,96.523 99.384,96.519C99.245,96.514 99.114,96.458 99.016,96.36C98.918,96.262 98.861,96.131 98.857,95.992C98.853,95.854 98.902,95.719 98.994,95.616C100.382,94.02 101.787,92.568 103.207,91.052C100.989,89.536 98.755,88.021 96.537,86.473C94.996,88.335 93.09,89.861 90.936,90.957C90.282,91.324 89.771,90.382 90.362,89.951C91.271,89.281 92.181,88.579 93.042,87.813C93.904,87.047 94.51,86.218 95.356,85.579C93.473,84.271 91.574,82.978 89.692,81.654C89.689,81.819 89.626,81.978 89.516,82.101C88,83.553 86.402,84.917 84.729,86.186C84.075,86.744 83.133,85.819 83.756,85.212C85.249,83.69 86.826,82.252 88.479,80.904ZM197.78,149.07C201.722,153.219 196.983,157.974 194.35,161.468C189.532,167.765 184.32,173.75 178.744,179.387C178.642,179.484 178.515,179.55 178.377,179.579C178.32,179.729 178.228,179.864 178.108,179.972C177.988,180.08 177.845,180.159 177.689,180.201C177.534,180.243 177.37,180.247 177.213,180.214C177.055,180.181 176.907,180.111 176.782,180.009C155.815,166.925 135.566,152.644 114.759,139.305C93.952,125.965 73.001,112.913 52.098,99.685C51.972,99.6 51.877,99.477 51.827,99.334C47.742,98.568 48.508,93.206 50.231,90.015C55.287,81.162 61.466,72.999 68.613,65.729C68.66,65.655 68.722,65.59 68.794,65.54C68.867,65.489 68.949,65.454 69.035,65.436C69.121,65.418 69.211,65.418 69.297,65.436C69.384,65.453 69.466,65.488 69.539,65.538C112.174,92.823 153.868,121.577 196.6,148.735C196.6,148.735 196.6,148.815 196.727,148.846C196.904,148.769 197.101,148.749 197.29,148.789C197.478,148.829 197.65,148.927 197.78,149.07Z" transform="rotate(329.76 124.063 122.829)" fill="#222221"/>
<path d="M196.912,151.053C199.242,156.159 182.105,173.95 178.403,178.067C158.473,163.531 137.251,150.478 116.46,137.203C95.956,124.087 75.26,111.258 54.23,99.035C54.244,98.979 54.247,98.922 54.239,98.865C54.23,98.808 54.211,98.754 54.181,98.705C54.151,98.656 54.112,98.613 54.066,98.579C54.019,98.546 53.967,98.521 53.911,98.508C46.363,96.641 57.373,83.19 59.128,80.797C62.543,76.137 66.293,71.781 69.947,67.314C74,70.297 78.085,73.233 82.186,76.169C82.08,76.136 81.967,76.13 81.858,76.153C81.749,76.175 81.648,76.225 81.563,76.297C80.741,77.004 79.968,77.767 79.25,78.579C78.5,79.345 77.654,80.095 77,80.908C76.909,80.999 76.858,81.123 76.858,81.251C76.858,81.38 76.909,81.504 77,81.595C77.091,81.686 77.214,81.737 77.343,81.737C77.471,81.737 77.595,81.686 77.686,81.595C78.516,80.892 79.282,80.159 80.111,79.425C80.943,78.74 81.732,78.005 82.473,77.223C82.559,77.111 82.607,76.973 82.607,76.832C82.607,76.69 82.559,76.553 82.473,76.441C84.547,77.941 86.637,79.393 88.728,80.877C87.052,82.233 85.454,83.682 83.941,85.217C83.303,85.823 84.26,86.812 84.914,86.19C86.587,84.921 88.185,83.557 89.701,82.105C89.811,81.982 89.874,81.824 89.877,81.658C91.759,82.983 93.658,84.275 95.541,85.584C94.695,86.238 93.945,87.179 93.227,87.818C92.509,88.456 91.456,89.286 90.547,89.956C89.956,90.387 90.547,91.328 91.121,90.961C93.275,89.865 95.181,88.339 96.722,86.477C98.94,88.073 101.174,89.541 103.392,91.057C101.972,92.573 100.567,94.072 99.179,95.62C99.087,95.724 99.038,95.858 99.042,95.997C99.046,96.135 99.103,96.266 99.201,96.364C99.299,96.462 99.43,96.519 99.569,96.523C99.707,96.527 99.842,96.478 99.945,96.386C101.541,95.014 102.993,93.594 104.509,92.174C104.582,92.106 104.642,92.025 104.684,91.934L112.662,97.407C111.693,97.94 110.85,98.675 110.189,99.562C109.384,100.457 108.727,101.475 108.242,102.577C108.003,103.152 108.897,103.455 109.216,102.976C109.802,102.047 110.469,101.171 111.21,100.359C111.928,99.609 112.902,99.099 113.588,98.317C113.667,98.222 113.717,98.105 113.731,97.982C115.886,99.434 118.04,100.854 120.114,102.29C118.518,103.71 117.082,105.338 115.598,106.838C115.152,107.284 115.822,107.939 116.3,107.524C117.896,106.088 119.779,104.684 121.359,103.12L128.874,108.082C127.566,109.295 126.369,110.683 125.124,111.96C125.032,112.063 124.983,112.198 124.988,112.336C124.992,112.474 125.048,112.606 125.146,112.704C125.244,112.801 125.376,112.858 125.514,112.862C125.652,112.866 125.787,112.817 125.89,112.726C127.262,111.449 128.762,110.22 130.039,108.864L136.597,113.156C135.098,114.384 133.866,115.904 132.975,117.624C132.921,117.749 132.915,117.89 132.958,118.019C133.001,118.148 133.089,118.258 133.207,118.326C133.325,118.395 133.463,118.418 133.597,118.392C133.73,118.365 133.85,118.291 133.932,118.183C135.017,116.585 136.354,115.173 137.889,114.002C140.044,115.422 142.214,116.794 144.384,118.215C142.774,119.233 141.528,120.736 140.825,122.507C140.554,123.177 141.623,123.592 141.958,123.001C142.797,121.521 143.972,120.258 145.389,119.316C145.498,119.244 145.586,119.145 145.644,119.028L153.096,123.815C151.456,124.783 150.153,126.231 149.362,127.964C149.325,128.026 149.301,128.094 149.291,128.165C149.281,128.236 149.285,128.309 149.303,128.379C149.32,128.448 149.352,128.514 149.395,128.571C149.438,128.629 149.492,128.677 149.554,128.714C149.615,128.751 149.684,128.775 149.755,128.785C149.826,128.795 149.899,128.791 149.968,128.773C150.038,128.756 150.103,128.724 150.161,128.681C150.218,128.638 150.267,128.584 150.304,128.522C150.798,127.716 151.393,126.976 152.075,126.32C152.745,125.698 153.543,125.251 154.245,124.725L154.245,124.645L160.181,128.475C159.798,128.969 159.447,129.48 159.08,129.958C158.346,130.916 157.612,131.857 156.894,132.815C156.542,133.293 157.324,133.884 157.707,133.453C158.489,132.543 159.303,131.602 160.021,130.692C160.42,130.182 160.883,129.703 161.297,129.193L168.047,133.533C167.68,133.995 167.361,134.522 167.042,134.969C166.42,135.83 165.813,136.692 165.207,137.57C164.824,138.128 165.717,138.83 166.148,138.304C166.834,137.49 167.489,136.708 168.143,135.83C168.567,135.362 168.966,134.872 169.34,134.362L177.445,139.564C177.328,139.501 177.192,139.481 177.061,139.507C176.929,139.533 176.812,139.604 176.727,139.708C175.499,141.304 174.382,142.899 173.233,144.383C172.85,144.91 173.712,145.58 174.126,145.085C175.355,143.585 176.648,142.117 177.812,140.554C177.862,140.483 177.896,140.404 177.913,140.32C177.93,140.236 177.93,140.149 177.912,140.065C177.894,139.981 177.859,139.902 177.809,139.832C177.759,139.762 177.695,139.704 177.621,139.66C180.068,141.245 182.52,142.814 184.977,144.367C183.193,146.395 181.531,148.526 179.998,150.75C179.584,151.308 180.509,152.026 180.972,151.5C182.859,149.48 184.622,147.348 186.253,145.117L195.444,150.989C195.643,151.17 195.899,151.275 196.167,151.286C196.435,151.298 196.699,151.215 196.912,151.053ZM177.445,169.594C177.604,169.687 177.793,169.714 177.971,169.667C178.149,169.621 178.302,169.506 178.395,169.347C178.488,169.188 178.514,168.999 178.468,168.821C178.421,168.643 178.306,168.491 178.147,168.398C176.476,167.353 174.727,166.441 172.914,165.669C172.808,165.629 172.691,165.627 172.585,165.664C172.478,165.702 172.388,165.776 172.33,165.873C172.273,165.971 172.252,166.086 172.271,166.197C172.29,166.309 172.348,166.41 172.435,166.483C174.02,167.652 175.695,168.692 177.445,169.594ZM175.116,171.876C175.271,171.947 175.446,171.957 175.609,171.906C175.771,171.854 175.908,171.744 175.994,171.597C176.08,171.449 176.107,171.275 176.072,171.109C176.036,170.942 175.94,170.795 175.802,170.695C173.046,169.095 170.43,167.264 167.983,165.222C167.892,165.131 167.769,165.08 167.64,165.08C167.512,165.08 167.388,165.131 167.297,165.222C167.206,165.313 167.155,165.437 167.155,165.565C167.155,165.694 167.206,165.817 167.297,165.908C169.502,168.374 172.156,170.399 175.116,171.876ZM71.271,78.435C71.894,78.994 72.867,78.036 72.181,77.526L69.293,75.228C68.75,74.797 67.984,75.531 68.527,76.01L71.271,78.435ZM69.676,81.244C70.282,81.77 71.128,80.94 70.553,80.366C69.161,78.953 67.422,77.929 65.511,77.398C64.984,77.27 64.602,78.068 65.128,78.324C66.772,79.073 68.298,80.057 69.66,81.244L69.676,81.244ZM63.15,89.748C64.539,89.55 65.8,88.824 66.67,87.722C67.54,86.621 67.953,85.227 67.825,83.828C67.729,83.233 67.49,82.669 67.129,82.185C66.768,81.701 66.295,81.313 65.75,81.052C65.676,80.969 65.58,80.907 65.474,80.873C65.367,80.839 65.253,80.835 65.144,80.861C64.682,80.744 64.196,80.753 63.739,80.888C63.281,81.023 62.868,81.278 62.543,81.626C61.695,81.897 60.933,82.386 60.334,83.044C59.734,83.702 59.319,84.507 59.128,85.376C58.983,85.946 58.982,86.544 59.125,87.115C59.268,87.685 59.551,88.211 59.949,88.645C60.346,89.079 60.845,89.407 61.402,89.6C61.958,89.792 62.553,89.843 63.134,89.748L63.15,89.748Z" transform="rotate(329.76 124.212 122.69)" fill="#A4CED4"/>
<path d="M89.319,180.187C89.478,180.28 89.593,180.432 89.64,180.61C89.686,180.788 89.66,180.977 89.567,181.136C89.474,181.295 89.321,181.41 89.143,181.456C88.965,181.503 88.776,181.476 88.617,181.383C86.867,180.481 85.191,179.441 83.607,178.272C83.52,178.199 83.462,178.098 83.443,177.986C83.424,177.875 83.445,177.76 83.502,177.662C83.559,177.565 83.65,177.491 83.756,177.453C83.863,177.416 83.98,177.418 84.086,177.458C85.898,178.23 87.648,179.142 89.319,180.187Z" transform="rotate(329.76 86.549 179.453)" fill="#222221"/>
<path d="M81.751,152.386C81.825,152.43 81.889,152.489 81.939,152.558C81.989,152.628 82.024,152.707 82.042,152.791C82.06,152.875 82.06,152.962 82.043,153.046C82.026,153.13 81.992,153.21 81.942,153.28C80.777,154.876 79.485,156.312 78.256,157.812C77.841,158.306 76.98,157.636 77.363,157.109C78.512,155.514 79.629,153.918 80.857,152.434C80.942,152.331 81.059,152.259 81.19,152.233C81.321,152.207 81.458,152.227 81.575,152.291C81.641,152.306 81.702,152.339 81.751,152.386Z" transform="rotate(329.76 79.661 155.103)" fill="#222221"/>
<path d="M94.577,181.475C94.715,181.575 94.811,181.722 94.847,181.889C94.882,182.056 94.854,182.229 94.769,182.377C94.683,182.524 94.546,182.634 94.384,182.686C94.221,182.737 94.046,182.727 93.891,182.656C90.93,181.179 88.277,179.154 86.072,176.688C85.981,176.597 85.93,176.474 85.93,176.345C85.93,176.217 85.981,176.093 86.072,176.002C86.163,175.911 86.286,175.86 86.415,175.86C86.544,175.86 86.667,175.911 86.758,176.002C89.205,178.044 91.82,179.875 94.577,181.475Z" transform="rotate(329.76 90.396 179.289)" fill="#222221"/>
<path d="M166.047,65.068C166.685,65.578 165.76,66.536 165.138,65.977L162.393,63.552C161.851,63.073 162.616,62.339 163.159,62.77L166.047,65.068Z" transform="rotate(329.76 164.235 64.393)" fill="#222221"/>
<path d="M170.14,67.195C170.714,67.769 169.868,68.599 169.262,68.072C167.895,66.884 166.363,65.901 164.714,65.152C164.188,64.897 164.571,64.099 165.097,64.227C167.009,64.758 168.747,65.782 170.14,67.195Z" transform="rotate(329.76 167.397 66.227)" fill="#222221"/>
<path d="M177.526,69.267C177.655,70.665 177.242,72.059 176.371,73.161C175.501,74.263 174.241,74.988 172.851,75.187C172.27,75.282 171.675,75.231 171.119,75.038C170.563,74.846 170.064,74.518 169.666,74.084C169.269,73.65 168.985,73.124 168.842,72.553C168.699,71.982 168.7,71.385 168.846,70.815C169.034,69.96 169.44,69.168 170.024,68.517C170.609,67.866 171.352,67.376 172.181,67.097C172.506,66.748 172.919,66.493 173.377,66.358C173.834,66.224 174.319,66.214 174.782,66.331C174.891,66.305 175.004,66.31 175.111,66.343C175.218,66.377 175.314,66.439 175.388,66.522C175.94,66.772 176.424,67.152 176.796,67.63C177.169,68.109 177.419,68.67 177.526,69.267ZM175.228,71.628C175.662,70.97 175.827,70.171 175.691,69.395C175.468,68.389 174.447,67.496 173.457,68.262C173.263,68.416 173.018,68.49 172.771,68.469C172.172,68.755 171.63,69.15 171.176,69.634C170.788,70.063 170.551,70.606 170.499,71.182C170.447,71.757 170.584,72.334 170.888,72.825C172.149,74.293 174.463,72.857 175.228,71.628Z" transform="rotate(329.76 173.143 70.742)" fill="#222221"/>
</svg>
