<svg width="82" height="92" viewBox="0 0 82 92" fill="none" xmlns="http://www.w3.org/2000/svg" xmlns:xlink="http://www.w3.org/1999/xlink">
<path d="M11.724,87.916C9.178,87.911 6.737,86.91 4.936,85.13C3.136,83.351 2.122,80.94 2.118,78.423L2.118,11.585C2.113,9.918 2.553,8.278 3.394,6.833C4.236,5.388 5.449,4.188 6.91,3.355C8.371,2.522 10.03,2.085 11.717,2.088C13.404,2.091 15.061,2.534 16.519,3.373L75.096,36.797C76.554,37.628 77.766,38.824 78.608,40.265C79.45,41.706 79.893,43.34 79.893,45.004C79.893,46.668 79.45,48.302 78.608,49.743C77.766,51.184 76.554,52.38 75.096,53.211L16.519,86.635C15.064,87.468 13.414,87.909 11.733,87.916L11.724,87.916Z" fill="#AA1070"/>
<path d="M18.152,78C15.991,77.997 13.92,77.226 12.392,75.858C10.864,74.49 10.004,72.636 10,70.701L10,19.303C9.996,18.021 10.369,16.76 11.083,15.649C11.797,14.538 12.826,13.615 14.067,12.975C15.307,12.334 16.714,11.998 18.146,12C19.577,12.002 20.983,12.343 22.221,12.988L71.929,38.691C73.167,39.33 74.195,40.25 74.909,41.358C75.624,42.466 76,43.722 76,45.002C76,46.281 75.624,47.538 74.909,48.646C74.195,49.754 73.167,50.674 71.929,51.313L22.221,77.015C20.986,77.656 19.586,77.995 18.159,78L18.152,78Z" fill="#CD3F97"/>
<path d="M11.724,4.185C13.034,4.189 14.32,4.536 15.451,5.19L74.028,38.588C75.165,39.237 76.108,40.17 76.764,41.293C77.42,42.417 77.766,43.691 77.766,44.987C77.766,46.284 77.42,47.558 76.764,48.682C76.108,49.805 75.165,50.738 74.028,51.387L15.451,84.802C14.316,85.457 13.025,85.805 11.71,85.808C10.395,85.812 9.103,85.472 7.964,84.822C6.825,84.173 5.88,83.237 5.225,82.111C4.571,80.984 4.229,79.706 4.235,78.407L4.235,11.585C4.235,9.622 5.024,7.74 6.429,6.353C7.833,4.965 9.738,4.185 11.724,4.185ZM11.724,0C8.616,0.004 5.636,1.226 3.439,3.398C1.241,5.57 0.004,8.514 0,11.585L0,78.424C-0.011,80.46 0.523,82.462 1.548,84.229C2.573,85.995 4.052,87.463 5.835,88.482C7.619,89.502 9.643,90.038 11.704,90.035C13.764,90.033 15.788,89.492 17.569,88.468L76.146,55.053C77.926,54.037 79.404,52.575 80.432,50.816C81.46,49.056 82.001,47.061 82.001,45.029C82.001,42.998 81.46,41.002 80.432,39.243C79.404,37.483 77.926,36.022 76.146,35.006L17.569,1.59C15.793,0.571 13.777,0.032 11.724,0.025L11.724,0Z" fill="#F8EBFD"/>
<g style="mix-blend-mode:screen">
<path d="M24.757,31.32C28.026,28.269 33.067,24.809 35.933,22.375C40.057,18.874 45.191,14.779 46.006,11.484C46.409,6.791 41.163,13.763 37.942,15.953C33.964,18.594 29.843,21.66 26.849,25.697C22.643,28.4 18.986,33.98 24.757,31.32Z" clip-rule="evenodd" fill-rule="evenodd" transform="rotate(139.19 33.901 20.957)" fill="url(#pf_0_0_775)" style="mix-blend-mode:screen"/>
</g>
<defs>
<radialGradient id="pf_0_0_775" cx="0" cy="0" r="1" gradientUnits="userSpaceOnUse" gradientTransform="matrix(21.780663 58.550868 -68.246529 25.387406 7.176 32.747)">
<stop stop-color="#FFFBD9"/>
<stop offset="1" stop-color="#000000"/>
</radialGradient>
</defs>
</svg>
