<svg width="350" height="200" viewBox="0 0 350 200" fill="none" xmlns="http://www.w3.org/2000/svg" xmlns:xlink="http://www.w3.org/1999/xlink">
<path d="M345.425,93.881C343.879,89.281 341.735,84.921 339.055,80.917C337.677,78.817 336.137,76.836 334.449,74.993C333.103,73.366 331.521,71.968 329.757,70.85C330.395,63.254 329.253,55.611 326.427,48.569C323.603,41.527 319.177,35.295 313.529,30.4C305.991,24.286 297.089,20.232 287.641,18.613C278.191,16.994 268.501,17.861 259.463,21.134C249.035,24.712 239.677,31.019 232.301,39.443C227.513,33.108 221.973,27.42 215.813,22.515C205.499,14.42 193.822,8.378 181.376,4.696C155.814,-2.809 128.43,0.308 105.055,13.383C100.274,16.002 95.684,18.979 91.323,22.293C74.578,13.784 53.313,16.19 36.827,24.253C18.963,33.162 3.337,50.179 0.151,70.939C-0.941,76.938 -0.735,83.114 0.754,89.022C2.242,94.93 4.977,100.423 8.761,105.107C9.176,105.562 9.717,105.874 10.31,105.998C8.123,109.534 6.468,113.395 5.403,117.447C3.38,123.976 3.3,130.984 5.173,137.561C7.046,144.138 10.785,149.981 15.906,154.332C18.596,156.444 21.628,158.043 24.86,159.054C26.551,159.816 28.375,160.209 30.219,160.209C32.063,160.209 33.888,159.816 35.578,159.054C41.244,168.91 49.857,176.588 60.115,180.927C66.147,183.441 72.607,184.67 79.108,184.54C85.61,184.409 92.019,182.923 97.952,180.17C101.12,186.237 106.35,190.873 112.631,193.178C120.164,196.15 128.088,197.923 136.135,198.434C153.581,200.026 171.158,197.919 187.79,192.242C197.394,188.888 206.595,184.404 215.211,178.878C215.387,178.78 215.537,178.64 215.649,178.469C215.761,178.299 215.833,178.103 215.857,177.898C224.423,183.729 234.329,187.11 244.569,187.698C260.003,188.43 275.111,182.937 286.711,172.374C289.599,169.764 292.249,166.886 294.631,163.776C298.147,164.578 301.791,164.578 305.307,163.776C309.511,163.041 313.617,161.784 317.531,160.034C325.545,156.39 332.579,150.778 338.021,143.685C343.195,136.693 346.585,128.466 347.879,119.763C349.171,111.059 348.329,102.159 345.425,93.881Z" fill="#AAAAAA"/>
<path d="M343.574,116.154C342.938,124.364 340.292,132.27 335.886,139.128C331.48,145.987 325.46,151.571 318.392,155.356C314.428,157.573 310.202,159.25 305.822,160.346C302.12,161.192 298.332,161.326 294.588,161.95C295.728,160.372 296.792,158.737 297.774,157.049C299.066,155.358 299.858,153.316 300.054,151.169C300.054,149.743 298.29,149.343 297.386,150.144C295.112,152.883 293.134,155.87 291.488,159.054C289.456,161.944 287.18,164.643 284.688,167.117C279.688,172.044 273.85,175.971 267.468,178.7C253.992,184.401 238.89,184.401 225.412,178.7C217.726,175.436 210.626,170.858 204.406,165.157C203.717,164.489 202.469,165.692 203.028,166.493C205.84,170.399 209.224,173.826 213.058,176.65L212.67,176.65C198.026,185.596 181.791,191.398 164.932,193.712C156.693,194.774 148.372,194.968 140.095,194.291C132.309,193.819 124.614,192.322 117.194,189.836C113.591,188.622 110.192,186.833 107.121,184.535C104.69,182.552 102.67,180.082 101.181,177.274L101.87,176.873C105.436,174.745 108.758,172.204 111.77,169.3C115.18,166.485 117.846,162.822 119.519,158.653C120.25,156.025 117.022,156.025 115.731,157.272C114.607,158.551 113.585,159.922 112.674,161.37C111.594,162.823 110.43,164.207 109.187,165.513C106.806,168.037 104.148,170.265 101.267,172.151C95.577,175.981 89.138,178.461 82.413,179.412C75.659,180.285 68.802,179.607 62.33,177.429C55.857,175.25 49.928,171.623 44.962,166.805C39.286,161.435 34.995,154.682 32.479,147.16C31.962,145.601 29.552,146.803 29.982,148.273C30.562,150.2 31.252,152.089 32.048,153.931C30.202,153.804 28.363,153.581 26.539,153.263C23.991,152.533 21.576,151.374 19.393,149.833C14.856,146.554 11.437,141.877 9.621,136.468C7.884,130.587 7.56,124.356 8.677,118.316C9.795,112.277 12.321,106.61 16.035,101.81C20.036,96.377 24.862,91.653 30.327,87.822C31.876,86.708 30.327,84.793 28.863,85.773C22.719,89.66 17.272,94.619 12.764,100.429C6.567,92.939 3.474,83.223 4.154,73.389C5.114,63.401 8.936,53.937 15.131,46.215C26.31,32.208 42.322,23.26 59.77,21.268C69.25,20.225 78.833,20.888 88.095,23.228C81.09,28.836 74.837,35.382 69.499,42.695C69.207,42.982 68.975,43.328 68.816,43.711C68.657,44.094 68.575,44.506 68.575,44.923C68.575,45.339 68.657,45.752 68.816,46.134C68.975,46.517 69.207,46.863 69.499,47.15C70.244,47.592 71.116,47.744 71.96,47.581C72.804,47.418 73.564,46.949 74.105,46.259C89.379,25.148 111.824,10.819 136.909,6.166C161.872,1.794 187.505,7.486 208.538,22.07C220.536,30.002 230.8,40.442 238.67,52.718C239.058,53.298 240.048,52.718 239.704,51.961C237.692,48.283 235.434,44.755 232.946,41.403C238.914,34.222 246.54,28.721 255.114,25.411C263.6,21.99 272.726,20.604 281.804,21.357C290.574,21.964 299.01,25.085 306.164,30.372C313.318,35.66 318.908,42.904 322.31,51.293C325.908,60.653 326.046,71.058 322.698,80.516C321.708,83.1 325.322,84.08 326.184,81.764C327.088,79.445 327.778,77.044 328.25,74.591L329.972,76.329C331.424,77.883 332.776,79.535 334.018,81.274C336.352,84.542 338.302,88.087 339.83,91.831C342.88,99.53 344.162,107.856 343.574,116.154Z" fill="#FFFFFF"/>
<g style="mix-blend-mode:multiply">
<path d="M342.67,102.479C341.544,109.918 338.936,117.033 335.008,123.371C330.968,129.55 325.626,134.699 319.382,138.429C308.836,145.022 291.36,151.793 281.416,141.28C276.168,144.663 270.468,147.23 264.498,148.897C248.634,153.227 231.856,152.277 216.544,146.18C208.8,143.003 201.548,138.665 195.022,133.306C190.717,129.875 184.433,125.243 183.227,119.273C180.945,121.678 178.499,123.911 175.909,125.955C170.577,130.313 164.482,133.565 157.959,135.533C153.006,136.788 147.945,137.534 142.85,137.76C137.069,138.223 131.254,137.711 125.631,136.246C123.336,135.795 121.178,134.784 119.336,133.296C117.494,131.809 116.022,129.888 115.042,127.693C113.66,128.605 112.222,129.424 110.737,130.143C98.943,135.667 80.002,136.736 70.661,126.846C65.187,127.137 59.736,125.923 54.863,123.327C46.254,118.872 36.181,111.121 34.072,100.697C33.252,94.462 34.304,88.117 37.085,82.521C38.526,78.802 40.484,75.32 42.896,72.186C38.728,72.431 34.546,72.117 30.456,71.251C22.32,69.513 12.678,65.014 8.416,57.129C5.994,62.216 4.533,67.735 4.112,73.389C3.443,83.23 6.552,92.946 12.764,100.429C17.394,94.667 22.958,89.783 29.208,85.996C30.757,85.016 32.221,86.931 30.671,88.045C25.207,91.876 20.38,96.6 16.38,102.033C12.665,106.833 10.14,112.5 9.022,118.54C7.904,124.579 8.228,130.81 9.966,136.691C11.781,142.1 15.201,146.777 19.737,150.056C21.921,151.597 24.335,152.756 26.883,153.486C28.708,153.804 30.547,154.027 32.393,154.154C31.596,152.312 30.906,150.423 30.327,148.496C29.896,147.026 32.307,145.824 32.823,147.383C35.339,154.905 39.63,161.658 45.307,167.028C50.272,171.846 56.202,175.473 62.674,177.652C69.147,179.83 76.003,180.508 82.757,179.635C89.482,178.684 95.921,176.204 101.611,172.374C104.492,170.488 107.151,168.261 109.532,165.736C110.774,164.43 111.938,163.046 113.019,161.593C113.93,160.145 114.952,158.774 116.075,157.495C117.366,156.248 120.595,156.248 119.863,158.876C118.191,163.045 115.525,166.708 112.115,169.523C109.066,172.467 105.701,175.038 102.085,177.185L101.396,177.586C102.886,180.394 104.906,182.864 107.337,184.847C110.408,187.145 113.806,188.934 117.409,190.149C124.829,192.634 132.525,194.131 140.31,194.603C148.587,195.28 156.909,195.086 165.148,194.024C182.006,191.71 198.241,185.908 212.886,176.962L213.274,176.962C209.44,174.138 206.056,170.711 203.244,166.806C202.684,166.004 203.933,164.801 204.62,165.469C210.784,170.966 217.778,175.376 225.326,178.522C238.804,184.223 253.904,184.223 267.382,178.522C273.764,175.793 279.6,171.866 284.6,166.939C287.094,164.465 289.37,161.767 291.402,158.876C293.048,155.692 295.026,152.705 297.3,149.967C298.204,149.165 299.968,149.566 299.968,150.991C299.772,153.138 298.98,155.18 297.686,156.871C296.706,158.559 295.642,160.194 294.502,161.772C298.246,161.148 302.034,161.014 305.736,160.168C310.138,159.136 314.392,157.518 318.392,155.357C325.46,151.572 331.48,145.987 335.886,139.128C340.292,132.27 342.938,124.364 343.574,116.155C343.848,111.575 343.544,106.977 342.67,102.479Z" fill="#EDEDED"/>
</g>
</svg>
