<svg width="370" height="204" viewBox="0 0 370 204" fill="none" xmlns="http://www.w3.org/2000/svg" xmlns:xlink="http://www.w3.org/1999/xlink">
<path d="M145.404,201.969C153.056,201.563 160.572,199.778 167.589,196.702C173.742,194.046 179.555,190.666 184.906,186.634C188.869,189.834 193.37,192.304 198.199,193.928C203.521,195.878 209.131,196.931 214.799,197.044C225.745,197.116 236.439,193.759 245.377,187.445C250.443,184.17 254.665,179.75 257.701,174.541C257.763,174.46 257.795,174.362 257.795,174.261C257.795,174.159 257.763,174.061 257.701,173.98C264.655,175.765 271.739,176.995 278.889,177.658C295.479,179.232 312.221,177.646 328.219,172.983C342.385,168.837 356.895,161.575 364.633,148.422C368.261,142.052 370.079,134.813 369.893,127.486C369.705,120.159 367.519,113.022 363.571,106.844C359.601,101.023 354.131,96.38 347.739,93.407C341.345,90.433 334.267,89.239 327.253,89.951C325.885,90.126 324.537,90.429 323.227,90.855C324.299,83.975 323.849,76.943 321.909,70.255C319.969,63.567 316.583,57.385 311.995,52.144C307.015,46.633 300.771,42.412 293.797,39.844C286.823,37.276 279.331,36.438 271.961,37.402C267.745,37.907 263.613,38.954 259.667,40.519C256.483,41.746 253.495,43.437 250.805,45.537C248.347,35.72 242.895,26.909 235.205,20.322C225.417,12.17 213.837,6.446 201.413,3.616C177.106,-2.618 149.46,-1.589 128.742,13.995C118.786,21.2 111.491,31.488 107.992,43.261C107.954,43.31 107.934,43.371 107.934,43.433C107.934,43.495 107.954,43.555 107.992,43.604C86.868,42.544 65.182,44.633 45.774,53.453C28.145,61.495 12.606,75.115 5.024,93.504C1.12,102.631 -0.528,112.562 0.218,122.459C1.052,131.508 4.106,140.211 9.111,147.799C19.386,162.593 34.378,173.47 51.64,178.655C69.083,184.265 87.523,185.076 105.777,184.577C106.991,186.501 108.472,188.243 110.176,189.751C112.156,191.626 114.32,193.297 116.635,194.738C118.929,196.167 121.34,197.397 123.843,198.416C130.693,201.125 138.045,202.337 145.404,201.969Z" fill="#AAAAAA"/>
<path d="M362.012,144.183C355.772,157.305 342.23,164.786 329,169.118C314.056,173.879 298.348,175.793 282.696,174.759C267.052,173.812 251.71,170.031 237.42,163.601L232.086,161.045C231.056,160.547 229.652,162.386 230.744,162.978C238.812,167.25 247.36,170.556 256.204,172.827C256.066,172.857 255.938,172.921 255.83,173.014C252.518,176.837 248.884,180.372 244.972,183.58C240.952,186.635 236.492,189.062 231.742,190.78C221.696,194.374 210.76,194.658 200.539,191.59C195.382,189.98 190.462,187.695 185.905,184.795C186.018,184.743 186.118,184.667 186.197,184.572C186.277,184.477 186.335,184.365 186.366,184.245C186.398,184.125 186.403,184 186.38,183.878C186.357,183.756 186.308,183.64 186.235,183.539C186.162,183.439 186.068,183.355 185.96,183.295C185.851,183.235 185.73,183.2 185.606,183.192C185.482,183.184 185.358,183.203 185.242,183.249C185.127,183.294 185.023,183.365 184.938,183.455L184.251,183.954C183.877,183.705 183.346,184.203 183.596,184.577C174.421,191.588 163.738,196.368 152.393,198.541C141.46,200.402 130.217,198.536 120.473,193.242C117.989,191.834 115.657,190.173 113.515,188.286C111.847,186.709 110.264,185.044 108.772,183.299C112.454,183.299 116.105,183.019 119.755,182.832C122.564,182.832 125.403,182.489 128.211,182.271C129.335,182.271 129.803,180.12 128.461,180.183C106.619,181.024 84.777,182.489 63.31,177.502C45.786,173.912 29.887,164.775 17.973,151.446C12.473,145.068 8.503,137.521 6.365,129.379C4.089,120.058 4.272,110.307 6.896,101.078C9.651,91.991 14.194,83.544 20.259,76.233C26.324,68.922 33.79,62.894 42.217,58.503C60.72,48.279 82.094,44.976 103.031,45.287C105.683,45.287 108.335,45.287 110.988,45.599C111.674,45.599 112.08,44.508 111.268,44.446L109.615,44.446C109.739,44.374 109.837,44.265 109.895,44.134C116.854,23.065 136.605,8.852 157.885,4.8C170.443,2.594 183.319,2.955 195.734,5.86C207.652,8.137 218.968,12.86 228.964,19.73C234.25,23.364 238.73,28.045 242.128,33.482C245.526,38.918 247.768,44.995 248.716,51.334C248.716,52.612 250.9,52.113 250.776,50.96C250.65,49.807 250.464,48.653 250.244,47.531C252.804,46.098 255.238,44.415 257.984,43.261C261.248,41.823 264.674,40.777 268.186,40.145C275.306,38.865 282.626,39.271 289.56,41.329C296.206,43.446 302.25,47.115 307.194,52.031C312.138,56.947 315.836,62.969 317.986,69.598C320.526,77.018 321.032,84.982 319.452,92.663C319.234,93.847 321.012,93.816 321.2,92.663C321.312,92.222 321.396,91.774 321.45,91.323C327.892,90.595 334.416,91.264 340.576,93.286C346.99,95.521 352.696,99.415 357.114,104.569C361.568,110.048 364.39,116.668 365.256,123.674C366.122,130.679 364.998,137.786 362.012,144.183Z" fill="#FFFFFF"/>
<g style="mix-blend-mode:multiply">
<path d="M357.114,104.694C352.914,99.798 347.548,96.037 341.512,93.754C345.41,98.309 348.026,103.816 349.094,109.712C354.18,137.14 328.814,153.69 305.412,158.49C279.732,163.757 248.186,160.765 226.562,144.776C222.77,150.786 216.742,155.046 209.806,156.62C204.798,157.48 199.652,157.053 194.854,155.379C190.055,153.705 185.763,150.839 182.379,147.051C166.279,165.347 126.87,156.059 130.302,130.158C115.956,136.798 100.028,139.272 84.341,137.295C69.057,135.252 54.502,129.518 41.936,120.589C31.795,113.452 20.999,103.198 21.155,89.889C21.155,80.102 26.897,71.001 33.886,63.801C20.861,72.807 11.331,86.012 6.896,101.203C4.272,110.432 4.089,120.183 6.365,129.503C8.503,137.645 12.473,145.193 17.973,151.57C29.842,164.882 45.682,174.028 63.154,177.658C84.559,182.645 106.557,181.18 128.305,180.338C129.647,180.338 129.179,182.364 128.055,182.427C125.247,182.645 122.408,182.863 119.599,182.988C115.949,183.175 112.298,183.331 108.616,183.455C110.163,185.151 111.798,186.763 113.515,188.286C115.657,190.173 117.989,191.834 120.473,193.242C130.208,198.462 141.414,200.272 152.3,198.385C163.645,196.212 174.327,191.432 183.502,184.421C183.253,184.047 183.783,183.549 184.158,183.798L184.844,183.299C184.929,183.209 185.033,183.138 185.149,183.093C185.264,183.047 185.389,183.028 185.513,183.036C185.637,183.044 185.757,183.079 185.866,183.139C185.975,183.2 186.069,183.283 186.141,183.384C186.214,183.484 186.264,183.6 186.286,183.722C186.309,183.844 186.304,183.969 186.273,184.089C186.241,184.209 186.184,184.321 186.104,184.416C186.024,184.511 185.924,184.588 185.811,184.64C190.368,187.539 195.289,189.824 200.445,191.434C210.666,194.502 221.602,194.218 231.648,190.624C236.398,188.906 240.858,186.479 244.878,183.424C248.792,180.216 252.424,176.681 255.736,172.858C255.844,172.765 255.972,172.701 256.112,172.671C247.266,170.4 238.72,167.094 230.65,162.822C229.558,162.23 230.962,160.391 231.992,160.89L237.358,163.414C251.648,169.844 266.99,173.625 282.634,174.572C298.286,175.606 313.994,173.692 328.938,168.931C342.168,164.63 355.772,157.149 361.95,143.997C364.882,137.644 365.982,130.601 365.128,123.658C364.274,116.715 361.498,110.148 357.114,104.694Z" fill="#EDEDED"/>
</g>
</svg>
