<svg width="362" height="218" viewBox="0 0 362 218" fill="none" xmlns="http://www.w3.org/2000/svg" xmlns:xlink="http://www.w3.org/1999/xlink">
<path d="M358.788,101.769C357.182,96.746 354.96,91.984 352.18,87.612C350.752,85.318 349.154,83.155 347.404,81.142C346.008,79.366 344.366,77.84 342.538,76.618C343.2,68.323 342.016,59.976 339.086,52.286C336.156,44.596 331.566,37.79 325.708,32.445C317.892,25.768 308.658,21.342 298.86,19.573C289.062,17.805 279.012,18.752 269.638,22.327C258.824,26.233 249.12,33.121 241.468,42.321C236.504,35.402 230.76,29.191 224.372,23.835C213.676,14.994 201.566,8.396 188.657,4.376C162.147,-3.82 133.749,-0.416 109.507,13.862C104.549,16.721 99.789,19.973 95.267,23.592C77.901,14.3 55.848,16.927 38.75,25.732C20.224,35.462 4.019,54.045 0.715,76.715C-0.417,83.267 -0.204,90.011 1.34,96.463C2.884,102.914 5.72,108.913 9.644,114.028C10.074,114.526 10.636,114.865 11.251,115.001C8.982,118.863 7.266,123.079 6.162,127.503C4.064,134.634 3.981,142.287 5.924,149.469C7.866,156.652 11.744,163.032 17.054,167.784C19.844,170.09 22.988,171.837 26.34,172.941C28.093,173.772 29.985,174.201 31.898,174.201C33.81,174.201 35.702,173.772 37.456,172.941C43.332,183.703 52.264,192.088 62.901,196.827C69.157,199.572 75.856,200.914 82.599,200.772C89.341,200.63 95.988,199.007 102.142,196C105.426,202.626 110.851,207.688 117.364,210.204C125.176,213.452 133.394,215.386 141.739,215.946C159.832,217.684 178.06,215.384 195.309,209.184C205.27,205.52 214.812,200.624 223.746,194.589C223.928,194.482 224.084,194.329 224.2,194.142C224.316,193.956 224.39,193.742 224.416,193.519C233.3,199.887 243.574,203.58 254.192,204.222C270.198,205.02 285.866,199.021 297.896,187.486C300.89,184.636 303.64,181.493 306.11,178.097C309.756,178.973 313.534,178.973 317.182,178.097C321.542,177.294 325.8,175.922 329.86,174.011C338.17,170.032 345.464,163.903 351.11,156.157C356.474,148.522 359.988,139.538 361.33,130.033C362.672,120.528 361.798,110.808 358.788,101.769Z" fill="#AAAAAA"/>
<path d="M356.867,126.093C356.207,135.058 353.463,143.691 348.893,151.181C344.325,158.671 338.081,164.769 330.751,168.903C326.639,171.323 322.259,173.154 317.717,174.352C313.877,175.276 309.949,175.422 306.065,176.103C307.247,174.38 308.351,172.594 309.369,170.752C310.709,168.904 311.531,166.674 311.735,164.33C311.735,162.773 309.905,162.336 308.967,163.211C306.609,166.202 304.557,169.464 302.851,172.941C300.743,176.097 298.383,179.044 295.797,181.746C290.611,187.126 284.557,191.415 277.941,194.394C263.963,200.621 248.303,200.621 234.325,194.394C226.355,190.83 218.991,185.831 212.541,179.605C211.827,178.876 210.531,180.189 211.111,181.065C214.027,185.33 217.537,189.072 221.513,192.157L221.111,192.157C205.923,201.925 189.087,208.262 171.604,210.788C163.06,211.948 154.429,212.16 145.846,211.422C137.772,210.906 129.791,209.27 122.096,206.556C118.359,205.23 114.835,203.277 111.65,200.767C109.129,198.601 107.034,195.905 105.49,192.838L106.204,192.4C109.903,190.076 113.347,187.301 116.472,184.13C120.008,181.056 122.772,177.056 124.507,172.503C125.266,169.633 121.918,169.633 120.579,170.995C119.414,172.392 118.354,173.889 117.409,175.47C116.289,177.057 115.081,178.568 113.793,179.995C111.323,182.751 108.567,185.184 105.579,187.243C99.678,191.426 93,194.134 86.026,195.173C79.022,196.126 71.911,195.386 65.199,193.007C58.486,190.627 52.337,186.666 47.187,181.405C41.3,175.54 36.85,168.166 34.241,159.952C33.706,158.249 31.206,159.563 31.652,161.168C32.253,163.272 32.969,165.335 33.795,167.346C31.88,167.208 29.973,166.964 28.081,166.617C25.439,165.82 22.935,164.554 20.67,162.871C15.966,159.291 12.419,154.183 10.537,148.276C8.735,141.854 8.399,135.05 9.558,128.454C10.717,121.858 13.336,115.67 17.188,110.428C21.337,104.495 26.343,99.337 32.009,95.153C33.616,93.937 32.009,91.845 30.492,92.915C24.12,97.16 18.471,102.575 13.795,108.92C7.37,100.741 4.162,90.131 4.867,79.391C5.862,68.484 9.826,58.149 16.251,49.716C27.844,34.42 44.449,24.648 62.544,22.473C72.376,21.334 82.314,22.058 91.919,24.613C84.654,30.737 78.169,37.886 72.633,45.872C72.331,46.186 72.09,46.563 71.925,46.981C71.761,47.4 71.676,47.85 71.676,48.305C71.676,48.76 71.761,49.21 71.925,49.628C72.09,50.046 72.331,50.424 72.633,50.737C73.406,51.219 74.311,51.386 75.186,51.208C76.061,51.03 76.849,50.518 77.41,49.764C93.251,26.71 116.528,11.063 142.542,5.981C168.43,1.207 195.013,7.422 216.825,23.348C229.269,32.011 239.911,43.411 248.075,56.818C248.477,57.451 249.503,56.818 249.147,55.991C247.061,51.974 244.719,48.121 242.137,44.462C248.327,36.62 256.235,30.612 265.129,26.997C273.929,23.261 283.391,21.748 292.807,22.57C301.903,23.232 310.651,26.642 318.071,32.415C325.489,38.189 331.287,46.1 334.815,55.261C338.547,65.483 338.689,76.845 335.215,87.174C334.189,89.996 337.939,91.066 338.831,88.537C339.769,86.004 340.487,83.382 340.975,80.704L342.761,82.602C344.267,84.299 345.669,86.103 346.957,88.001C349.377,91.571 351.401,95.442 352.983,99.531C356.147,107.938 357.475,117.031 356.867,126.093Z" fill="#FFFFFF"/>
<g style="mix-blend-mode:multiply">
<path d="M355.93,111.158C354.762,119.282 352.056,127.052 347.984,133.974C343.794,140.721 338.254,146.343 331.778,150.417C320.842,157.617 302.716,165.011 292.404,153.53C286.962,157.225 281.052,160.028 274.86,161.849C258.41,166.577 241.008,165.539 225.13,158.881C217.098,155.412 209.576,150.675 202.809,144.822C198.344,141.076 191.827,136.017 190.577,129.498C188.21,132.124 185.674,134.563 182.988,136.795C177.458,141.554 171.137,145.105 164.372,147.255C159.235,148.625 153.987,149.44 148.703,149.687C142.708,150.192 136.677,149.633 130.846,148.033C128.466,147.541 126.227,146.437 124.317,144.812C122.407,143.187 120.881,141.089 119.864,138.692C118.431,139.689 116.94,140.583 115.4,141.368C103.168,147.4 83.526,148.568 73.839,137.768C68.162,138.086 62.509,136.76 57.455,133.925C48.527,129.06 38.081,120.595 35.893,109.212C35.043,102.403 36.134,95.474 39.018,89.364C40.513,85.302 42.543,81.5 45.045,78.077C40.722,78.345 36.385,78.001 32.143,77.056C23.706,75.158 13.706,70.245 9.287,61.634C6.775,67.19 5.26,73.216 4.822,79.391C4.129,90.137 7.353,100.748 13.795,108.92C18.597,102.627 24.368,97.293 30.849,93.158C32.456,92.088 33.974,94.18 32.366,95.396C26.7,99.58 21.694,104.739 17.545,110.671C13.693,115.913 11.074,122.101 9.915,128.697C8.756,135.293 9.092,142.097 10.894,148.519C12.776,154.426 16.323,159.534 21.027,163.114C23.292,164.797 25.796,166.063 28.438,166.86C30.33,167.207 32.237,167.451 34.152,167.589C33.326,165.578 32.611,163.515 32.009,161.411C31.563,159.806 34.063,158.492 34.599,160.195C37.207,168.409 41.657,175.784 47.545,181.649C52.694,186.909 58.843,190.87 65.556,193.25C72.268,195.629 79.379,196.369 86.383,195.416C93.358,194.377 100.035,191.669 105.936,187.486C108.924,185.427 111.68,182.994 114.15,180.238C115.438,178.811 116.646,177.3 117.766,175.714C118.711,174.132 119.771,172.635 120.936,171.238C122.275,169.876 125.623,169.876 124.864,172.746C123.13,177.299 120.365,181.299 116.829,184.373C113.667,187.587 110.177,190.395 106.427,192.74L105.713,193.178C107.257,196.245 109.353,198.942 111.873,201.108C115.058,203.617 118.583,205.571 122.32,206.897C130.014,209.611 137.995,211.246 146.069,211.762C154.653,212.501 163.283,212.289 171.827,211.129C189.31,208.602 206.148,202.266 221.336,192.497L221.736,192.497C217.76,189.412 214.252,185.67 211.336,181.405C210.754,180.53 212.05,179.216 212.764,179.946C219.156,185.949 226.41,190.765 234.236,194.2C248.214,200.426 263.874,200.426 277.852,194.2C284.468,191.22 290.522,186.932 295.708,181.551C298.294,178.849 300.654,175.903 302.762,172.746C304.468,169.269 306.52,166.007 308.878,163.016C309.814,162.141 311.646,162.579 311.646,164.135C311.442,166.48 310.62,168.71 309.28,170.557C308.26,172.4 307.158,174.186 305.976,175.908C309.86,175.227 313.788,175.081 317.628,174.157C322.192,173.029 326.604,171.263 330.752,168.903C338.082,164.769 344.324,158.671 348.894,151.181C353.462,143.691 356.206,135.057 356.868,126.093C357.15,121.091 356.836,116.071 355.93,111.158Z" fill="#EDEDED"/>
</g>
</svg>
