<svg width="82" height="92" viewBox="0 0 82 92" fill="none" xmlns="http://www.w3.org/2000/svg" xmlns:xlink="http://www.w3.org/1999/xlink">
<path d="M11.713,87.916C9.167,87.911 6.726,86.91 4.925,85.13C3.125,83.351 2.111,80.94 2.107,78.423L2.107,11.585C2.102,9.918 2.542,8.278 3.383,6.833C4.225,5.388 5.438,4.188 6.899,3.355C8.36,2.522 10.019,2.085 11.706,2.088C13.393,2.091 15.05,2.534 16.508,3.373L75.085,36.797C76.543,37.628 77.755,38.824 78.597,40.265C79.439,41.706 79.882,43.34 79.882,45.004C79.882,46.668 79.439,48.302 78.597,49.743C77.755,51.184 76.543,52.38 75.085,53.211L16.508,86.635C15.053,87.468 13.403,87.909 11.722,87.916L11.713,87.916Z" transform="rotate(360 40.995 45.002)" fill="#AA1070"/>
<path d="M14.152,78C11.991,77.997 9.92,77.226 8.392,75.858C6.864,74.49 6.004,72.636 6,70.701L6,19.303C5.996,18.021 6.369,16.76 7.083,15.649C7.797,14.538 8.826,13.615 10.067,12.975C11.307,12.334 12.714,11.998 14.146,12C15.577,12.002 16.983,12.343 18.221,12.988L67.929,38.691C69.167,39.33 70.195,40.25 70.909,41.358C71.624,42.466 72,43.722 72,45.002C72,46.281 71.624,47.538 70.909,48.646C70.195,49.754 69.167,50.674 67.929,51.313L18.221,77.015C16.986,77.656 15.586,77.995 14.159,78L14.152,78Z" transform="rotate(360 39 45)" fill="#CD3F97"/>
<path d="M11.723,4.185C13.034,4.189 14.32,4.536 15.451,5.19L74.028,38.588C75.164,39.237 76.108,40.17 76.764,41.293C77.42,42.417 77.765,43.691 77.765,44.987C77.765,46.284 77.42,47.558 76.764,48.682C76.108,49.805 75.164,50.738 74.028,51.387L15.451,84.802C14.315,85.457 13.025,85.805 11.71,85.808C10.395,85.812 9.102,85.472 7.964,84.822C6.825,84.173 5.88,83.237 5.225,82.111C4.57,80.984 4.229,79.706 4.235,78.407L4.235,11.585C4.235,9.622 5.024,7.74 6.428,6.353C7.832,4.965 9.737,4.185 11.723,4.185ZM11.723,0C8.615,0.004 5.636,1.226 3.438,3.398C1.24,5.57 0.004,8.514 -0.001,11.585L-0.001,78.424C-0.011,80.46 0.523,82.462 1.547,84.229C2.572,85.995 4.051,87.463 5.835,88.482C7.618,89.502 9.643,90.038 11.703,90.035C13.764,90.033 15.787,89.492 17.568,88.468L76.146,55.053C77.926,54.037 79.404,52.575 80.432,50.816C81.459,49.056 82,47.061 82,45.029C82,42.998 81.459,41.002 80.432,39.243C79.404,37.483 77.926,36.022 76.146,35.006L17.568,1.59C15.792,0.571 13.777,0.032 11.723,0.025L11.723,0Z" transform="rotate(360 41 45.018)" fill="#F8EBFD"/>
<g style="mix-blend-mode:screen">
<path d="M38.955,31.32C42.224,28.269 47.265,24.809 50.131,22.375C54.255,18.874 59.39,14.779 60.205,11.484C60.607,6.791 55.361,13.763 52.14,15.953C48.162,18.594 44.041,21.66 41.047,25.697C36.841,28.4 33.185,33.98 38.955,31.32Z" clip-rule="evenodd" fill-rule="evenodd" transform="rotate(220.81 48.099 20.957)" fill="#CD3F97"/>
</g>
</svg>
