<svg width="1998" height="246" viewBox="0 0 1998 246" fill="none" xmlns="http://www.w3.org/2000/svg" xmlns:xlink="http://www.w3.org/1999/xlink">
<g style="mix-blend-mode:multiply">
<path d="M240.78,243.866C644.62,242.054 1569.896,240.978 1935.1,243.866C1943.79,244.19 1952.866,243.928 1960.482,243.132C1966.686,242.152 1966.122,240.242 1966.404,238.822C1966.404,233.926 1968.378,228.54 1966.404,224.72L1887.158,223.692L1966.404,220.46C1959.072,194.345 1953.996,168.066 1951.174,141.624L1908.31,139.028L1950.894,136.531C1947.508,98.973 1963.302,63.864 1970.916,26.404C1950.686,17.819 1925.456,9.615 1895.62,1.921C1893.114,1.206 1889.594,0.615 1885.398,0.203C1881.2,-0.208 1876.468,-0.426 1871.648,-0.43C1710.056,2.068 354.148,4.859 63.113,2.312C55.634,2.312 48.461,2.828 43.172,3.747C37.884,4.665 34.912,5.911 34.912,7.209C33.22,18.227 40.271,25.425 42.527,35.904L73.83,39.332L59.729,42.563L62.267,45.061L44.501,47.215C51.269,86.389 50.611,125.35 42.527,164.1L66.215,166.205L54.371,169.976L87.648,172.914L39.989,175.019C36.322,190.591 22.504,206.26 21.94,221.39C85.279,231.5 160.253,239.162 241.908,243.866L240.78,243.866Z" clip-rule="evenodd" fill-rule="evenodd" fill="url(#pf_0_0_240)" style="mix-blend-mode:multiply"/>
</g>
<path d="M241.909,237.01C301.977,239.558 1764.765,238.284 1996.015,235.492C1994.041,230.596 1992.349,225.258 1990.657,220.118L1908.027,218.942L1989.529,215.808C1981.819,190.868 1976.555,165.813 1973.735,140.644L1929.743,138.147L1973.171,135.797C1969.787,99.953 1967.531,38.45 1973.735,2.508L1874.185,2.508C1859.803,1.431 245.011,3.488 8.403,5.006C12.351,16.562 15.641,28.102 18.273,39.625L50.141,42.906L35.758,45.991L38.578,48.341L20.247,50.398C27.392,87.711 26.734,124.861 18.273,161.847L42.526,163.904L30.4,167.478L64.523,170.318L15.735,172.326C11.787,187.669 6.523,202.996 -0.057,218.306L241.909,236.816L241.909,237.01Z" clip-rule="evenodd" fill-rule="evenodd" fill="url(#pf_0_0_241)"/>
<g style="mix-blend-mode:multiply">
<path d="M241.909,237.012L-0.339,218.502C27.578,213.651 58.946,209.438 93.006,205.966C102.877,205.966 216.809,233.192 241.909,237.012Z" clip-rule="evenodd" fill-rule="evenodd" fill="url(#pf_0_0_242)" style="mix-blend-mode:multiply"/>
</g>
<path d="M78.624,210.275C130.151,219.707 184.664,228.633 241.909,237.011C224.141,237.011 -0.339,221.587 -0.339,218.502C24.322,215.306 50.777,212.55 78.624,210.275Z" clip-rule="evenodd" fill-rule="evenodd" fill="url(#pf_0_0_243)"/>
<g style="mix-blend-mode:screen">
<path d="M1872.775,16.365C1885.184,21.262 1938.202,24.69 1970.633,26.159L1974.017,26.159C1976.411,26.792 1978.219,27.486 1979.375,28.215C1978.256,28.18 1977.11,28.18 1975.991,28.215C1935.664,25.033 1895.336,21.948 1856.419,18.422C1864.044,13.361 1869.976,8.227 1874.185,3.046C1875.108,3.003 1876.082,3.003 1877.005,3.046L1877.005,3.34C1868.513,7.561 1867.24,12.119 1873.339,16.463L1872.775,16.365Z" clip-rule="evenodd" fill-rule="evenodd" fill="url(#pf_0_0_244)" style="mix-blend-mode:screen"/>
</g>
<defs>
<radialGradient id="pf_0_0_240" cx="0" cy="0" r="1" gradientUnits="userSpaceOnUse" gradientTransform="matrix(893.832963 0 0 155.200961 479.39 80.091)">
<stop stop-color="#706F6F"/>
<stop offset="1" stop-color="#FFFFFF"/>
</radialGradient>
<linearGradient id="pf_0_0_241" x1="997.978" y1="238.383" x2="997.978" y2="2.41" gradientUnits="userSpaceOnUse">
<stop stop-color="#FFF7ED"/>
<stop offset="1" stop-color="#FFFAF4"/>
</linearGradient>
<radialGradient id="pf_0_0_242" cx="0" cy="0" r="1" gradientUnits="userSpaceOnUse" gradientTransform="matrix(142.133371 0 0 24.679389 41.004 120.66)">
<stop stop-color="#A48A7B"/>
<stop offset="1" stop-color="#FFFFFF"/>
</radialGradient>
<linearGradient id="pf_0_0_243" x1="117.823" y1="229.03" x2="151.947" y2="215.074" gradientUnits="userSpaceOnUse">
<stop stop-color="#BF9F7E"/>
<stop offset="1" stop-color="#EDD6B9"/>
</linearGradient>
<radialGradient id="pf_0_0_244" cx="0" cy="0" r="1" gradientUnits="userSpaceOnUse" gradientTransform="matrix(75.578743 0 0 13.123158 981.227 4.045)">
<stop stop-color="#000000"/>
<stop offset="1" stop-color="#A3805F"/>
</radialGradient>
</defs>
</svg>
