<svg width="20" height="10" viewBox="0 0 20 10" fill="none" xmlns="http://www.w3.org/2000/svg" xmlns:xlink="http://www.w3.org/1999/xlink">
<path d="M10.053,8.016C10.116,7.923 10.186,7.835 10.264,7.752C12.957,5.278 15.653,2.806 18.351,0.335C18.6,0.106 18.872,-0.039 19.233,0.009C19.39,0.032 19.538,0.093 19.661,0.184C19.785,0.276 19.88,0.395 19.938,0.531C19.996,0.667 20.014,0.814 19.99,0.958C19.966,1.102 19.902,1.238 19.803,1.352C19.736,1.425 19.665,1.495 19.588,1.56L10.791,9.616C10.232,10.13 9.773,10.128 9.21,9.612C6.264,6.913 3.317,4.216 0.37,1.519C0.113,1.284 -0.05,1.026 0.014,0.684C0.042,0.543 0.11,0.411 0.21,0.3C0.311,0.19 0.44,0.105 0.587,0.055C0.733,0.004 0.892,-0.012 1.046,0.009C1.201,0.031 1.348,0.089 1.471,0.177C1.558,0.244 1.64,0.316 1.717,0.393L9.772,7.772C9.844,7.838 9.92,7.901 10.053,8.016Z" fill="#FFFFFF"/>
</svg>
