<svg width="306" height="82" viewBox="0 0 306 82" fill="none" xmlns="http://www.w3.org/2000/svg" xmlns:xlink="http://www.w3.org/1999/xlink">
<path d="M22.902,10.603L23.161,10.603C99.063,2.414 175.649,-2.692 251.958,1.496C262.862,2.087 319.012,0.453 303.22,21.952C299.518,27.09 290.65,30.001 290.538,36.041C290.538,39.684 293.798,42.642 295.982,45.771C298.166,48.901 298.74,53.804 294.89,55.455C292.63,56.435 289.336,56.046 288.114,57.961C286.892,59.876 288.854,61.573 289.964,63.208C291.392,65.292 291.982,67.708 291.65,70.097C291.316,72.486 290.076,74.721 288.114,76.472C283.226,80.597 275.47,80.768 268.546,80.675C187.67,79.637 106.783,80.068 25.882,81.967C19.884,82.107 12.924,81.967 9.221,78.091C7.985,76.824 7.205,75.286 6.972,73.659C6.739,72.032 7.064,70.383 7.907,68.905C8.799,67.449 10.166,66.236 11.847,65.409C13.529,64.582 15.457,64.175 17.404,64.235C13.605,62.868 10.106,60.974 7.055,58.631C5.549,57.44 4.422,55.952 3.775,54.302C3.129,52.651 2.983,50.891 3.353,49.181C5.037,43.483 13.275,41.397 20.144,40.431L5.593,30.795C3.336,29.569 1.539,27.831 0.409,25.782C-0.229,24.052 -0.118,22.187 0.724,20.52C3.908,13.592 14.127,11.568 22.902,10.603M-8.514,24.708L-8.245,20.536L-6.55,17.177L-6.418,16.916L-3.664,10.91L2.038,7.629L6.95,5.819L11.948,3.977L17.494,3.15L22.027,2.651L22.463,2.603L22.902,2.603L23.161,2.603L98.394,-5.56L175.467,-10.714L252.396,-6.492L256.9,-6.248L274.944,-6.456L288.98,-3.996L292.604,-3.362L296.222,-2.515L299.496,-1.35L302.692,-0.213L306.05,1.396L308.744,3.811L311.594,6.364L313.89,10.031L313.996,14.745L314.096,19.181L312.216,23.219L309.668,26.688L308.158,28.784L306.252,30.46L304.708,31.703L303.916,32.342L303.114,32.946L302.414,33.471L301.682,34.022L301.07,34.48L300.488,34.939L298.819,36.255L299.038,36.575L299.404,37.108L299.85,37.678L300.484,38.479L301.056,39.203L301.83,40.174L302.542,41.192L304.444,43.917L305.83,47.6L305.694,51.452L305.542,55.697L303.384,60.518L299.069,62.367L300.196,66.739L299.572,71.203L298.952,75.645L296.68,79.552L293.438,82.442L293.358,82.515L296.68,79.552L298.952,75.645L299.572,71.203L283.726,68.991L283.68,69.328L283.474,69.891L282.788,70.501L288.132,76.493L293.274,82.585L296.68,79.552L298.952,75.645L299.572,71.203L283.726,68.991L283.68,69.328L283.474,69.891L282.788,70.501L288.132,76.493L293.274,82.585L296.68,79.552L298.952,75.645L299.572,71.203L283.726,68.991L283.68,69.328L283.474,69.891L282.788,70.501L288.132,76.493L293.274,82.585L296.68,79.552L298.952,75.645L299.572,71.203L283.726,68.991L283.68,69.328L283.474,69.891L282.788,70.501L288.132,76.493L293.274,82.585L296.68,79.552L298.952,75.645L299.572,71.203L283.726,68.991L283.68,69.328" fill-rule="evenodd" fill="#AA1070" fill-opacity="0"/>
<path d="M22.902,10.603L23.161,10.603C99.063,2.414 175.649,-2.692 251.958,1.496C262.862,2.087 319.012,0.453 303.22,21.952C299.518,27.09 290.65,30.001 290.538,36.041C290.538,39.684 293.798,42.642 295.982,45.771C298.166,48.901 298.74,53.804 294.89,55.455C292.63,56.435 289.336,56.046 288.114,57.961C286.892,59.876 288.854,61.573 289.964,63.208C291.392,65.292 291.982,67.708 291.65,70.097C291.316,72.486 290.076,74.721 288.114,76.472C283.226,80.597 275.47,80.768 268.546,80.675C187.67,79.637 106.783,80.068 25.882,81.967C19.884,82.107 12.924,81.967 9.221,78.091C7.985,76.824 7.205,75.286 6.972,73.659C6.739,72.032 7.064,70.383 7.907,68.905C8.799,67.449 10.166,66.236 11.847,65.409C13.529,64.582 15.457,64.175 17.404,64.235C13.605,62.868 10.106,60.974 7.055,58.631C5.549,57.44 4.422,55.952 3.775,54.302C3.129,52.651 2.983,50.891 3.353,49.181C5.037,43.483 13.275,41.397 20.144,40.431L5.593,30.795C3.336,29.569 1.539,27.831 0.409,25.782C-0.229,24.052 -0.118,22.187 0.724,20.52C3.908,13.592 14.127,11.568 22.902,10.603M-8.514,24.708L-8.245,20.536L-6.55,17.177L-6.418,16.916L-3.664,10.91L2.038,7.629L6.95,5.819L11.948,3.977L17.494,3.15L22.027,2.651L22.463,2.603L22.902,2.603L23.161,2.603L98.394,-5.56L175.467,-10.714L252.396,-6.492L256.9,-6.248L274.944,-6.456L288.98,-3.996L292.604,-3.362L296.222,-2.515L299.496,-1.35L302.692,-0.213L306.05,1.396L308.744,3.811L311.594,6.364L313.89,10.031L313.996,14.745L314.096,19.181L312.216,23.219L309.668,26.688L308.158,28.784L306.252,30.46L304.708,31.703L303.916,32.342L303.114,32.946L302.414,33.471L301.682,34.022L301.07,34.48L300.488,34.939L298.819,36.255L299.038,36.575L299.404,37.108L299.85,37.678L300.484,38.479L301.056,39.203L301.83,40.174L302.542,41.192L304.444,43.917L305.83,47.6L305.694,51.452L305.542,55.697L303.384,60.518L299.069,62.367L300.196,66.739L299.572,71.203L298.952,75.645L296.68,79.552L293.438,82.442L293.358,82.515L296.68,79.552L298.952,75.645L299.572,71.203L283.726,68.991L283.68,69.328L283.474,69.891L282.788,70.501L288.132,76.493L293.274,82.585L296.68,79.552L298.952,75.645L299.572,71.203L283.726,68.991L283.68,69.328L283.474,69.891L282.788,70.501L288.132,76.493L293.274,82.585L296.68,79.552L298.952,75.645L299.572,71.203L283.726,68.991L283.68,69.328L283.474,69.891L282.788,70.501L288.132,76.493L293.274,82.585L296.68,79.552L298.952,75.645L299.572,71.203L283.726,68.991L283.68,69.328L283.474,69.891L282.788,70.501L288.132,76.493L293.274,82.585L296.68,79.552L298.952,75.645L299.572,71.203L283.726,68.991L283.68,69.328" fill-rule="evenodd" fill="#FFFFFF" fill-opacity="0"/>
</svg>
