<svg width="306" height="78" viewBox="0 0 306 78" fill="none" xmlns="http://www.w3.org/2000/svg" xmlns:xlink="http://www.w3.org/1999/xlink">
<path d="M-4.387,23.221L-4.185,20.236L-2.81,17.644L-0.604,13.074L3.957,10.456L8.393,8.901L12.9,7.321L18.03,6.574L22.486,6.108L22.693,6.086L22.902,6.086L23.161,6.086L98.745,-1.692L175.562,-6.571L252.166,-2.572L257.168,-2.314L274.54,-2.538L288.258,-0.251L291.74,0.329L295.114,1.087L298.098,2.097L301.036,3.092L303.846,4.412L306,6.248L308.228,8.147L309.918,10.762L309.998,14.102L310.072,17.293L308.654,20.389L306.386,23.326L305.156,24.949L303.57,26.297L302.124,27.405L301.388,27.968L300.636,28.508L299.936,29.009L299.218,29.522L298.56,29.989L297.934,30.46L295.114,32.575L294.552,33.641L294.538,34.36L294.538,34.742L294.752,35.461L295.686,36.755L296.136,37.38L296.66,38.016L297.284,38.766L297.876,39.477L298.574,40.31L299.206,41.172L300.722,43.239L301.8,46.016L301.696,48.821L301.582,51.874L300,54.986L296.4,56.454L295.48,56.834L294.54,57.045L293.81,57.187L293.438,57.259L293.066,57.322L293.22,57.799L295.202,60.555L296.102,63.888L295.606,67.259L295.116,70.611L293.31,73.579L290.702,75.792L290.66,75.826L290.618,75.86L287.402,78.443L283.456,79.627L279.696,80.2L275.924,80.774L271.962,80.784L268.494,80.739L187.668,79.753L106.826,80.162L25.972,81.968L22.959,82.035L19.398,82.048L16.052,81.506L12.745,80.971L9.11,79.816L6.398,77.116L4.636,75.397L3.393,73.161L3.017,70.661L2.639,68.149L3.18,65.647L4.477,63.486L4.509,63.432L5.893,61.282L6.802,60.539L4.696,59.001L4.673,58.984L2.636,57.452L1.026,55.481L0.077,53.176L-0.878,50.858" fill="#CD3F97"/>
<path d="M22.902,10.086L23.161,10.086C99.063,2.297 175.649,-2.561 251.958,1.423C262.862,1.986 319.012,0.431 303.22,20.881C299.518,25.768 290.65,28.537 290.538,34.283C290.538,37.748 293.798,40.562 295.982,43.539C298.166,46.515 298.74,51.18 294.89,52.75C292.63,53.683 289.336,53.312 288.114,55.134C286.892,56.955 288.854,58.569 289.964,60.124C291.392,62.107 291.982,64.405 291.65,66.678C291.316,68.95 290.076,71.076 288.114,72.741C283.226,76.666 275.47,76.828 268.546,76.74C187.67,75.752 106.783,76.162 25.882,77.969C19.884,78.102 12.924,77.969 9.221,74.281C7.985,73.076 7.205,71.614 6.972,70.066C6.739,68.518 7.064,66.95 7.907,65.544C8.799,64.159 10.166,63.005 11.847,62.218C13.529,61.431 15.457,61.044 17.404,61.102C13.605,59.801 10.106,57.999 7.055,55.771C5.549,54.638 4.422,53.223 3.775,51.653C3.129,50.083 2.983,48.408 3.353,46.782C5.037,41.362 13.275,39.377 20.144,38.459L5.593,29.293C3.336,28.127 1.539,26.474 0.409,24.524C-0.229,22.879 -0.118,21.105 0.724,19.519C3.908,12.929 14.127,11.004 22.902,10.086M-4.387,23.221L-4.185,20.236L-2.81,17.644L-0.604,13.074L3.957,10.456L8.393,8.901L12.9,7.321L18.03,6.574L22.486,6.108L22.693,6.086L22.902,6.086L23.161,6.086L98.745,-1.692L175.562,-6.571L252.166,-2.572L257.168,-2.314L274.54,-2.538L288.258,-0.251L291.74,0.329L295.114,1.087L298.098,2.097L301.036,3.092L303.846,4.412L306,6.248L308.228,8.147L309.918,10.762L309.998,14.102L310.072,17.293L308.654,20.389L306.386,23.326L305.156,24.949L303.57,26.297L302.124,27.405L301.388,27.968L300.636,28.508L299.936,29.009L299.218,29.522L298.56,29.989L297.934,30.46L295.114,32.575L294.552,33.641L294.538,34.36L294.538,34.742L294.752,35.461L295.686,36.755L296.136,37.38L296.66,38.016L297.284,38.766L297.876,39.477L298.574,40.31L299.206,41.172L300.722,43.239L301.8,46.016L301.696,48.821L301.582,51.874L300,54.986L296.4,56.454L295.48,56.834L294.54,57.045L293.81,57.187L293.438,57.259L293.066,57.322L293.22,57.799L295.202,60.555L296.102,63.888L295.606,67.259L295.116,70.611L293.31,73.579L290.702,75.792L290.66,75.826L290.618,75.86L287.402,78.443L283.456,79.627L279.696,80.2L275.924,80.774L271.962,80.784L268.494,80.739L187.668,79.753L106.826,80.162L25.972,81.968L22.959,82.035L19.398,82.048L16.052,81.506L12.745,80.971L9.11,79.816L6.398,77.116L4.636,75.397L3.393,73.161L3.017,70.661L2.639,68.149L3.18,65.647L4.477,63.486L4.509,63.432L5.893,61.282L6.802,60.539L4.696,59.001L4.673,58.984L2.636,57.452L1.026,55.481L0.077,53.176L-0.878,50.858" fill-rule="evenodd" fill="#AA1070"/>
</svg>
