<svg width="3754" height="1668" viewBox="0 0 3754 1668" fill="none" xmlns="http://www.w3.org/2000/svg" xmlns:xlink="http://www.w3.org/1999/xlink">
<path d="M1310.69,60.253C1314.434,54.764 1319.221,50.223 1324.721,46.941C1330.222,43.659 1336.308,41.714 1342.561,41.239C1339.426,50.53 1339.157,60.533 1344.39,69.418C1354.485,86.546 1375.916,81.223 1381.289,62.894C1385.358,49.007 1378.82,37.551 1368.93,30.608C1373.473,26.455 1378.771,23.403 1384.475,21.652C1390.178,19.901 1396.157,19.492 1402.016,20.451C1412.443,22.169 1414.388,4.413 1403.973,2.708C1394.404,1.115 1384.62,2.22 1375.551,5.917C1366.482,9.614 1358.429,15.781 1352.156,23.832C1331.34,20.619 1310.012,31.46 1297.525,49.622C1291.192,58.814 1304.331,69.474 1310.69,60.253ZM1359.027,44.439C1361.548,45.737 1363.672,47.804 1365.143,50.39C1366.896,53.687 1366.525,60.659 1362.584,62.098C1357.3,64.025 1356.481,54.302 1357.082,50.921C1357.489,48.683 1358.142,46.506 1359.027,44.439Z" fill="#E57E5E"/>
<path d="M1121.078,97.278C1118.066,97.267 1115.125,96.282 1112.626,94.447C1110.127,92.612 1108.182,90.009 1107.036,86.968C1105.891,83.926 1105.596,80.583 1106.19,77.359C1106.784,74.135 1108.239,71.175 1110.372,68.854C1112.505,66.532 1115.22,64.953 1118.175,64.316C1121.129,63.678 1124.191,64.011 1126.972,65.272C1129.753,66.533 1132.13,68.666 1133.802,71.401C1135.474,74.136 1136.367,77.35 1136.367,80.639C1136.365,82.828 1135.968,84.996 1135.199,87.017C1134.429,89.039 1133.302,90.875 1131.882,92.42C1130.462,93.966 1128.777,95.19 1126.923,96.024C1125.069,96.857 1123.083,97.284 1121.078,97.278ZM1121.078,67.94C1118.764,67.937 1116.502,68.683 1114.577,70.085C1112.653,71.486 1111.152,73.48 1110.265,75.813C1109.378,78.146 1109.144,80.713 1109.594,83.191C1110.044,85.669 1111.157,87.946 1112.791,89.733C1114.426,91.52 1116.51,92.738 1118.779,93.232C1121.048,93.725 1123.4,93.473 1125.537,92.507C1127.675,91.541 1129.502,89.905 1130.787,87.804C1132.073,85.704 1132.759,83.235 1132.759,80.709C1132.766,79.028 1132.469,77.362 1131.885,75.806C1131.301,74.251 1130.442,72.836 1129.357,71.644C1128.272,70.451 1126.982,69.504 1125.562,68.856C1124.141,68.209 1122.617,67.873 1121.078,67.87L1121.078,67.94Z" fill="#070706"/>
<path d="M3055.4,0L668,0L668,1668L3055.4,1668L3055.4,0Z" fill="#F8D1E0"/>
<g opacity="0.5">
<path d="M280.392,366.751C281.173,364.314 279.832,361.706 277.395,360.925C274.959,360.143 272.35,361.485 271.569,363.921L280.392,366.751ZM258.502,543.847L253.9,544.38L253.9,544.383L258.502,543.847ZM350.671,680.524L351.689,676.006C351.679,676.002 351.669,676 351.659,675.998L350.671,680.524ZM493.365,626.178L490.703,622.386L490.697,622.392L493.365,626.178ZM696.995,553.016L697.351,548.397L696.995,553.016ZM834.341,695.52L838.943,696.066L838.943,696.058L834.341,695.52ZM714.665,837.928L711.971,834.158L714.665,837.928ZM615.619,990.746L611.029,991.364L611.029,991.372L615.619,990.746ZM670.157,1073.556L672.911,1069.83L672.907,1069.828L670.157,1073.556ZM886.969,1049.772L890.853,1052.298L890.855,1052.294L886.969,1049.772ZM894.323,978.044L890.331,980.394L890.333,980.396L894.323,978.044ZM783.911,979.668L780.709,976.32L780.703,976.326L783.911,979.668ZM739.785,1126.468L735.205,1127.168L739.785,1126.468ZM808.649,1268.112L805.049,1271.028L805.059,1271.042L808.649,1268.112ZM1082.025,1446.916C1084.507,1447.536 1087.023,1446.028 1087.643,1443.546C1088.265,1441.064 1086.755,1438.548 1084.273,1437.926L1082.025,1446.916ZM270.079,368.662C269.326,371.107 270.697,373.7 273.143,374.453C275.588,375.206 278.181,373.835 278.934,371.389L270.079,368.662ZM272.048,396.484C272.648,393.997 271.119,391.494 268.631,390.894C266.144,390.294 263.641,391.823 263.041,394.31L272.048,396.484ZM260.821,403.998C260.279,406.498 261.866,408.965 264.366,409.508C266.867,410.05 269.333,408.463 269.876,405.963L260.821,403.998ZM265.148,431.552C265.535,429.022 263.798,426.659 261.269,426.272C258.74,425.885 256.376,427.622 255.989,430.151L265.148,431.552ZM254.601,439.992C254.273,442.53 256.064,444.853 258.601,445.181C261.139,445.509 263.462,443.718 263.79,441.18L254.601,439.992ZM261.254,467.079C261.424,464.526 259.493,462.318 256.94,462.148C254.387,461.978 252.179,463.909 252.009,466.462L261.254,467.079ZM251.462,476.385C251.351,478.942 253.333,481.104 255.889,481.215C258.445,481.326 260.608,479.344 260.719,476.788L251.462,476.385ZM260.394,502.808C260.346,500.25 258.234,498.215 255.676,498.262C253.118,498.309 251.082,500.421 251.13,502.98L260.394,502.808ZM251.428,512.913C251.535,515.47 253.693,517.456 256.25,517.349C258.806,517.243 260.792,515.084 260.686,512.528L251.428,512.913ZM262.573,538.482C262.309,535.937 260.031,534.088 257.486,534.353C254.941,534.617 253.093,536.895 253.357,539.44L262.573,538.482ZM254.507,549.203C254.85,551.738 257.184,553.516 259.719,553.172C262.255,552.829 264.032,550.495 263.689,547.96L254.507,549.203ZM268.296,572.614C267.698,570.126 265.197,568.594 262.709,569.192C260.221,569.788 258.689,572.29 259.286,574.778L268.296,572.614ZM261.746,584.196C262.442,586.658 265.002,588.09 267.465,587.394C269.927,586.698 271.358,584.138 270.662,581.676L261.746,584.196ZM278.832,605.302C277.85,602.94 275.139,601.82 272.776,602.802C270.413,603.784 269.294,606.496 270.276,608.858L278.832,605.302ZM274.254,617.796C275.354,620.106 278.118,621.086 280.429,619.986C282.739,618.886 283.72,616.122 282.62,613.812L274.254,617.796ZM294.96,635.31C293.505,633.206 290.619,632.68 288.515,634.134C286.41,635.59 285.884,638.476 287.339,640.58L294.96,635.31ZM293.244,648.506C294.846,650.5 297.762,650.818 299.757,649.214C301.751,647.612 302.069,644.696 300.466,642.702L293.244,648.506ZM317.779,659.936C315.761,658.364 312.85,658.724 311.277,660.742C309.704,662.76 310.065,665.67 312.083,667.244L317.779,659.936ZM320.276,672.996C322.442,674.358 325.302,673.706 326.664,671.54C328.025,669.374 327.373,666.514 325.207,665.152L320.276,672.996ZM347.264,674.912C344.798,674.232 342.246,675.678 341.565,678.144C340.884,680.612 342.331,683.162 344.797,683.844L347.264,674.912ZM354.069,685.93C356.589,686.374 358.992,684.692 359.436,682.172C359.88,679.652 358.198,677.25 355.678,676.806L354.069,685.93ZM377.388,677.89C374.836,678.07 372.913,680.286 373.093,682.838C373.274,685.39 375.489,687.314 378.041,687.132L377.388,677.89ZM386.929,686.13C389.458,685.742 391.192,683.376 390.802,680.846C390.413,678.318 388.047,676.584 385.518,676.974L386.929,686.13ZM406.891,671.54C404.475,672.382 403.198,675.022 404.039,677.44C404.881,679.856 407.522,681.132 409.938,680.29L406.891,671.54ZM418.181,677.164C420.549,676.194 421.682,673.488 420.712,671.12C419.743,668.754 417.037,667.62 414.669,668.59L418.181,677.164ZM434.868,658.892C432.621,660.116 431.791,662.93 433.015,665.176C434.239,667.424 437.053,668.252 439.3,667.028L434.868,658.892ZM446.88,662.744C449.089,661.454 449.833,658.616 448.541,656.408C447.25,654.198 444.412,653.454 442.204,654.746L446.88,662.744ZM461.399,642.7C459.267,644.116 458.687,646.992 460.103,649.122C461.519,651.254 464.393,651.834 466.525,650.42L461.399,642.7ZM473.681,645.596C475.793,644.152 476.335,641.268 474.891,639.156C473.447,637.044 470.565,636.502 468.453,637.946L473.681,645.596ZM487.195,624.86C485.105,626.334 484.605,629.226 486.081,631.316C487.555,633.406 490.447,633.906 492.537,632.43L487.195,624.86ZM499.521,627.532C501.623,626.074 502.145,623.186 500.685,621.084C499.227,618.982 496.341,618.46 494.239,619.918L499.521,627.532ZM513.443,607.052C511.293,608.44 510.675,611.308 512.061,613.458C513.449,615.608 516.315,616.226 518.465,614.84L513.443,607.052ZM525.651,610.278C527.821,608.922 528.481,606.064 527.125,603.894C525.769,601.724 522.911,601.064 520.741,602.42L525.651,610.278ZM540.639,590.568C538.413,591.826 537.627,594.654 538.887,596.88C540.147,599.108 542.973,599.892 545.201,598.632L540.639,590.568ZM552.631,594.52C554.881,593.3 555.717,590.49 554.499,588.24C553.281,585.99 550.469,585.154 548.219,586.372L552.631,594.52ZM568.921,575.874C566.607,576.964 565.617,579.726 566.709,582.04C567.801,584.354 570.561,585.344 572.875,584.254L568.921,575.874ZM580.577,580.726C582.917,579.688 583.971,576.952 582.933,574.612C581.895,572.274 579.159,571.22 576.819,572.258L580.577,580.726ZM598.401,563.539C595.995,564.413 594.755,567.07 595.629,569.476C596.501,571.88 599.159,573.122 601.565,572.248L598.401,563.539ZM609.541,569.478C611.971,568.674 613.287,566.052 612.483,563.624C611.679,561.195 609.057,559.878 606.629,560.682L609.541,569.478ZM629.075,554.269C626.587,554.865 625.053,557.364 625.647,559.853C626.243,562.341 628.743,563.876 631.231,563.28L629.075,554.269ZM639.451,561.463C641.957,560.954 643.579,558.509 643.069,556.001C642.561,553.494 640.115,551.873 637.609,552.382L639.451,561.463ZM660.759,548.868C658.213,549.122 656.353,551.391 656.607,553.937C656.861,556.483 659.131,558.342 661.677,558.088L660.759,548.868ZM670.041,557.423C672.595,557.272 674.545,555.08 674.393,552.525C674.243,549.971 672.049,548.023 669.495,548.174L670.041,557.423ZM692.965,548.109C690.411,547.97 688.225,549.927 688.087,552.482C687.947,555.037 689.905,557.221 692.459,557.361L692.965,548.109ZM701.427,558.087C703.969,558.371 706.261,556.541 706.545,553.998C706.831,551.455 704.999,549.163 702.457,548.879L701.427,558.087ZM729.291,554.327C726.837,553.604 724.261,555.008 723.537,557.462C722.815,559.917 724.219,562.492 726.673,563.215L729.291,554.327ZM735.845,566.228C738.251,567.1 740.909,565.858 741.781,563.453C742.653,561.047 741.411,558.39 739.005,557.518L735.845,566.228ZM763.855,568.864C761.619,567.618 758.799,568.422 757.555,570.658C756.309,572.894 757.113,575.714 759.349,576.96L763.855,568.864ZM767.651,581.908C769.809,583.282 772.673,582.648 774.047,580.49C775.421,578.332 774.787,575.468 772.629,574.094L767.651,581.908ZM794.417,590.596C792.511,588.888 789.581,589.048 787.875,590.952C786.167,592.858 786.327,595.786 788.231,597.494L794.417,590.596ZM795.203,604.158C796.995,605.986 799.927,606.014 801.755,604.222C803.581,602.432 803.611,599.498 801.819,597.672L795.203,604.158ZM819.151,618.936C817.731,616.808 814.855,616.232 812.725,617.652C810.597,619.072 810.023,621.948 811.443,624.076L819.151,618.936ZM816.449,632.244C817.701,634.476 820.525,635.27 822.757,634.018C824.989,632.766 825.783,629.942 824.531,627.712L816.449,632.244ZM835.273,653.134C834.559,650.678 831.987,649.266 829.531,649.982C827.073,650.696 825.663,653.268 826.377,655.724L835.273,653.134ZM828.611,664.964C829.097,667.476 831.525,669.12 834.039,668.636C836.551,668.15 838.195,665.72 837.709,663.208L828.611,664.964ZM839.423,690.876C839.597,688.324 837.669,686.112 835.117,685.938C832.563,685.764 830.353,687.694 830.179,690.246L839.423,690.876ZM829.169,699.11C828.769,701.638 830.495,704.01 833.021,704.41C835.549,704.81 837.921,703.086 838.321,700.558L829.169,699.11ZM832.113,723.916C833.017,721.524 831.807,718.85 829.413,717.946C827.019,717.044 824.347,718.252 823.443,720.646L832.113,723.916ZM820.213,728.358C819.141,730.682 820.157,733.434 822.481,734.506C824.805,735.576 827.557,734.56 828.627,732.238L820.213,728.358ZM816.733,753.098C818.175,750.984 817.629,748.102 815.515,746.66C813.401,745.218 810.519,745.764 809.077,747.878L816.733,753.098ZM804.131,754.73C802.581,756.766 802.975,759.672 805.011,761.222C807.047,762.772 809.953,762.38 811.503,760.344L804.131,754.73ZM795.977,778.368C797.751,776.522 797.693,773.59 795.847,771.818C794.003,770.044 791.069,770.104 789.297,771.948L795.977,778.368ZM783.275,778C781.439,779.784 781.397,782.718 783.181,784.552C784.965,786.386 787.897,786.428 789.733,784.644L783.275,778ZM772.195,800.438C774.153,798.79 774.405,795.868 772.759,793.91C771.111,791.952 768.189,791.7 766.231,793.348L772.195,800.438ZM759.593,798.816C757.601,800.422 757.291,803.34 758.899,805.33C760.505,807.32 763.423,807.632 765.413,806.024L759.593,798.816ZM746.855,820.364C748.907,818.836 749.333,815.934 747.805,813.882C746.275,811.83 743.373,811.404 741.321,812.934L746.855,820.364ZM734.357,818.068C732.289,819.578 731.839,822.476 733.347,824.542C734.857,826.608 737.755,827.06 739.821,825.55L734.357,818.068ZM720.891,839.174C722.973,837.686 723.457,834.792 721.969,832.71C720.481,830.628 717.589,830.146 715.507,831.634L720.891,839.174ZM708.429,836.71C706.359,838.214 705.899,841.11 707.403,843.182C708.907,845.252 711.803,845.712 713.873,844.208L708.429,836.71ZM695.571,858.134C697.569,856.536 697.893,853.62 696.293,851.624C694.695,849.626 691.779,849.302 689.781,850.902L695.571,858.134ZM682.989,856.454C681.025,858.094 680.763,861.016 682.403,862.978C684.043,864.942 686.965,865.204 688.929,863.564L682.989,856.454ZM671.829,878.802C673.679,877.034 673.745,874.102 671.977,872.252C670.209,870.402 667.277,870.336 665.427,872.104L671.829,878.802ZM659.149,878.282C657.353,880.104 657.373,883.038 659.195,884.834C661.017,886.63 663.951,886.61 665.747,884.788L659.149,878.282ZM650.525,901.714C652.139,899.728 651.835,896.81 649.849,895.198C647.863,893.586 644.945,893.888 643.333,895.874L650.525,901.714ZM637.887,902.882C636.361,904.936 636.791,907.838 638.845,909.362C640.899,910.888 643.801,910.458 645.327,908.404L637.887,902.882ZM633.135,927.366C634.357,925.118 633.523,922.304 631.275,921.084C629.027,919.862 626.215,920.696 624.993,922.944L633.135,927.366ZM620.963,930.956C619.887,933.278 620.897,936.032 623.217,937.108C625.539,938.184 628.293,937.174 629.369,934.852L620.963,930.956ZM621.999,955.844C622.593,953.356 621.055,950.858 618.567,950.264C616.077,949.672 613.579,951.21 612.987,953.698L621.999,955.844ZM611.259,962.594C610.879,965.124 612.621,967.484 615.151,967.864C617.683,968.244 620.041,966.5 620.421,963.97L611.259,962.594ZM619.751,986.014C619.523,983.464 617.271,981.584 614.723,981.812C612.175,982.04 610.293,984.292 610.521,986.84L619.751,986.014ZM611.801,996.154C612.271,998.668 614.691,1000.328 617.207,999.858C619.721,999.388 621.379,996.968 620.909,994.454L611.801,996.154ZM628.071,1016.856C627.011,1014.528 624.263,1013.5 621.935,1014.562C619.607,1015.622 618.579,1018.37 619.641,1020.698L628.071,1016.856ZM623.973,1029.266C625.219,1031.5 628.039,1032.304 630.275,1031.06C632.511,1029.814 633.313,1026.994 632.069,1024.758L623.973,1029.266ZM645.609,1044.33C643.969,1042.366 641.047,1042.104 639.083,1043.746C637.119,1045.386 636.859,1048.308 638.499,1050.272L645.609,1044.33ZM644.825,1057.378C646.583,1059.236 649.515,1059.318 651.375,1057.558C653.233,1055.8 653.313,1052.868 651.555,1051.01L644.825,1057.378ZM669.329,1067.114C667.311,1065.54 664.401,1065.9 662.827,1067.918C661.255,1069.936 661.615,1072.846 663.633,1074.42L669.329,1067.114ZM671.347,1080.1C673.451,1081.556 676.337,1081.032 677.793,1078.926C679.249,1076.822 678.723,1073.938 676.619,1072.482L671.347,1080.1ZM697.757,1084.722C695.451,1083.616 692.683,1084.59 691.577,1086.898C690.471,1089.206 691.445,1091.972 693.753,1093.078L697.757,1084.722ZM702.585,1097.01C704.951,1097.986 707.659,1096.858 708.633,1094.492C709.609,1092.128 708.481,1089.42 706.117,1088.444L702.585,1097.01ZM729.383,1096.116C726.901,1095.49 724.383,1096.994 723.757,1099.474C723.131,1101.956 724.635,1104.474 727.115,1105.1L729.383,1096.116ZM736.533,1107.214C739.045,1107.708 741.481,1106.074 741.975,1103.564C742.469,1101.054 740.837,1098.618 738.325,1098.124L736.533,1107.214ZM762.651,1101.168C760.095,1101.03 757.913,1102.988 757.775,1105.544C757.635,1108.098 759.595,1110.282 762.149,1110.42L762.651,1101.168ZM771.803,1110.684C774.361,1110.686 776.437,1108.612 776.437,1106.054C776.439,1103.494 774.367,1101.42 771.807,1101.418L771.803,1110.684ZM796.215,1099.626C793.685,1100.006 791.941,1102.364 792.321,1104.894C792.701,1107.424 795.061,1109.168 797.591,1108.788L796.215,1099.626ZM807.121,1107.068C809.623,1106.538 811.223,1104.08 810.695,1101.576C810.165,1099.074 807.707,1097.474 805.203,1098.002L807.121,1107.068ZM828.527,1090.982C826.151,1091.93 824.993,1094.626 825.943,1097.002C826.891,1099.378 829.585,1100.536 831.963,1099.588L828.527,1090.982ZM840.871,1095.67C843.177,1094.558 844.143,1091.79 843.033,1089.486C841.921,1087.18 839.153,1086.212 836.847,1087.324L840.871,1095.67ZM857.511,1074.71C855.475,1076.26 855.081,1079.166 856.631,1081.202C858.181,1083.238 861.087,1083.632 863.123,1082.084L857.511,1074.71ZM870.663,1075.854C872.569,1074.146 872.729,1071.216 871.021,1069.312C869.313,1067.406 866.383,1067.246 864.479,1068.954L870.663,1075.854ZM880.539,1050.988C879.057,1053.072 879.545,1055.966 881.631,1057.448C883.715,1058.932 886.607,1058.444 888.091,1056.358L880.539,1050.988ZM893.673,1047.682C894.947,1045.462 894.181,1042.63 891.963,1041.356C889.743,1040.082 886.911,1040.848 885.637,1043.068L893.673,1047.682ZM895.117,1018.788C894.579,1021.288 896.169,1023.754 898.669,1024.292C901.171,1024.832 903.635,1023.242 904.175,1020.74L895.117,1018.788ZM905.741,1009.898C905.923,1007.346 904.003,1005.13 901.451,1004.948C898.899,1004.766 896.683,1006.686 896.499,1009.238L905.741,1009.898ZM892.479,984.53C893.535,986.86 896.281,987.894 898.611,986.838C900.941,985.782 901.975,983.036 900.919,980.706L892.479,984.53ZM895.767,971.772C894.277,969.692 891.383,969.212 889.303,970.7C887.223,972.19 886.743,975.084 888.231,977.164L895.767,971.772ZM872.699,964.058C874.995,965.188 877.773,964.246 878.903,961.952C880.035,959.658 879.093,956.88 876.799,955.748L872.699,964.058ZM868.191,952.346C865.745,951.596 863.153,952.97 862.403,955.416C861.653,957.862 863.029,960.454 865.475,961.204L868.191,952.346ZM844.475,958.718C847.033,958.614 849.021,956.458 848.917,953.902C848.815,951.346 846.659,949.356 844.103,949.46L844.475,958.718ZM835.153,950.28C832.619,950.64 830.857,952.986 831.217,955.518C831.577,958.052 833.923,959.814 836.455,959.454L835.153,950.28ZM815.537,965.076C817.913,964.128 819.073,961.434 818.127,959.058C817.181,956.68 814.487,955.52 812.109,956.466L815.537,965.076ZM803.973,960.116C801.685,961.26 800.759,964.044 801.905,966.332C803.051,968.62 805.835,969.546 808.121,968.4L803.973,960.116ZM790.089,980.316C792.029,978.646 792.247,975.72 790.577,973.782C788.907,971.842 785.983,971.624 784.043,973.294L790.089,980.316ZM777.523,979.48C775.735,981.312 775.771,984.244 777.603,986.032C779.433,987.818 782.367,987.782 784.153,985.952L777.523,979.48ZM769.959,1003.228C771.413,1001.124 770.885,998.238 768.779,996.784C766.675,995.33 763.789,995.856 762.335,997.962L769.959,1003.228ZM757.481,1005.46C756.155,1007.648 756.855,1010.496 759.043,1011.822C761.231,1013.148 764.079,1012.45 765.405,1010.262L757.481,1005.46ZM755.267,1030.294C756.251,1027.932 755.133,1025.22 752.771,1024.236C750.409,1023.254 747.697,1024.372 746.713,1026.734L755.267,1030.294ZM743.511,1035.036C742.655,1037.446 743.913,1040.096 746.323,1040.954C748.735,1041.812 751.383,1040.552 752.241,1038.142L743.511,1035.036ZM746.139,1059.834C746.669,1057.33 745.069,1054.872 742.565,1054.344C740.063,1053.814 737.603,1055.414 737.075,1057.918L746.139,1059.834ZM735.447,1066.644C735.037,1069.17 736.753,1071.548 739.277,1071.958C741.803,1072.368 744.183,1070.652 744.593,1068.126L735.447,1066.644ZM742.365,1090.6C742.461,1088.044 740.467,1085.894 737.911,1085.798C735.353,1085.702 733.203,1087.696 733.107,1090.252L742.365,1090.6ZM732.975,1099.118C732.993,1101.676 735.083,1103.734 737.643,1103.714C740.201,1103.696 742.259,1101.606 742.239,1099.046L732.975,1099.118ZM743.775,1121.588C743.447,1119.052 741.123,1117.26 738.587,1117.588C736.049,1117.918 734.259,1120.24 734.587,1122.778L743.775,1121.588ZM735.919,1131.538C736.355,1134.06 738.753,1135.748 741.275,1135.312C743.795,1134.874 745.485,1132.476 745.047,1129.956L735.919,1131.538ZM750.095,1152.1C749.401,1149.638 746.841,1148.206 744.379,1148.9C741.917,1149.594 740.483,1152.154 741.177,1154.616L750.095,1152.1ZM743.731,1163.074C744.513,1165.51 747.123,1166.85 749.559,1166.068C751.995,1165.284 753.335,1162.674 752.551,1160.238L743.731,1163.074ZM760.509,1181.582C759.509,1179.226 756.791,1178.126 754.435,1179.124C752.079,1180.122 750.979,1182.842 751.977,1185.198L760.509,1181.582ZM755.541,1193.256C756.611,1195.58 759.363,1196.596 761.687,1195.524C764.011,1194.454 765.027,1191.702 763.957,1189.378L755.541,1193.256ZM774.313,1209.74C773.069,1207.504 770.249,1206.7 768.013,1207.944C765.777,1209.188 764.973,1212.01 766.217,1214.244L774.313,1209.74ZM770.591,1221.868C771.891,1224.072 774.733,1224.802 776.935,1223.5C779.139,1222.2 779.869,1219.358 778.567,1217.156L770.591,1221.868ZM790.851,1236.486C789.413,1234.37 786.531,1233.822 784.415,1235.26C782.299,1236.698 781.751,1239.58 783.189,1241.696L790.851,1236.486ZM788.199,1248.894C789.683,1250.978 792.577,1251.464 794.661,1249.98C796.745,1248.496 797.231,1245.604 795.747,1243.518L788.199,1248.894ZM809.563,1261.85C807.969,1259.846 805.055,1259.514 803.053,1261.106C801.051,1262.698 800.717,1265.614 802.311,1267.616L809.563,1261.85ZM807.945,1274.548C809.581,1276.516 812.501,1276.786 814.469,1275.152C816.437,1273.516 816.709,1270.596 815.073,1268.628L807.945,1274.548ZM830.745,1286.626C829.019,1284.736 826.089,1284.602 824.199,1286.326C822.309,1288.05 822.175,1290.982 823.901,1292.872L830.745,1286.626ZM830.079,1299.524C831.837,1301.384 834.769,1301.466 836.627,1299.708C838.487,1297.95 838.571,1295.018 836.813,1293.16L830.079,1299.524ZM853.605,1310.114C851.761,1308.34 848.829,1308.394 847.053,1310.236C845.279,1312.078 845.333,1315.012 847.175,1316.786L853.605,1310.114ZM853.767,1323.03C855.641,1324.772 858.571,1324.668 860.315,1322.794C862.057,1320.92 861.953,1317.99 860.079,1316.246L853.767,1323.03ZM877.923,1332.092C875.971,1330.438 873.049,1330.68 871.395,1332.632C869.741,1334.584 869.983,1337.508 871.935,1339.162L877.923,1332.092ZM878.913,1344.968C880.895,1346.588 883.813,1346.294 885.433,1344.314C887.051,1342.332 886.759,1339.414 884.777,1337.794L878.913,1344.968ZM903.603,1352.464C901.547,1350.938 898.647,1351.368 897.121,1353.422C895.595,1355.476 896.025,1358.378 898.079,1359.904L903.603,1352.464ZM905.415,1365.25C907.497,1366.74 910.389,1366.26 911.879,1364.18C913.369,1362.1 912.889,1359.206 910.807,1357.716L905.415,1365.25ZM930.533,1371.148C928.385,1369.758 925.517,1370.372 924.127,1372.52C922.737,1374.668 923.351,1377.536 925.499,1378.926L930.533,1371.148ZM933.163,1383.792C935.335,1385.146 938.191,1384.482 939.543,1382.31C940.897,1380.138 940.233,1377.28 938.061,1375.928L933.163,1383.792ZM958.607,1388.068C956.373,1386.818 953.551,1387.616 952.301,1389.848C951.051,1392.08 951.847,1394.904 954.081,1396.154L958.607,1388.068ZM962.041,1400.518C964.295,1401.73 967.103,1400.884 968.313,1398.63C969.525,1396.376 968.679,1393.566 966.425,1392.356L962.041,1400.518ZM987.707,1403.154C985.399,1402.05 982.633,1403.026 981.529,1405.334C980.423,1407.642 981.399,1410.408 983.707,1411.514L987.707,1403.154ZM991.931,1415.36C994.259,1416.424 997.007,1415.398 998.071,1413.072C999.135,1410.746 998.111,1407.996 995.783,1406.932L991.931,1415.36ZM1017.713,1416.344C1015.339,1415.39 1012.641,1416.542 1011.687,1418.916C1010.733,1421.29 1011.885,1423.988 1014.259,1424.942L1017.713,1416.344ZM1022.713,1428.254C1025.103,1429.166 1027.781,1427.968 1028.693,1425.578C1029.605,1423.186 1028.407,1420.51 1026.017,1419.598L1022.713,1428.254ZM1048.503,1427.584C1046.073,1426.784 1043.455,1428.106 1042.655,1430.536C1041.855,1432.966 1043.177,1435.586 1045.607,1436.384L1048.503,1427.584ZM1054.255,1439.148C1056.699,1439.904 1059.295,1438.538 1060.051,1436.094C1060.809,1433.65 1059.441,1431.054 1056.997,1430.296L1054.255,1439.148ZM1079.951,1436.826C1077.475,1436.184 1074.945,1437.67 1074.303,1440.148C1073.661,1442.624 1075.147,1445.152 1077.625,1445.794L1079.951,1436.826ZM271.569,363.921C271.063,365.499 270.566,367.079 270.079,368.662L278.934,371.389C279.411,369.841 279.897,368.295 280.392,366.751L271.569,363.921ZM263.041,394.31C262.263,397.532 261.523,400.761 260.821,403.998L269.876,405.963C270.563,402.796 271.287,399.636 272.048,396.484L263.041,394.31ZM255.989,430.151C255.488,433.427 255.026,436.707 254.601,439.992L263.79,441.18C264.205,437.966 264.658,434.756 265.148,431.552L255.989,430.151ZM252.009,466.462C251.789,469.767 251.606,473.075 251.462,476.385L260.719,476.788C260.86,473.549 261.038,470.313 261.254,467.079L252.009,466.462ZM251.13,502.98C251.191,506.291 251.29,509.602 251.428,512.913L260.686,512.528C260.551,509.288 260.453,506.048 260.394,502.808L251.13,502.98ZM253.357,539.44C253.529,541.087 253.709,542.734 253.9,544.38L263.104,543.315C262.918,541.705 262.741,540.093 262.573,538.482L253.357,539.44ZM253.9,544.383C254.086,545.984 254.289,547.592 254.507,549.203L263.689,547.96C263.478,546.406 263.283,544.856 263.103,543.312L253.9,544.383ZM259.286,574.778C260.042,577.926 260.862,581.068 261.746,584.196L270.662,581.676C269.812,578.67 269.024,575.646 268.296,572.614L259.286,574.778ZM270.276,608.858C271.531,611.878 272.857,614.86 274.254,617.796L282.62,613.812C281.292,611.024 280.03,608.184 278.832,605.302L270.276,608.858ZM287.339,640.58C289.222,643.304 291.19,645.95 293.244,648.506L300.466,642.702C298.558,640.326 296.723,637.86 294.96,635.31L287.339,640.58ZM312.083,667.244C314.715,669.296 317.446,671.218 320.276,672.996L325.207,665.152C322.649,663.544 320.174,661.802 317.779,659.936L312.083,667.244ZM344.797,683.844C346.403,684.288 348.032,684.69 349.682,685.05L351.659,675.998C350.173,675.674 348.708,675.312 347.264,674.912L344.797,683.844ZM349.652,685.044C351.127,685.376 352.599,685.672 354.069,685.93L355.678,676.806C354.351,676.572 353.021,676.306 351.689,676.006L349.652,685.044ZM378.041,687.132C381.02,686.922 383.983,686.584 386.929,686.13L385.518,676.974C382.813,677.39 380.103,677.698 377.388,677.89L378.041,687.132ZM409.938,680.29C412.703,679.328 415.451,678.282 418.181,677.164L414.669,668.59C412.083,669.65 409.49,670.636 406.891,671.54L409.938,680.29ZM439.3,667.028C441.843,665.644 444.37,664.212 446.88,662.744L442.204,654.746C439.767,656.17 437.322,657.556 434.868,658.892L439.3,667.028ZM466.525,650.42C468.927,648.824 471.311,647.214 473.681,645.596L468.453,637.946C466.113,639.544 463.761,641.132 461.399,642.7L466.525,650.42ZM492.537,632.43C493.707,631.606 494.873,630.784 496.033,629.966L490.697,622.392C489.533,623.21 488.365,624.034 487.195,624.86L492.537,632.43ZM496.027,629.97C497.187,629.154 498.353,628.342 499.521,627.532L494.239,619.918C493.057,620.74 491.877,621.562 490.703,622.386L496.027,629.97ZM518.465,614.84C520.849,613.302 523.243,611.782 525.651,610.278L520.741,602.42C518.295,603.948 515.863,605.492 513.443,607.052L518.465,614.84ZM545.201,598.632C547.667,597.238 550.143,595.866 552.631,594.52L548.219,586.372C545.681,587.746 543.153,589.146 540.639,590.568L545.201,598.632ZM572.875,584.254C575.433,583.046 578.001,581.87 580.577,580.726L576.819,572.258C574.175,573.43 571.543,574.636 568.921,575.874L572.875,584.254ZM601.565,572.248C604.215,571.284 606.875,570.36 609.541,569.478L606.629,560.682C603.875,561.593 601.133,562.547 598.401,563.539L601.565,572.248ZM631.231,563.28C633.965,562.626 636.703,562.02 639.451,561.463L637.609,552.382C634.755,552.961 631.909,553.591 629.075,554.269L631.231,563.28ZM661.677,558.088C664.459,557.81 667.247,557.588 670.041,557.423L669.495,548.174C666.575,548.346 663.663,548.579 660.759,548.868L661.677,558.088ZM692.459,557.361C693.851,557.437 695.247,557.529 696.641,557.636L697.351,548.397C695.887,548.285 694.425,548.189 692.965,548.109L692.459,557.361ZM696.641,557.636C698.237,557.758 699.833,557.909 701.427,558.087L702.457,548.879C700.757,548.689 699.053,548.528 697.351,548.397L696.641,557.636ZM726.673,563.215C729.755,564.123 732.815,565.128 735.845,566.228L739.005,557.518C735.799,556.354 732.557,555.289 729.291,554.327L726.673,563.215ZM759.349,576.96C762.167,578.528 764.937,580.178 767.651,581.908L772.629,574.094C769.761,572.266 766.833,570.52 763.855,568.864L759.349,576.96ZM788.231,597.494C790.635,599.648 792.961,601.872 795.203,604.158L801.819,597.672C799.435,595.24 796.965,592.88 794.417,590.596L788.231,597.494ZM811.443,624.076C813.223,626.746 814.895,629.47 816.449,632.244L824.531,627.712C822.857,624.726 821.061,621.798 819.151,618.936L811.443,624.076ZM826.377,655.724C827.263,658.768 828.011,661.85 828.611,664.964L837.709,663.208C837.053,659.808 836.239,656.448 835.273,653.134L826.377,655.724ZM830.179,690.246C830.071,691.818 829.925,693.398 829.741,694.982L838.943,696.058C839.145,694.326 839.305,692.598 839.423,690.876L830.179,690.246ZM829.741,694.974C829.577,696.364 829.385,697.744 829.169,699.11L838.321,700.558C838.555,699.072 838.763,697.574 838.943,696.066L829.741,694.974ZM823.443,720.646C822.459,723.256 821.381,725.826 820.213,728.358L828.627,732.238C829.885,729.51 831.049,726.738 832.113,723.916L823.443,720.646ZM809.077,747.878C807.499,750.192 805.849,752.476 804.131,754.73L811.503,760.344C813.313,757.968 815.059,755.552 816.733,753.098L809.077,747.878ZM789.297,771.948C787.335,773.99 785.327,776.006 783.275,778L789.733,784.644C791.855,782.582 793.939,780.49 795.977,778.368L789.297,771.948ZM766.231,793.348C764.043,795.188 761.829,797.01 759.593,798.816L765.413,806.024C767.695,804.182 769.957,802.322 772.195,800.438L766.231,793.348ZM741.321,812.934C739.007,814.658 736.683,816.368 734.357,818.068L739.821,825.55C742.167,823.836 744.515,822.108 746.855,820.364L741.321,812.934ZM715.507,831.634C714.325,832.478 713.147,833.32 711.971,834.158L717.359,841.696C718.533,840.858 719.711,840.018 720.891,839.174L715.507,831.634ZM711.971,834.158C710.793,835.002 709.611,835.852 708.429,836.71L713.873,844.208C715.037,843.364 716.199,842.526 717.359,841.696L711.971,834.158ZM689.781,850.902C687.505,852.724 685.239,854.574 682.989,856.454L688.929,863.564C691.127,861.728 693.343,859.92 695.571,858.134L689.781,850.902ZM665.427,872.104C663.301,874.136 661.207,876.194 659.149,878.282L665.747,884.788C667.737,882.768 669.767,880.774 671.829,878.802L665.427,872.104ZM643.333,895.874C641.461,898.18 639.643,900.516 637.887,902.882L645.327,908.404C646.999,906.152 648.733,903.922 650.525,901.714L643.333,895.874ZM624.993,922.944C623.561,925.582 622.215,928.254 620.963,930.956L629.369,934.852C630.535,932.334 631.793,929.84 633.135,927.366L624.993,922.944ZM612.987,953.698C612.287,956.632 611.709,959.598 611.259,962.594L620.421,963.97C620.831,961.24 621.359,958.532 621.999,955.844L612.987,953.698ZM610.521,986.84C610.657,988.342 610.825,989.85 611.029,991.364L620.211,990.13C620.027,988.752 619.873,987.38 619.751,986.014L610.521,986.84ZM611.029,991.372C611.249,992.976 611.507,994.57 611.801,996.154L620.909,994.454C620.641,993.018 620.409,991.574 620.211,990.12L611.029,991.372ZM619.641,1020.698C620.967,1023.61 622.415,1026.466 623.973,1029.266L632.069,1024.758C630.627,1022.168 629.293,1019.534 628.071,1016.856L619.641,1020.698ZM638.499,1050.272C640.531,1052.704 642.645,1055.074 644.825,1057.378L651.555,1051.01C649.501,1048.84 647.515,1046.612 645.609,1044.33L638.499,1050.272ZM663.633,1074.42C664.879,1075.394 666.139,1076.348 667.407,1077.284L672.907,1069.828C671.705,1068.94 670.511,1068.036 669.329,1067.114L663.633,1074.42ZM667.403,1077.28C668.703,1078.242 670.017,1079.182 671.347,1080.1L676.619,1072.482C675.367,1071.616 674.131,1070.732 672.911,1069.83L667.403,1077.28ZM693.753,1093.078C696.657,1094.47 699.603,1095.78 702.585,1097.01L706.117,1088.444C703.293,1087.28 700.505,1086.038 697.757,1084.722L693.753,1093.078ZM727.115,1105.1C730.237,1105.886 733.377,1106.592 736.533,1107.214L738.325,1098.124C735.329,1097.532 732.345,1096.862 729.383,1096.116L727.115,1105.1ZM762.149,1110.42C765.369,1110.594 768.589,1110.682 771.803,1110.684L771.807,1101.418C768.761,1101.416 765.705,1101.332 762.651,1101.168L762.149,1110.42ZM797.591,1108.788C800.791,1108.308 803.969,1107.734 807.121,1107.068L805.203,1098.002C802.235,1098.63 799.237,1099.172 796.215,1099.626L797.591,1108.788ZM831.963,1099.588C834.981,1098.382 837.953,1097.078 840.871,1095.67L836.847,1087.324C834.127,1088.636 831.351,1089.856 828.527,1090.982L831.963,1099.588ZM863.123,1082.084C865.713,1080.112 868.229,1078.036 870.663,1075.854L864.479,1068.954C862.231,1070.968 859.907,1072.886 857.511,1074.71L863.123,1082.084ZM888.091,1056.358C889.035,1055.03 889.957,1053.676 890.853,1052.298L883.085,1047.246C882.259,1048.518 881.411,1049.764 880.539,1050.988L888.091,1056.358ZM890.855,1052.294C891.831,1050.79 892.771,1049.25 893.673,1047.682L885.637,1043.068C884.819,1044.492 883.967,1045.888 883.081,1047.252L890.855,1052.294ZM904.175,1020.74C904.947,1017.158 905.483,1013.53 905.741,1009.898L896.499,1009.238C896.273,1012.408 895.805,1015.602 895.117,1018.788L904.175,1020.74ZM900.919,980.706C900.147,979.004 899.281,977.33 898.313,975.69L890.333,980.396C891.129,981.746 891.843,983.126 892.479,984.53L900.919,980.706ZM898.315,975.692C897.513,974.33 896.663,973.024 895.767,971.772L888.231,977.164C888.967,978.192 889.667,979.268 890.331,980.394L898.315,975.692ZM876.799,955.748C874.033,954.384 871.155,953.254 868.191,952.346L865.475,961.204C867.989,961.976 870.403,962.924 872.699,964.058L876.799,955.748ZM844.103,949.46C841.131,949.58 838.141,949.856 835.153,950.28L836.455,959.454C839.147,959.072 841.827,958.824 844.475,958.718L844.103,949.46ZM812.109,956.466C809.347,957.566 806.629,958.784 803.973,960.116L808.121,968.4C810.541,967.188 813.019,966.078 815.537,965.076L812.109,956.466ZM784.043,973.294C782.903,974.276 781.791,975.286 780.709,976.32L787.113,983.016C788.075,982.094 789.069,981.194 790.089,980.316L784.043,973.294ZM780.703,976.326C779.625,977.362 778.563,978.414 777.523,979.48L784.153,985.952C785.125,984.956 786.113,983.974 787.119,983.01L780.703,976.326ZM762.335,997.962C760.641,1000.412 759.023,1002.914 757.481,1005.46L765.405,1010.262C766.855,1007.87 768.371,1005.524 769.959,1003.228L762.335,997.962ZM746.713,1026.734C745.575,1029.47 744.507,1032.238 743.511,1035.036L752.241,1038.142C753.183,1035.496 754.191,1032.878 755.267,1030.294L746.713,1026.734ZM737.075,1057.918C736.463,1060.81 735.921,1063.72 735.447,1066.644L744.593,1068.126C745.043,1065.348 745.559,1062.582 746.139,1059.834L737.075,1057.918ZM733.107,1090.252C732.995,1093.206 732.951,1096.164 732.975,1099.118L742.239,1099.046C742.217,1096.232 742.259,1093.414 742.365,1090.6L733.107,1090.252ZM734.587,1122.778C734.777,1124.244 734.983,1125.708 735.205,1127.168L744.365,1125.77C744.153,1124.38 743.955,1122.986 743.775,1121.588L734.587,1122.778ZM735.205,1127.168C735.429,1128.628 735.667,1130.086 735.919,1131.538L745.047,1129.956C744.807,1128.564 744.579,1127.168 744.365,1125.77L735.205,1127.168ZM741.177,1154.616C741.977,1157.452 742.829,1160.272 743.731,1163.074L752.551,1160.238C751.683,1157.54 750.865,1154.828 750.095,1152.1L741.177,1154.616ZM751.977,1185.198C753.123,1187.902 754.311,1190.588 755.541,1193.256L763.957,1189.378C762.765,1186.794 761.615,1184.196 760.509,1181.582L751.977,1185.198ZM766.217,1214.244C767.641,1216.804 769.099,1219.346 770.591,1221.868L778.567,1217.156C777.117,1214.7 775.697,1212.228 774.313,1209.74L766.217,1214.244ZM783.189,1241.696C784.833,1244.114 786.505,1246.514 788.199,1248.894L795.747,1243.518C794.089,1241.192 792.457,1238.848 790.851,1236.486L783.189,1241.696ZM802.311,1267.616C803.219,1268.758 804.131,1269.896 805.049,1271.028L812.249,1265.196C811.349,1264.086 810.453,1262.97 809.563,1261.85L802.311,1267.616ZM805.059,1271.042C806.017,1272.214 806.979,1273.384 807.945,1274.548L815.073,1268.628C814.123,1267.484 813.179,1266.336 812.239,1265.184L805.059,1271.042ZM823.901,1292.872C825.941,1295.108 828.001,1297.326 830.079,1299.524L836.813,1293.16C834.773,1291 832.749,1288.822 830.745,1286.626L823.901,1292.872ZM847.175,1316.786C849.355,1318.888 851.553,1320.968 853.767,1323.03L860.079,1316.246C857.903,1314.222 855.745,1312.178 853.605,1310.114L847.175,1316.786ZM871.935,1339.162C874.245,1341.118 876.571,1343.054 878.913,1344.968L884.777,1337.794C882.477,1335.914 880.193,1334.012 877.923,1332.092L871.935,1339.162ZM898.079,1359.904C900.509,1361.708 902.955,1363.49 905.415,1365.25L910.807,1357.716C908.391,1355.986 905.989,1354.236 903.603,1352.464L898.079,1359.904ZM925.499,1378.926C928.039,1380.57 930.593,1382.194 933.163,1383.792L938.061,1375.928C935.537,1374.356 933.029,1372.764 930.533,1371.148L925.499,1378.926ZM954.081,1396.154C956.721,1397.632 959.373,1399.086 962.041,1400.518L966.425,1392.356C963.805,1390.95 961.199,1389.52 958.607,1388.068L954.081,1396.154ZM983.707,1411.514C986.437,1412.818 989.179,1414.1 991.931,1415.36L995.783,1406.932C993.079,1405.696 990.387,1404.438 987.707,1403.154L983.707,1411.514ZM1014.259,1424.942C1017.065,1426.07 1019.883,1427.174 1022.713,1428.254L1026.017,1419.598C1023.237,1418.536 1020.471,1417.452 1017.713,1416.344L1014.259,1424.942ZM1045.607,1436.384C1048.481,1437.33 1051.363,1438.252 1054.255,1439.148L1056.997,1430.296C1054.157,1429.416 1051.325,1428.512 1048.503,1427.584L1045.607,1436.384ZM1077.625,1445.794C1079.089,1446.174 1080.557,1446.548 1082.025,1446.916L1084.273,1437.926C1082.831,1437.566 1081.389,1437.2 1079.951,1436.826L1077.625,1445.794Z" transform="rotate(275.062 669.419 903.879)" fill="#FFFFFF"/>
</g>
<g opacity="0.5">
<path d="M2538.283,231.501C2539.065,229.065 2537.723,226.456 2535.287,225.675C2532.85,224.893 2530.242,226.235 2529.46,228.671L2538.283,231.501ZM2513.54,437.74L2508.938,438.272L2508.938,438.274L2513.54,437.74ZM2620.755,596.73L2621.774,592.21C2621.763,592.208 2621.753,592.206 2621.743,592.202L2620.755,596.73ZM2786.744,533.51L2784.082,529.72L2784.076,529.724L2786.744,533.51ZM3023.618,448.406L3023.972,443.786L3023.618,448.406ZM3183.386,614.172L3187.986,614.718L3187.988,614.71L3183.386,614.172ZM3044.172,779.828L3046.866,783.598L3044.172,779.828ZM2928.958,957.594L2924.366,958.212L2924.368,958.22L2928.958,957.594ZM2992.398,1053.922L2995.152,1050.196L2995.148,1050.194L2992.398,1053.922ZM3244.604,1026.258L3248.488,1028.782L3248.49,1028.778L3244.604,1026.258ZM3253.158,942.818L3249.168,945.17L3249.168,945.17L3253.158,942.818ZM3124.722,944.706L3121.52,941.358L3121.514,941.364L3124.722,944.706ZM3153.498,1280.24L3149.9,1283.158L3149.91,1283.17L3153.498,1280.24ZM3471.688,1487.5C3474.17,1488.12 3476.686,1486.612 3477.306,1484.13C3477.926,1481.648 3476.418,1479.132 3473.936,1478.512L3471.688,1487.5ZM2528.013,233.259C2527.256,235.703 2528.622,238.298 2531.066,239.056C2533.51,239.814 2536.105,238.447 2536.863,236.003L2528.013,233.259ZM2530.005,260.32C2530.636,257.841 2529.137,255.319 2526.657,254.689C2524.178,254.058 2521.656,255.557 2521.025,258.036L2530.005,260.32ZM2518.744,267.381C2518.161,269.873 2519.709,272.365 2522.2,272.947C2524.691,273.53 2527.183,271.983 2527.766,269.492L2518.744,267.381ZM2522.648,294.234C2523.102,291.715 2521.428,289.307 2518.91,288.853C2516.392,288.4 2513.983,290.073 2513.529,292.592L2522.648,294.234ZM2511.916,302.075C2511.511,304.601 2513.231,306.978 2515.757,307.382C2518.284,307.787 2520.66,306.067 2521.065,303.541L2511.916,302.075ZM2517.713,328.583C2517.987,326.039 2516.146,323.755 2513.603,323.481C2511.059,323.207 2508.774,325.047 2508.501,327.591L2517.713,328.583ZM2507.563,337.165C2507.338,339.714 2509.222,341.962 2511.771,342.187C2514.32,342.412 2516.568,340.528 2516.793,337.979L2507.563,337.165ZM2515.224,363.196C2515.317,360.639 2513.319,358.491 2510.762,358.398C2508.205,358.305 2506.057,360.302 2505.964,362.859L2515.224,363.196ZM2505.708,372.476C2505.664,375.034 2507.702,377.143 2510.261,377.187C2512.819,377.23 2514.928,375.192 2514.972,372.633L2505.708,372.476ZM2515.193,397.898C2515.105,395.341 2512.96,393.34 2510.403,393.428C2507.846,393.517 2505.845,395.662 2505.933,398.219L2515.193,397.898ZM2506.359,407.828C2506.496,410.383 2508.679,412.343 2511.234,412.205C2513.789,412.067 2515.749,409.884 2515.611,407.329L2506.359,407.828ZM2517.622,432.514C2517.353,429.971 2515.072,428.126 2512.527,428.396C2509.983,428.665 2508.139,430.946 2508.408,433.49L2517.622,432.514ZM2509.517,442.934C2509.852,445.47 2512.18,447.254 2514.717,446.918C2517.254,446.584 2519.038,444.256 2518.703,441.718L2509.517,442.934ZM2522.903,465.738C2522.357,463.238 2519.888,461.656 2517.388,462.202C2514.889,462.748 2513.305,465.218 2513.852,467.716L2522.903,465.738ZM2516.009,476.876C2516.636,479.356 2519.155,480.858 2521.636,480.232C2524.117,479.604 2525.619,477.084 2524.992,474.604L2516.009,476.876ZM2532.027,497.904C2531.172,495.492 2528.524,494.23 2526.112,495.086C2523.701,495.94 2522.439,498.588 2523.294,501L2532.027,497.904ZM2526.614,509.828C2527.561,512.206 2530.256,513.366 2532.633,512.418C2535.01,511.472 2536.169,508.778 2535.222,506.4L2526.614,509.828ZM2545.436,528.37C2544.22,526.118 2541.41,525.278 2539.158,526.494C2536.907,527.71 2536.067,530.52 2537.283,532.772L2545.436,528.37ZM2541.994,541.008C2543.32,543.196 2546.169,543.894 2548.357,542.568C2550.545,541.242 2551.244,538.394 2549.918,536.206L2541.994,541.008ZM2563.874,555.768C2562.225,553.812 2559.302,553.562 2557.346,555.212C2555.39,556.862 2555.142,559.784 2556.791,561.74L2563.874,555.768ZM2563.204,568.846C2564.983,570.686 2567.916,570.736 2569.755,568.956C2571.594,567.178 2571.643,564.244 2569.865,562.406L2563.204,568.846ZM2588.025,577.726C2585.903,576.296 2583.024,576.86 2581.595,578.982C2580.166,581.104 2580.728,583.982 2582.85,585.412L2588.025,577.726ZM2591.088,590.452C2593.327,591.69 2596.146,590.88 2597.384,588.64C2598.622,586.402 2597.811,583.582 2595.572,582.344L2591.088,590.452ZM2617.439,591.16C2614.967,590.502 2612.429,591.972 2611.77,594.444C2611.111,596.916 2612.581,599.454 2615.054,600.114L2617.439,591.16ZM2624.84,602.272C2627.36,602.718 2629.763,601.034 2630.207,598.514C2630.651,595.996 2628.969,593.592 2626.449,593.148L2624.84,602.272ZM2651.887,594.42C2649.335,594.6 2647.412,596.814 2647.593,599.366C2647.773,601.92 2649.988,603.842 2652.541,603.662L2651.887,594.42ZM2662.817,602.504C2665.346,602.114 2667.08,599.748 2666.691,597.22C2666.301,594.69 2663.935,592.956 2661.407,593.346L2662.817,602.504ZM2686.402,586.992C2683.986,587.834 2682.709,590.474 2683.55,592.892C2684.392,595.308 2687.033,596.584 2689.449,595.742L2686.402,586.992ZM2699,592.12C2701.368,591.15 2702.501,588.444 2701.531,586.078C2700.562,583.71 2697.856,582.576 2695.488,583.546L2699,592.12ZM2719.058,572.228C2716.812,573.452 2715.982,576.266 2717.206,578.514C2718.43,580.76 2721.244,581.59 2723.492,580.366L2719.058,572.228ZM2732.29,575.394C2734.498,574.102 2735.242,571.266 2733.95,569.056C2732.658,566.848 2729.822,566.104 2727.612,567.396L2732.29,575.394ZM2749.978,553.36C2747.848,554.776 2747.268,557.652 2748.682,559.782C2750.098,561.914 2752.974,562.494 2755.104,561.078L2749.978,553.36ZM2763.42,555.474C2765.532,554.03 2766.074,551.146 2764.63,549.034C2763.186,546.922 2760.304,546.38 2758.192,547.824L2763.42,555.474ZM2780.004,532.596C2777.914,534.07 2777.414,536.96 2778.89,539.052C2780.364,541.142 2783.254,541.64 2785.346,540.166L2780.004,532.596ZM2792.964,534.818C2795.066,533.358 2795.584,530.47 2794.124,528.37C2792.666,526.268 2789.778,525.748 2787.676,527.208L2792.964,534.818ZM2807.166,514.07C2805.022,515.468 2804.42,518.338 2805.818,520.482C2807.216,522.624 2810.086,523.228 2812.23,521.828L2807.166,514.07ZM2819.522,517.132C2821.682,515.758 2822.32,512.896 2820.948,510.736C2819.576,508.576 2816.712,507.938 2814.552,509.31L2819.522,517.132ZM2834.64,497.042C2832.432,498.334 2831.69,501.172 2832.982,503.38C2834.274,505.588 2837.112,506.332 2839.32,505.038L2834.64,497.042ZM2846.828,500.72C2849.056,499.462 2849.842,496.636 2848.582,494.408C2847.324,492.18 2844.498,491.394 2842.27,492.654L2846.828,500.72ZM2863.046,481.508C2860.764,482.666 2859.852,485.454 2861.008,487.736C2862.166,490.018 2864.954,490.93 2867.236,489.772L2863.046,481.508ZM2874.982,485.934C2877.286,484.82 2878.25,482.05 2877.134,479.748C2876.02,477.444 2873.25,476.48 2870.946,477.594L2874.982,485.934ZM2892.478,467.882C2890.118,468.868 2889.004,471.582 2889.99,473.942C2890.974,476.304 2893.688,477.418 2896.05,476.432L2892.478,467.882ZM2904.046,473.198C2906.43,472.266 2907.604,469.578 2906.672,467.196C2905.74,464.814 2903.054,463.638 2900.67,464.57L2904.046,473.198ZM2922.984,456.664C2920.544,457.436 2919.192,460.04 2919.964,462.48C2920.736,464.918 2923.34,466.27 2925.78,465.498L2922.984,456.664ZM2934.018,463.012C2936.478,462.306 2937.898,459.74 2937.192,457.28C2936.486,454.822 2933.922,453.4 2931.462,454.106L2934.018,463.012ZM2954.504,448.446C2951.996,448.956 2950.378,451.402 2950.888,453.91C2951.398,456.416 2953.844,458.036 2956.352,457.524L2954.504,448.446ZM2964.788,455.946C2967.31,455.516 2969.006,453.122 2968.576,450.6C2968.144,448.078 2965.752,446.382 2963.228,446.812L2964.788,455.946ZM2986.824,443.86C2984.274,444.062 2982.368,446.292 2982.568,448.842C2982.77,451.394 2985,453.298 2987.55,453.098L2986.824,443.86ZM2996.098,452.58C2998.654,452.47 3000.638,450.31 3000.53,447.754C3000.42,445.198 2998.26,443.214 2995.704,443.322L2996.098,452.58ZM3019.522,443.488C3016.968,443.342 3014.778,445.292 3014.632,447.848C3014.486,450.402 3016.438,452.592 3018.992,452.738L3019.522,443.488ZM3027.458,453.402C3030.004,453.664 3032.28,451.814 3032.542,449.268C3032.804,446.724 3030.954,444.448 3028.41,444.186L3027.458,453.402ZM3051.876,448.222C3049.39,447.624 3046.888,449.154 3046.288,451.642C3045.69,454.13 3047.22,456.632 3049.708,457.23L3051.876,448.222ZM3057.876,459.404C3060.332,460.12 3062.904,458.708 3063.62,456.252C3064.336,453.796 3062.926,451.224 3060.47,450.508L3057.876,459.404ZM3082.832,458.552C3080.482,457.542 3077.756,458.628 3076.746,460.978C3075.734,463.328 3076.822,466.054 3079.172,467.064L3082.832,458.552ZM3086.872,470.582C3089.174,471.696 3091.946,470.732 3093.06,468.43C3094.174,466.126 3093.212,463.356 3090.908,462.242L3086.872,470.582ZM3111.632,473.842C3109.478,472.462 3106.612,473.088 3105.232,475.244C3103.852,477.398 3104.48,480.262 3106.634,481.644L3111.632,473.842ZM3113.656,486.368C3115.746,487.844 3118.636,487.346 3120.112,485.256C3121.588,483.166 3121.09,480.276 3119,478.8L3113.656,486.368ZM3137.538,493.676C3135.648,491.954 3132.718,492.09 3130.994,493.982C3129.272,495.874 3129.408,498.804 3131.3,500.528L3137.538,493.676ZM3137.408,506.364C3139.214,508.176 3142.148,508.182 3143.96,506.376C3145.772,504.57 3145.776,501.636 3143.97,499.824L3137.408,506.364ZM3159.612,517.798C3158.072,515.756 3155.166,515.35 3153.124,516.892C3151.082,518.432 3150.676,521.338 3152.216,523.38L3159.612,517.798ZM3157.102,530.236C3158.528,532.358 3161.406,532.924 3163.53,531.498C3165.654,530.07 3166.22,527.192 3164.794,525.068L3157.102,530.236ZM3176.546,545.902C3175.472,543.58 3172.72,542.568 3170.396,543.64C3168.074,544.714 3167.06,547.466 3168.134,549.79L3176.546,545.902ZM3171.404,557.5C3172.326,559.886 3175.01,561.072 3177.396,560.15C3179.782,559.226 3180.968,556.544 3180.046,554.158L3171.404,557.5ZM3186.66,577.25C3186.186,574.734 3183.762,573.082 3181.248,573.556C3178.734,574.03 3177.08,576.452 3177.554,578.966L3186.66,577.25ZM3178.806,587.21C3179.1,589.75 3181.398,591.574 3183.94,591.28C3186.482,590.988 3188.304,588.688 3188.012,586.148L3178.806,587.21ZM3188.43,610.214C3188.636,607.664 3186.734,605.43 3184.184,605.224C3181.634,605.02 3179.4,606.922 3179.196,609.472L3188.43,610.214ZM3178.222,617.78C3177.836,620.31 3179.574,622.674 3182.104,623.06C3184.634,623.444 3186.996,621.706 3187.382,619.178L3178.222,617.78ZM3181.686,642.47C3182.51,640.046 3181.212,637.416 3178.788,636.594C3176.366,635.772 3173.736,637.068 3172.912,639.492L3181.686,642.47ZM3169.97,647.336C3168.998,649.702 3170.128,652.41 3172.494,653.382C3174.86,654.356 3177.568,653.226 3178.54,650.858L3169.97,647.336ZM3167.766,672.172C3169.086,669.98 3168.378,667.134 3166.186,665.814C3163.994,664.494 3161.148,665.202 3159.828,667.394L3167.766,672.172ZM3155.294,674.51C3153.866,676.634 3154.432,679.512 3156.554,680.94C3158.678,682.366 3161.558,681.802 3162.984,679.678L3155.294,674.51ZM3148.616,698.544C3150.276,696.596 3150.042,693.672 3148.094,692.014C3146.146,690.354 3143.222,690.588 3141.562,692.536L3148.616,698.544ZM3135.932,698.912C3134.204,700.8 3134.334,703.73 3136.222,705.456C3138.11,707.184 3141.04,707.054 3142.768,705.166L3135.932,698.912ZM3126.16,721.882C3128.03,720.136 3128.13,717.204 3126.384,715.336C3124.638,713.466 3121.706,713.366 3119.836,715.112L3126.16,721.882ZM3113.512,720.876C3111.602,722.578 3111.432,725.506 3113.134,727.418C3114.836,729.328 3117.764,729.498 3119.674,727.796L3113.512,720.876ZM3101.762,742.908C3103.756,741.306 3104.074,738.39 3102.47,736.394C3100.868,734.4 3097.952,734.082 3095.958,735.686L3101.762,742.908ZM3089.212,741.024C3087.194,742.598 3086.834,745.51 3088.408,747.526C3089.982,749.544 3092.892,749.904 3094.91,748.33L3089.212,741.024ZM3076.294,762.396C3078.354,760.88 3078.796,757.98 3077.28,755.92C3075.764,753.858 3072.864,753.418 3070.802,754.934L3076.294,762.396ZM3063.826,760.028C3061.756,761.532 3061.294,764.428 3062.796,766.498C3064.3,768.57 3067.196,769.03 3069.266,767.528L3063.826,760.028ZM3050.386,781.082C3052.468,779.596 3052.952,776.702 3051.464,774.62C3049.976,772.538 3047.084,772.056 3045.002,773.542L3050.386,781.082ZM3037.952,778.598C3035.88,780.098 3035.416,782.996 3036.918,785.068C3038.418,787.14 3041.316,787.602 3043.388,786.102L3037.952,778.598ZM3025.042,799.926C3027.054,798.344 3027.404,795.432 3025.822,793.42C3024.242,791.408 3021.328,791.06 3019.318,792.64L3025.042,799.926ZM3012.5,798.092C3010.516,799.708 3010.216,802.626 3011.832,804.61C3013.446,806.594 3016.364,806.894 3018.348,805.278L3012.5,798.092ZM3000.964,820.184C3002.86,818.464 3003.004,815.536 3001.286,813.64C2999.568,811.744 2996.638,811.6 2994.742,813.318L3000.964,820.184ZM2988.32,819.27C2986.464,821.032 2986.388,823.964 2988.15,825.82C2989.912,827.676 2992.844,827.752 2994.7,825.992L2988.32,819.27ZM2978.71,842.258C2980.434,840.368 2980.298,837.438 2978.408,835.714C2976.516,833.99 2973.586,834.126 2971.862,836.016L2978.71,842.258ZM2966.04,842.604C2964.376,844.548 2964.604,847.472 2966.548,849.136C2968.492,850.8 2971.416,850.572 2973.08,848.628L2966.04,842.604ZM2959.178,866.544C2960.64,864.444 2960.122,861.556 2958.022,860.094C2955.922,858.634 2953.034,859.15 2951.572,861.252L2959.178,866.544ZM2946.674,868.626C2945.306,870.788 2945.95,873.65 2948.112,875.018C2950.274,876.386 2953.136,875.742 2954.504,873.58L2946.674,868.626ZM2943.768,893.34C2944.826,891.008 2943.794,888.264 2941.464,887.206C2939.134,886.15 2936.388,887.182 2935.33,889.512L2943.768,893.34ZM2931.888,897.744C2930.972,900.134 2932.168,902.814 2934.556,903.728C2936.946,904.644 2939.624,903.448 2940.54,901.058L2931.888,897.744ZM2934.444,922.48C2934.91,919.966 2933.25,917.546 2930.734,917.08C2928.22,916.612 2925.802,918.272 2925.334,920.788L2934.444,922.48ZM2924.018,929.682C2923.738,932.226 2925.574,934.514 2928.118,934.794C2930.66,935.074 2932.948,933.238 2933.228,930.694L2924.018,929.682ZM2933.072,952.842C2932.828,950.296 2930.566,948.43 2928.018,948.674C2925.472,948.918 2923.606,951.18 2923.85,953.728L2933.072,952.842ZM2925.012,962.368C2925.45,964.89 2927.85,966.576 2930.37,966.138C2932.89,965.7 2934.578,963.3 2934.14,960.78L2925.012,962.368ZM2939.604,980.7C2938.702,978.304 2936.032,977.092 2933.636,977.994C2931.242,978.894 2930.03,981.564 2930.93,983.96L2939.604,980.7ZM2934.12,991.676C2935.172,994.008 2937.916,995.046 2940.248,993.992C2942.58,992.94 2943.618,990.196 2942.566,987.864L2934.12,991.676ZM2952.614,1006.088C2951.212,1003.946 2948.34,1003.348 2946.2,1004.75C2944.06,1006.152 2943.462,1009.024 2944.864,1011.164L2952.614,1006.088ZM2949.592,1017.98C2951.104,1020.044 2954.004,1020.49 2956.068,1018.978C2958.132,1017.466 2958.578,1014.566 2957.066,1012.502L2949.592,1017.98ZM2970.526,1028.55C2968.764,1026.696 2965.83,1026.624 2963.978,1028.388C2962.124,1030.152 2962.05,1033.084 2963.814,1034.938L2970.526,1028.55ZM2969.636,1040.792C2971.48,1042.566 2974.412,1042.51 2976.186,1040.666C2977.96,1038.822 2977.904,1035.89 2976.062,1034.116L2969.636,1040.792ZM2992.006,1047.828C2989.978,1046.268 2987.07,1046.648 2985.51,1048.676C2983.95,1050.704 2984.33,1053.612 2986.358,1055.172L2992.006,1047.828ZM2993.636,1060.514C2995.734,1061.978 2998.622,1061.464 3000.086,1059.364C3001.55,1057.266 3001.036,1054.378 2998.936,1052.914L2993.636,1060.514ZM3020.372,1065.718C3018.09,1064.56 3015.302,1065.47 3014.144,1067.752C3012.986,1070.034 3013.898,1072.822 3016.18,1073.98L3020.372,1065.718ZM3025.032,1078.198C3027.368,1079.242 3030.108,1078.194 3031.152,1075.858C3032.196,1073.522 3031.148,1070.782 3028.81,1069.738L3025.032,1078.198ZM3052.272,1078.456C3049.822,1077.718 3047.238,1079.106 3046.5,1081.556C3045.762,1084.006 3047.15,1086.59 3049.6,1087.328L3052.272,1078.456ZM3059.04,1089.932C3061.522,1090.556 3064.038,1089.05 3064.662,1086.568C3065.286,1084.088 3063.778,1081.57 3061.298,1080.946L3059.04,1089.932ZM3085.922,1085.548C3083.384,1085.234 3081.07,1087.036 3080.756,1089.576C3080.44,1092.114 3082.244,1094.428 3084.782,1094.744L3085.922,1085.548ZM3094.524,1095.726C3097.074,1095.922 3099.304,1094.016 3099.5,1091.464C3099.698,1088.914 3097.792,1086.686 3095.24,1086.488L3094.524,1095.726ZM3120.272,1086.86C3117.716,1086.984 3115.746,1089.156 3115.87,1091.712C3115.994,1094.268 3118.166,1096.238 3120.722,1096.114L3120.272,1086.86ZM3130.5,1095.4C3133.048,1095.15 3134.91,1092.884 3134.66,1090.338C3134.412,1087.792 3132.146,1085.928 3129.598,1086.178L3130.5,1095.4ZM3154.234,1082.066C3151.746,1082.662 3150.212,1085.162 3150.81,1087.65C3151.406,1090.138 3153.906,1091.672 3156.394,1091.076L3154.234,1082.066ZM3165.89,1088.524C3168.34,1087.792 3169.734,1085.21 3169.002,1082.758C3168.27,1080.308 3165.69,1078.914 3163.238,1079.646L3165.89,1088.524ZM3186.454,1070.704C3184.148,1071.812 3183.176,1074.58 3184.284,1076.886C3185.392,1079.192 3188.16,1080.164 3190.466,1079.056L3186.454,1070.704ZM3199.224,1074.504C3201.454,1073.252 3202.248,1070.428 3200.996,1068.196C3199.744,1065.964 3196.92,1065.17 3194.69,1066.422L3199.224,1074.504ZM3215.118,1052.434C3213.148,1054.066 3212.876,1056.988 3214.508,1058.958C3216.142,1060.926 3219.062,1061.2 3221.032,1059.566L3215.118,1052.434ZM3228.426,1052.98C3230.276,1051.212 3230.34,1048.278 3228.572,1046.43C3226.802,1044.582 3223.87,1044.516 3222.022,1046.286L3228.426,1052.98ZM3238.122,1027.57C3236.65,1029.664 3237.154,1032.554 3239.246,1034.026C3241.34,1035.498 3244.23,1034.994 3245.702,1032.902L3238.122,1027.57ZM3250.692,1025.244C3252.006,1023.048 3251.292,1020.204 3249.096,1018.89C3246.9,1017.576 3244.056,1018.292 3242.742,1020.486L3250.692,1025.244ZM3251.496,1001.996C3250.636,1004.406 3251.894,1007.056 3254.304,1007.914C3256.714,1008.774 3259.364,1007.518 3260.222,1005.108L3251.496,1001.996ZM3262.718,997.124C3263.382,994.652 3261.918,992.112 3259.446,991.448C3256.976,990.784 3254.434,992.248 3253.77,994.72L3262.718,997.124ZM3256.626,974.744C3256.602,977.302 3258.654,979.398 3261.214,979.422C3263.772,979.448 3265.866,977.394 3265.892,974.836L3256.626,974.744ZM3265.498,966.326C3265.232,963.78 3262.954,961.934 3260.41,962.198C3257.864,962.464 3256.016,964.742 3256.282,967.288L3265.498,966.326ZM3250.916,948.396C3252.054,950.686 3254.836,951.622 3257.126,950.484C3259.418,949.344 3260.352,946.564 3259.214,944.274L3250.916,948.396ZM3254.222,935.962C3252.734,933.882 3249.84,933.402 3247.76,934.892C3245.678,936.38 3245.2,939.274 3246.688,941.356L3254.222,935.962ZM3228.34,925.87C3230.634,927.002 3233.412,926.06 3234.544,923.764C3235.676,921.47 3234.734,918.692 3232.44,917.56L3228.34,925.87ZM3222.538,913.648C3220.092,912.898 3217.502,914.272 3216.752,916.718C3216.002,919.166 3217.376,921.756 3219.822,922.506L3222.538,913.648ZM3195.144,919.582C3197.7,919.478 3199.688,917.322 3199.586,914.766C3199.482,912.21 3197.326,910.22 3194.77,910.324L3195.144,919.582ZM3184.436,911.272C3181.902,911.632 3180.14,913.976 3180.5,916.51C3180.86,919.042 3183.204,920.804 3185.738,920.446L3184.436,911.272ZM3161.23,927.03C3163.608,926.084 3164.768,923.39 3163.822,921.012C3162.874,918.636 3160.18,917.476 3157.804,918.422L3161.23,927.03ZM3148.398,922.64C3146.11,923.784 3145.184,926.568 3146.33,928.856C3147.476,931.144 3150.26,932.07 3152.546,930.924L3148.398,922.64ZM3131.416,944.888C3133.354,943.218 3133.572,940.292 3131.904,938.354C3130.234,936.416 3127.308,936.198 3125.37,937.866L3131.416,944.888ZM3117.832,945.018C3116.044,946.85 3116.08,949.782 3117.912,951.568C3119.744,953.356 3122.676,953.32 3124.464,951.488L3117.832,945.018ZM3107.87,971.684C3109.324,969.58 3108.796,966.694 3106.69,965.24C3104.586,963.786 3101.7,964.312 3100.246,966.418L3107.87,971.684ZM3094.624,975.102C3093.298,977.29 3093.998,980.138 3096.186,981.464C3098.374,982.79 3101.222,982.092 3102.548,979.904L3094.624,975.102ZM3090.704,1003.308C3091.688,1000.946 3090.57,998.234 3088.208,997.25C3085.846,996.268 3083.134,997.384 3082.15,999.746L3090.704,1003.308ZM3078.44,1009.368C3077.582,1011.78 3078.842,1014.428 3081.252,1015.286C3083.662,1016.144 3086.312,1014.884 3087.17,1012.474L3078.44,1009.368ZM3080.044,1037.804C3080.574,1035.302 3078.974,1032.842 3076.47,1032.314C3073.968,1031.784 3071.508,1033.384 3070.98,1035.888L3080.044,1037.804ZM3069.092,1046.004C3068.682,1048.528 3070.398,1050.908 3072.924,1051.318C3075.45,1051.728 3077.828,1050.012 3078.238,1047.486L3069.092,1046.004ZM3075.638,1073.722C3075.734,1071.166 3073.74,1069.014 3071.184,1068.918C3068.626,1068.822 3066.476,1070.818 3066.38,1073.374L3075.638,1073.722ZM3066.226,1083.652C3066.246,1086.21 3068.336,1088.268 3070.894,1088.248C3073.452,1088.23 3075.512,1086.14 3075.492,1083.58L3066.226,1083.652ZM3077.284,1109.894C3076.956,1107.356 3074.632,1105.566 3072.096,1105.894C3069.558,1106.222 3067.768,1108.546 3068.096,1111.084L3077.284,1109.894ZM3069.64,1121.242C3070.078,1123.764 3072.476,1125.452 3074.996,1125.014C3077.518,1124.578 3079.206,1122.18 3078.77,1119.658L3069.64,1121.242ZM3084.658,1145.496C3083.964,1143.032 3081.404,1141.6 3078.942,1142.294C3076.48,1142.988 3075.046,1145.548 3075.74,1148.01L3084.658,1145.496ZM3078.702,1157.824C3079.486,1160.26 3082.096,1161.6 3084.53,1160.816C3086.966,1160.034 3088.306,1157.424 3087.524,1154.988L3078.702,1157.824ZM3096.802,1179.88C3095.804,1177.524 3093.086,1176.424 3090.73,1177.422C3088.374,1178.42 3087.274,1181.14 3088.272,1183.496L3096.802,1179.88ZM3092.408,1192.848C3093.478,1195.172 3096.23,1196.188 3098.554,1195.116C3100.878,1194.046 3101.894,1191.294 3100.824,1188.97L3092.408,1192.848ZM3112.898,1212.706C3111.654,1210.472 3108.832,1209.666 3106.596,1210.91C3104.36,1212.154 3103.556,1214.976 3104.8,1217.212L3112.898,1212.706ZM3109.878,1226.062C3111.18,1228.266 3114.02,1228.996 3116.222,1227.694C3118.426,1226.394 3119.156,1223.552 3117.854,1221.35L3109.878,1226.062ZM3132.17,1243.876C3130.732,1241.76 3127.85,1241.212 3125.734,1242.65C3123.618,1244.09 3123.07,1246.97 3124.508,1249.086L3132.17,1243.876ZM3130.326,1257.446C3131.81,1259.53 3134.704,1260.016 3136.788,1258.532C3138.872,1257.048 3139.358,1254.156 3137.874,1252.07L3130.326,1257.446ZM3153.97,1273.426C3152.376,1271.424 3149.462,1271.09 3147.46,1272.682C3145.458,1274.276 3145.124,1277.19 3146.716,1279.192L3153.97,1273.426ZM3152.956,1286.874C3154.59,1288.844 3157.51,1289.116 3159.48,1287.484C3161.45,1285.85 3161.722,1282.93 3160.088,1280.96L3152.956,1286.874ZM3176.626,1300.066C3174.912,1298.166 3171.982,1298.018 3170.084,1299.734C3168.184,1301.448 3168.036,1304.378 3169.752,1306.276L3176.626,1300.066ZM3176.236,1313.34C3177.98,1315.212 3180.912,1315.314 3182.782,1313.568C3184.654,1311.824 3184.756,1308.892 3183.012,1307.02L3176.236,1313.34ZM3200.634,1325.13C3198.812,1323.334 3195.878,1323.358 3194.082,1325.18C3192.288,1327.002 3192.31,1329.936 3194.132,1331.732L3200.634,1325.13ZM3201.018,1338.406C3202.868,1340.172 3205.8,1340.102 3207.568,1338.252C3209.334,1336.4 3209.264,1333.468 3207.414,1331.702L3201.018,1338.406ZM3226.062,1348.752C3224.138,1347.066 3221.21,1347.26 3219.524,1349.184C3217.838,1351.11 3218.032,1354.036 3219.956,1355.722L3226.062,1348.752ZM3227.218,1361.984C3229.17,1363.638 3232.092,1363.398 3233.748,1361.448C3235.404,1359.496 3235.164,1356.574 3233.212,1354.918L3227.218,1361.984ZM3252.824,1370.854C3250.804,1369.282 3247.894,1369.646 3246.322,1371.666C3244.752,1373.684 3245.114,1376.596 3247.134,1378.166L3252.824,1370.854ZM3254.748,1383.994C3256.792,1385.532 3259.698,1385.124 3261.236,1383.078C3262.776,1381.034 3262.366,1378.13 3260.322,1376.592L3254.748,1383.994ZM3280.828,1391.358C3278.72,1389.906 3275.836,1390.44 3274.384,1392.546C3272.934,1394.654 3273.466,1397.538 3275.574,1398.99L3280.828,1391.358ZM3283.516,1404.364C3285.646,1405.78 3288.522,1405.202 3289.938,1403.072C3291.356,1400.942 3290.778,1398.066 3288.648,1396.648L3283.516,1404.364ZM3309.978,1410.194C3307.79,1408.868 3304.942,1409.568 3303.616,1411.758C3302.29,1413.946 3302.99,1416.794 3305.18,1418.12L3309.978,1410.194ZM3313.42,1423.022C3315.63,1424.312 3318.466,1423.568 3319.758,1421.358C3321.048,1419.148 3320.302,1416.312 3318.094,1415.022L3313.42,1423.022ZM3340.178,1427.302C3337.916,1426.106 3335.114,1426.97 3333.918,1429.232C3332.722,1431.494 3333.586,1434.298 3335.848,1435.492L3340.178,1427.302ZM3344.36,1439.906C3346.642,1441.066 3349.43,1440.156 3350.59,1437.876C3351.75,1435.596 3350.84,1432.806 3348.56,1431.646L3344.36,1439.906ZM3371.324,1442.618C3368.996,1441.556 3366.248,1442.584 3365.186,1444.912C3364.124,1447.24 3365.15,1449.988 3367.478,1451.048L3371.324,1442.618ZM3376.234,1454.958C3378.578,1455.984 3381.308,1454.914 3382.334,1452.568C3383.358,1450.224 3382.288,1447.494 3379.944,1446.468L3376.234,1454.958ZM3403.308,1456.096C3400.922,1455.17 3398.238,1456.356 3397.314,1458.742C3396.39,1461.128 3397.574,1463.81 3399.96,1464.734L3403.308,1456.096ZM3408.928,1468.128C3411.328,1469.014 3413.992,1467.786 3414.878,1465.386C3415.766,1462.986 3414.538,1460.322 3412.138,1459.436L3408.928,1468.128ZM3436.022,1467.684C3433.588,1466.9 3430.978,1468.24 3430.194,1470.676C3429.41,1473.112 3430.75,1475.72 3433.184,1476.504L3436.022,1467.684ZM3442.336,1479.368C3444.784,1480.114 3447.372,1478.734 3448.116,1476.286C3448.862,1473.838 3447.48,1471.25 3445.034,1470.504L3442.336,1479.368ZM3469.358,1477.346C3466.88,1476.706 3464.354,1478.196 3463.714,1480.672C3463.072,1483.15 3464.562,1485.678 3467.038,1486.318L3469.358,1477.346ZM2529.46,228.671C2528.971,230.199 2528.488,231.728 2528.013,233.259L2536.863,236.003C2537.329,234.501 2537.803,233 2538.283,231.501L2529.46,228.671ZM2521.025,258.036C2520.235,261.145 2519.474,264.26 2518.744,267.381L2527.766,269.492C2528.483,266.428 2529.229,263.371 2530.005,260.32L2521.025,258.036ZM2513.529,292.592C2512.961,295.748 2512.423,298.909 2511.916,302.075L2521.065,303.541C2521.562,300.434 2522.09,297.331 2522.648,294.234L2513.529,292.592ZM2508.501,327.591C2508.157,330.779 2507.845,333.971 2507.563,337.165L2516.793,337.979C2517.069,334.844 2517.376,331.712 2517.713,328.583L2508.501,327.591ZM2505.964,362.859C2505.848,366.063 2505.762,369.269 2505.708,372.476L2514.972,372.633C2515.025,369.486 2515.109,366.34 2515.224,363.196L2505.964,362.859ZM2505.933,398.219C2506.044,401.422 2506.186,404.625 2506.359,407.828L2515.611,407.329C2515.441,404.186 2515.302,401.042 2515.193,397.898L2505.933,398.219ZM2508.408,433.49C2508.577,435.084 2508.753,436.678 2508.938,438.272L2518.142,437.208C2517.961,435.644 2517.788,434.08 2517.622,432.514L2508.408,433.49ZM2508.938,438.274C2509.118,439.824 2509.311,441.376 2509.517,442.934L2518.703,441.718C2518.503,440.21 2518.316,438.704 2518.141,437.204L2508.938,438.274ZM2513.852,467.716C2514.52,470.774 2515.239,473.828 2516.009,476.876L2524.992,474.604C2524.247,471.656 2523.551,468.698 2522.903,465.738L2513.852,467.716ZM2523.294,501C2524.346,503.968 2525.453,506.912 2526.614,509.828L2535.222,506.4C2534.106,503.596 2533.041,500.762 2532.027,497.904L2523.294,501ZM2537.283,532.772C2538.791,535.566 2540.362,538.314 2541.994,541.008L2549.918,536.206C2548.368,533.648 2546.874,531.034 2545.436,528.37L2537.283,532.772ZM2556.791,561.74C2558.857,564.19 2560.994,566.56 2563.204,568.846L2569.865,562.406C2567.806,560.276 2565.809,558.062 2563.874,555.768L2556.791,561.74ZM2582.85,585.412C2585.517,587.208 2588.263,588.89 2591.088,590.452L2595.572,582.344C2592.988,580.916 2590.473,579.374 2588.025,577.726L2582.85,585.412ZM2615.054,600.114C2616.607,600.528 2618.178,600.908 2619.767,601.256L2621.743,592.202C2620.291,591.886 2618.857,591.538 2617.439,591.16L2615.054,600.114ZM2619.737,601.248C2621.44,601.632 2623.141,601.974 2624.84,602.272L2626.449,593.148C2624.893,592.874 2623.335,592.562 2621.774,592.21L2619.737,601.248ZM2652.541,603.662C2655.985,603.418 2659.411,603.028 2662.817,602.504L2661.407,593.346C2658.24,593.834 2655.067,594.194 2651.887,594.42L2652.541,603.662ZM2689.449,595.742C2692.652,594.628 2695.836,593.416 2699,592.12L2695.488,583.546C2692.468,584.784 2689.439,585.936 2686.402,586.992L2689.449,595.742ZM2723.492,580.366C2726.442,578.758 2729.374,577.098 2732.29,575.394L2727.612,567.396C2724.772,569.056 2721.92,570.67 2719.058,572.228L2723.492,580.366ZM2755.104,561.078C2757.894,559.226 2760.666,557.354 2763.42,555.474L2758.192,547.824C2755.468,549.686 2752.73,551.534 2749.978,553.36L2755.104,561.078ZM2785.346,540.166C2786.706,539.206 2788.062,538.25 2789.412,537.298L2784.076,529.724C2782.724,530.676 2781.366,531.634 2780.004,532.596L2785.346,540.166ZM2789.406,537.302C2790.59,536.472 2791.776,535.644 2792.964,534.818L2787.676,527.208C2786.476,528.044 2785.278,528.88 2784.082,529.72L2789.406,537.302ZM2812.23,521.828C2814.65,520.25 2817.08,518.682 2819.522,517.132L2814.552,509.31C2812.078,510.884 2809.616,512.47 2807.166,514.07L2812.23,521.828ZM2839.32,505.038C2841.814,503.58 2844.316,502.14 2846.828,500.72L2842.27,492.654C2839.716,494.096 2837.172,495.56 2834.64,497.042L2839.32,505.038ZM2867.236,489.772C2869.808,488.468 2872.392,487.188 2874.982,485.934L2870.946,477.594C2868.302,478.874 2865.67,480.178 2863.046,481.508L2867.236,489.772ZM2896.05,476.432C2898.706,475.322 2901.372,474.244 2904.046,473.198L2900.67,464.57C2897.93,465.642 2895.2,466.746 2892.478,467.882L2896.05,476.432ZM2925.78,465.498C2928.518,464.632 2931.264,463.802 2934.018,463.012L2931.462,454.106C2928.626,454.92 2925.8,455.774 2922.984,456.664L2925.78,465.498ZM2956.352,457.524C2959.158,456.954 2961.97,456.426 2964.788,455.946L2963.228,446.812C2960.312,447.31 2957.404,447.856 2954.504,448.446L2956.352,457.524ZM2987.55,453.098C2990.394,452.874 2993.244,452.7 2996.098,452.58L2995.704,443.322C2992.738,443.448 2989.778,443.628 2986.824,443.86L2987.55,453.098ZM3018.992,452.738C3020.414,452.82 3021.838,452.916 3023.264,453.024L3023.972,443.786C3022.488,443.672 3021.004,443.572 3019.522,443.488L3018.992,452.738ZM3023.264,453.024C3024.662,453.132 3026.06,453.258 3027.458,453.402L3028.41,444.186C3026.932,444.032 3025.452,443.9 3023.972,443.786L3023.264,453.024ZM3049.708,457.23C3052.444,457.888 3055.168,458.614 3057.876,459.404L3060.47,450.508C3057.62,449.678 3054.756,448.916 3051.876,448.222L3049.708,457.23ZM3079.172,467.064C3081.764,468.178 3084.33,469.352 3086.872,470.582L3090.908,462.242C3088.244,460.952 3085.55,459.722 3082.832,458.552L3079.172,467.064ZM3106.634,481.644C3109.012,483.168 3111.354,484.744 3113.656,486.368L3119,478.8C3116.584,477.094 3114.128,475.44 3111.632,473.842L3106.634,481.644ZM3131.3,500.528C3133.388,502.428 3135.426,504.376 3137.408,506.364L3143.97,499.824C3141.882,497.728 3139.736,495.678 3137.538,493.676L3131.3,500.528ZM3152.216,523.38C3153.912,525.628 3155.542,527.914 3157.102,530.236L3164.794,525.068C3163.138,522.604 3161.41,520.18 3159.612,517.798L3152.216,523.38ZM3168.134,549.79C3169.308,552.33 3170.4,554.9 3171.404,557.5L3180.046,554.158C3178.968,551.372 3177.8,548.62 3176.546,545.902L3168.134,549.79ZM3177.554,578.966C3178.068,581.692 3178.488,584.442 3178.806,587.21L3188.012,586.148C3187.666,583.156 3187.214,580.19 3186.66,577.25L3177.554,578.966ZM3179.196,609.472C3179.084,610.856 3178.948,612.242 3178.784,613.634L3187.988,614.71C3188.164,613.208 3188.31,611.71 3188.43,610.214L3179.196,609.472ZM3178.786,613.626C3178.62,615.022 3178.432,616.406 3178.222,617.78L3187.382,619.178C3187.608,617.7 3187.808,616.214 3187.986,614.718L3178.786,613.626ZM3172.912,639.492C3172.014,642.14 3171.032,644.756 3169.97,647.336L3178.54,650.858C3179.674,648.102 3180.724,645.306 3181.686,642.47L3172.912,639.492ZM3159.828,667.394C3158.382,669.794 3156.87,672.166 3155.294,674.51L3162.984,679.678C3164.642,677.212 3166.238,674.71 3167.766,672.172L3159.828,667.394ZM3141.562,692.536C3139.734,694.684 3137.854,696.808 3135.932,698.912L3142.768,705.166C3144.762,702.986 3146.712,700.78 3148.616,698.544L3141.562,692.536ZM3119.836,715.112C3117.76,717.052 3115.65,718.972 3113.512,720.876L3119.674,727.796C3121.864,725.846 3124.028,723.876 3126.16,721.882L3119.836,715.112ZM3095.958,735.686C3093.726,737.48 3091.476,739.258 3089.212,741.024L3094.91,748.33C3097.206,746.538 3099.492,744.732 3101.762,742.908L3095.958,735.686ZM3070.802,754.934C3068.48,756.642 3066.154,758.34 3063.826,760.028L3069.266,767.528C3071.608,765.83 3073.952,764.12 3076.294,762.396L3070.802,754.934ZM3045.002,773.542C3043.824,774.384 3042.65,775.222 3041.478,776.06L3046.866,783.598C3048.036,782.762 3049.21,781.922 3050.386,781.082L3045.002,773.542ZM3041.478,776.06C3040.304,776.9 3039.128,777.746 3037.952,778.598L3043.388,786.102C3044.548,785.26 3045.708,784.426 3046.866,783.598L3041.478,776.06ZM3019.318,792.64C3017.036,794.434 3014.762,796.25 3012.5,798.092L3018.348,805.278C3020.568,803.472 3022.802,801.686 3025.042,799.926L3019.318,792.64ZM2994.742,813.318C2992.578,815.278 2990.436,817.262 2988.32,819.27L2994.7,825.992C2996.762,824.034 2998.85,822.098 3000.964,820.184L2994.742,813.318ZM2971.862,836.016C2969.882,838.188 2967.94,840.384 2966.04,842.604L2973.08,848.628C2974.914,846.484 2976.792,844.362 2978.71,842.258L2971.862,836.016ZM2951.572,861.252C2949.88,863.684 2948.246,866.142 2946.674,868.626L2954.504,873.58C2956,871.216 2957.56,868.87 2959.178,866.544L2951.572,861.252ZM2935.33,889.512C2934.098,892.228 2932.948,894.974 2931.888,897.744L2940.54,901.058C2941.532,898.466 2942.61,895.894 2943.768,893.34L2935.33,889.512ZM2925.334,920.788C2924.788,923.728 2924.346,926.692 2924.018,929.682L2933.228,930.694C2933.532,927.938 2933.938,925.2 2934.444,922.48L2925.334,920.788ZM2923.85,953.728C2923.992,955.218 2924.164,956.712 2924.366,958.212L2933.55,956.978C2933.364,955.594 2933.204,954.216 2933.072,952.842L2923.85,953.728ZM2924.368,958.22C2924.556,959.61 2924.772,960.994 2925.012,962.368L2934.14,960.78C2933.92,959.514 2933.722,958.244 2933.548,956.968L2924.368,958.22ZM2930.93,983.96C2931.91,986.566 2932.976,989.138 2934.12,991.676L2942.566,987.864C2941.5,985.504 2940.512,983.116 2939.604,980.7L2930.93,983.96ZM2944.864,1011.164C2946.378,1013.476 2947.956,1015.748 2949.592,1017.98L2957.066,1012.502C2955.522,1010.398 2954.038,1008.258 2952.614,1006.088L2944.864,1011.164ZM2963.814,1034.938C2965.712,1036.932 2967.654,1038.884 2969.636,1040.792L2976.062,1034.116C2974.176,1032.3 2972.328,1030.444 2970.526,1028.55L2963.814,1034.938ZM2986.358,1055.172C2987.448,1056.01 2988.544,1056.836 2989.648,1057.65L2995.148,1050.194C2994.094,1049.416 2993.048,1048.628 2992.006,1047.828L2986.358,1055.172ZM2989.644,1057.648C2990.962,1058.62 2992.292,1059.576 2993.636,1060.514L2998.936,1052.914C2997.662,1052.026 2996.4,1051.12 2995.152,1050.196L2989.644,1057.648ZM3016.18,1073.98C3019.092,1075.458 3022.046,1076.864 3025.032,1078.198L3028.81,1069.738C3025.962,1068.466 3023.148,1067.126 3020.372,1065.718L3016.18,1073.98ZM3049.6,1087.328C3052.726,1088.268 3055.874,1089.138 3059.04,1089.932L3061.298,1080.946C3058.27,1080.186 3055.26,1079.356 3052.272,1078.456L3049.6,1087.328ZM3084.782,1094.744C3088.024,1095.146 3091.274,1095.472 3094.524,1095.726L3095.24,1086.488C3092.132,1086.246 3089.024,1085.934 3085.922,1085.548L3084.782,1094.744ZM3120.722,1096.114C3123.994,1095.954 3127.254,1095.716 3130.5,1095.4L3129.598,1086.178C3126.504,1086.48 3123.394,1086.708 3120.272,1086.86L3120.722,1096.114ZM3156.394,1091.076C3159.59,1090.31 3162.756,1089.46 3165.89,1088.524L3163.238,1079.646C3160.27,1080.532 3157.266,1081.338 3154.234,1082.066L3156.394,1091.076ZM3190.466,1079.056C3193.436,1077.63 3196.356,1076.112 3199.224,1074.504L3194.69,1066.422C3191.996,1067.934 3189.25,1069.362 3186.454,1070.704L3190.466,1079.056ZM3221.032,1059.566C3223.568,1057.464 3226.034,1055.27 3228.426,1052.98L3222.022,1046.286C3219.79,1048.42 3217.488,1050.47 3215.118,1052.434L3221.032,1059.566ZM3245.702,1032.902C3246.652,1031.55 3247.58,1030.178 3248.488,1028.782L3240.72,1023.732C3239.874,1025.032 3239.008,1026.312 3238.122,1027.57L3245.702,1032.902ZM3248.49,1028.778C3249.244,1027.618 3249.978,1026.44 3250.692,1025.244L3242.742,1020.486C3242.084,1021.586 3241.41,1022.67 3240.718,1023.736L3248.49,1028.778ZM3260.222,1005.108C3261.16,1002.478 3261.996,999.814 3262.718,997.124L3253.77,994.72C3253.114,997.164 3252.352,999.592 3251.496,1001.996L3260.222,1005.108ZM3265.892,974.836C3265.92,971.99 3265.792,969.148 3265.498,966.326L3256.282,967.288C3256.538,969.744 3256.65,972.234 3256.626,974.744L3265.892,974.836ZM3259.214,944.274C3258.576,942.988 3257.888,941.718 3257.15,940.466L3249.168,945.17C3249.794,946.232 3250.376,947.306 3250.916,948.396L3259.214,944.274ZM3257.15,940.466C3256.23,938.902 3255.252,937.402 3254.222,935.962L3246.688,941.356C3247.556,942.568 3248.384,943.84 3249.168,945.17L3257.15,940.466ZM3232.44,917.56C3229.26,915.992 3225.95,914.694 3222.538,913.648L3219.822,922.506C3222.784,923.414 3225.632,924.534 3228.34,925.87L3232.44,917.56ZM3194.77,910.324C3191.34,910.462 3187.888,910.782 3184.436,911.272L3185.738,920.446C3188.894,919.998 3192.036,919.708 3195.144,919.582L3194.77,910.324ZM3157.804,918.422C3154.612,919.692 3151.47,921.102 3148.398,922.64L3152.546,930.924C3155.382,929.504 3158.282,928.204 3161.23,927.03L3157.804,918.422ZM3125.37,937.866C3124.052,939 3122.768,940.166 3121.52,941.358L3127.924,948.054C3129.054,946.974 3130.218,945.918 3131.416,944.888L3125.37,937.866ZM3121.514,941.364C3120.266,942.564 3119.038,943.782 3117.832,945.018L3124.464,951.488C3125.6,950.324 3126.756,949.178 3127.932,948.048L3121.514,941.364ZM3100.246,966.418C3098.286,969.256 3096.412,972.152 3094.624,975.102L3102.548,979.904C3104.242,977.11 3106.016,974.368 3107.87,971.684L3100.246,966.418ZM3082.15,999.746C3080.83,1002.918 3079.594,1006.126 3078.44,1009.368L3087.17,1012.474C3088.27,1009.384 3089.448,1006.326 3090.704,1003.308L3082.15,999.746ZM3070.98,1035.888C3070.27,1039.242 3069.642,1042.614 3069.092,1046.004L3078.238,1047.486C3078.764,1044.242 3079.366,1041.012 3080.044,1037.804L3070.98,1035.888ZM3066.38,1073.374C3066.252,1076.798 3066.2,1080.226 3066.226,1083.652L3075.492,1083.58C3075.466,1080.294 3075.516,1077.006 3075.638,1073.722L3066.38,1073.374ZM3068.096,1111.084C3068.316,1112.784 3068.554,1114.48 3068.814,1116.172L3077.972,1114.774C3077.724,1113.152 3077.496,1111.524 3077.284,1109.894L3068.096,1111.084ZM3068.814,1116.172C3069.072,1117.868 3069.348,1119.556 3069.64,1121.242L3078.77,1119.658C3078.488,1118.034 3078.222,1116.406 3077.972,1114.774L3068.814,1116.172ZM3075.74,1148.01C3076.668,1151.3 3077.656,1154.572 3078.702,1157.824L3087.524,1154.988C3086.512,1151.84 3085.556,1148.676 3084.658,1145.496L3075.74,1148.01ZM3088.272,1183.496C3089.602,1186.632 3090.98,1189.75 3092.408,1192.848L3100.824,1188.97C3099.436,1185.958 3098.094,1182.928 3096.802,1179.88L3088.272,1183.496ZM3104.8,1217.212C3106.454,1220.184 3108.146,1223.134 3109.878,1226.062L3117.854,1221.35C3116.164,1218.488 3114.51,1215.606 3112.898,1212.706L3104.8,1217.212ZM3124.508,1249.086C3126.418,1251.894 3128.358,1254.682 3130.326,1257.446L3137.874,1252.07C3135.944,1249.36 3134.042,1246.628 3132.17,1243.876L3124.508,1249.086ZM3146.716,1279.192C3147.772,1280.52 3148.834,1281.842 3149.9,1283.158L3157.098,1277.324C3156.05,1276.03 3155.006,1274.73 3153.97,1273.426L3146.716,1279.192ZM3149.91,1283.17C3150.92,1284.408 3151.936,1285.644 3152.956,1286.874L3160.088,1280.96C3159.084,1279.748 3158.084,1278.532 3157.088,1277.312L3149.91,1283.17ZM3169.752,1306.276C3171.896,1308.65 3174.056,1311.004 3176.236,1313.34L3183.012,1307.02C3180.866,1304.72 3178.738,1302.402 3176.626,1300.066L3169.752,1306.276ZM3194.132,1331.732C3196.41,1333.976 3198.706,1336.2 3201.018,1338.406L3207.414,1331.702C3205.138,1329.53 3202.878,1327.34 3200.634,1325.13L3194.132,1331.732ZM3219.956,1355.722C3222.362,1357.828 3224.782,1359.916 3227.218,1361.984L3233.212,1354.918C3230.814,1352.882 3228.43,1350.828 3226.062,1348.752L3219.956,1355.722ZM3247.134,1378.166C3249.658,1380.13 3252.196,1382.072 3254.748,1383.994L3260.322,1376.592C3257.808,1374.698 3255.308,1372.786 3252.824,1370.854L3247.134,1378.166ZM3275.574,1398.99C3278.208,1400.802 3280.854,1402.594 3283.516,1404.364L3288.648,1396.648C3286.026,1394.906 3283.42,1393.142 3280.828,1391.358L3275.574,1398.99ZM3305.18,1418.12C3307.912,1419.776 3310.66,1421.41 3313.42,1423.022L3318.094,1415.022C3315.376,1413.434 3312.67,1411.824 3309.978,1410.194L3305.18,1418.12ZM3335.848,1435.492C3338.674,1436.986 3341.512,1438.458 3344.36,1439.906L3348.56,1431.646C3345.754,1430.22 3342.96,1428.772 3340.178,1427.302L3335.848,1435.492ZM3367.478,1451.048C3370.386,1452.374 3373.304,1453.678 3376.234,1454.958L3379.944,1446.468C3377.06,1445.208 3374.186,1443.924 3371.324,1442.618L3367.478,1451.048ZM3399.96,1464.734C3402.94,1465.888 3405.928,1467.02 3408.928,1468.128L3412.138,1459.436C3409.184,1458.346 3406.24,1457.232 3403.308,1456.096L3399.96,1464.734ZM3433.184,1476.504C3436.226,1477.482 3439.276,1478.438 3442.336,1479.368L3445.034,1470.504C3442.02,1469.588 3439.018,1468.648 3436.022,1467.684L3433.184,1476.504ZM3467.038,1486.318C3468.586,1486.718 3470.136,1487.112 3471.688,1487.5L3473.936,1478.512C3472.408,1478.128 3470.882,1477.742 3469.358,1477.346L3467.038,1486.318Z" transform="rotate(74.528 2991.54 856.546)" fill="#FFFFFF"/>
</g>
<path d="M2886,140L836,140C813.909,140 796,157.909 796,180L796,1488C796,1510.092 813.909,1528 836,1528L2886,1528C2908.1,1528 2926,1510.092 2926,1488L2926,180C2926,157.909 2908.1,140 2886,140Z" fill="#F7F9FE"/>
</svg>
